<svg width="1958" height="1425" viewBox="0 0 1958 1425" fill="none" xmlns="http://www.w3.org/2000/svg">
<path d="M0 0H1958V1425H0V0Z" fill="url(#paint0_linear)"/>
<path d="M977.008 1319.86L975.692 1317.63C975.472 1317.14 972.839 1317.63 972.4 1317.63C970.644 1317.63 971.083 1317.14 971.083 1314.66C971.083 1313.67 968.889 1314.17 968.23 1314.17C966.694 1314.17 968.23 1316.39 967.572 1317.63C967.133 1318.13 964.28 1317.63 963.622 1317.63C962.744 1317.63 962.525 1318.13 962.525 1316.89V1300.07C962.525 1298.33 961.647 1294.13 963.622 1294.62C962.305 1291.16 959.891 1288.19 958.135 1284.97C956.38 1281.76 954.405 1278.54 952.649 1275.33C950.674 1278.79 948.699 1282 946.724 1285.47C944.968 1288.44 942.774 1291.41 941.457 1294.62C943.213 1294.13 942.554 1297.59 942.554 1299.08V1310.7C942.554 1311.69 942.993 1316.64 942.554 1317.38C942.115 1317.88 939.921 1317.38 939.701 1317.38H936.409C936.19 1317.38 936.629 1314.17 936.19 1314.17H932.898C932.679 1314.17 933.118 1317.38 932.679 1317.38H928.948C927.631 1317.38 926.095 1321.09 925.437 1322.58C924.12 1324.81 922.803 1327.03 921.706 1329.26V1262.46C921.706 1261.47 920.828 1261.97 920.17 1261.97C918.414 1261.97 918.634 1262.21 918.634 1260.23V1249.1C918.634 1247.12 917.317 1247.86 916 1247.86H910.953C910.075 1247.86 910.514 1242.92 910.514 1241.93V1210.26C910.514 1210.01 907.222 1210.26 906.783 1210.26C905.686 1210.26 906.125 1207.04 906.125 1205.8C906.125 1205.56 902.614 1205.8 902.175 1205.8C899.98 1205.8 900.638 1206.3 900.638 1209.02C900.638 1211 900.2 1210.51 898.663 1210.51H893.177C892.08 1210.51 892.519 1208.77 892.519 1207.54V1201.1C892.519 1200.86 889.007 1201.1 888.788 1201.1C888.349 1201.1 888.568 1196.9 888.568 1196.16C888.568 1194.67 888.788 1194.67 887.691 1194.67H873.426C873.426 1194.67 873.426 1199.37 873.426 1199.62C873.426 1202.09 872.548 1201.1 870.793 1201.1C869.037 1201.1 869.476 1201.35 869.476 1203.33V1210.26C869.476 1210.75 867.062 1210.51 866.623 1210.51H861.356C860.917 1210.51 861.137 1206.55 861.137 1206.05C861.137 1205.8 857.187 1206.05 856.748 1206.05C854.992 1206.05 855.651 1207.04 855.651 1209.27C855.651 1210.26 855.87 1210.75 854.992 1210.75H852.359C851.481 1210.75 851.481 1210.51 851.481 1211.74V1248.11C851.481 1248.61 845.775 1248.36 844.897 1248.36C843.142 1248.36 843.58 1248.85 843.58 1251.08V1257.26C843.58 1258.01 844.019 1261.97 843.58 1262.46C843.361 1262.95 840.508 1261.97 840.508 1262.71V1273.35C824.927 1257.26 800.348 1257.51 784.986 1274.34V1174.63C784.986 1172.65 782.133 1173.64 780.817 1173.64C780.597 1173.64 781.036 1171.66 780.817 1171.42C780.597 1171.17 779.061 1171.42 778.842 1171.42C778.403 1171.42 777.305 1171.66 776.867 1171.42C776.647 1171.42 777.086 1170.43 776.867 1170.43H740.437C739.779 1170.43 739.779 1171.42 739.779 1171.42C739.34 1171.42 736.048 1171.17 736.048 1171.66C736.048 1172.16 736.268 1173.89 735.829 1173.89H733.195C732.756 1173.89 731.879 1173.39 731.879 1174.38V1241.68C731.001 1239.7 730.123 1237.72 729.245 1235.49C728.806 1234.75 727.489 1230.54 726.831 1230.54H719.808C719.15 1230.54 718.492 1230.79 718.492 1230.05C718.492 1228.57 718.711 1228.32 717.614 1228.32H714.761C714.322 1228.32 714.542 1229.56 714.542 1230.05C714.542 1231.04 714.103 1230.54 713.225 1230.54H689.963C689.963 1230.54 689.963 1228.57 689.963 1228.32C689.963 1228.07 688.866 1228.07 688.646 1228.07H686.013C685.793 1228.07 686.013 1229.8 686.013 1230.3C686.013 1230.54 682.94 1230.54 682.721 1230.54C681.843 1230.54 679.21 1230.05 678.332 1230.54C677.893 1230.79 677.454 1232.28 677.234 1232.77C674.162 1239.7 671.09 1246.63 668.017 1253.55C668.895 1253.55 669.992 1252.81 669.992 1254.3V1284.97C669.992 1285.96 664.067 1285.47 663.189 1285.47C662.97 1285.47 662.092 1285.72 662.092 1285.22C662.092 1284.97 662.092 1282.99 662.092 1282.99C661.434 1282.99 658.581 1282.5 658.142 1282.99C657.922 1283.24 658.361 1285.22 658.142 1285.22H651.339C650.681 1285.22 650.9 1278.29 650.9 1276.56V1117.23C650.9 1116.49 651.12 1106.35 650.681 1106.35C649.583 1106.35 649.583 1106.6 649.583 1105.11V1102.14C649.583 1101.65 648.705 1100.9 648.486 1100.66C643.658 1094.72 639.049 1088.53 634.222 1082.6C633.124 1081.36 630.271 1082.1 628.516 1082.1V1074.19H624.127V1068H606.79V1074.19H602.401V1081.85C600.645 1081.85 597.792 1080.87 596.695 1082.35C594.5 1085.32 592.086 1088.04 589.892 1091.01C587.478 1094.22 584.844 1097.44 582.43 1100.41C581.772 1101.15 581.553 1101.4 581.553 1102.39V1105.61C581.553 1106.6 580.675 1105.36 580.455 1105.85C580.016 1106.35 580.455 1109.56 580.455 1110.55V1254.05C580.455 1256.27 580.675 1271.86 580.236 1271.86H539.856C538.54 1271.86 539.856 1264.93 539.198 1264.93C538.32 1264.93 530.859 1264.93 530.859 1264.93V1231.04C530.859 1229.31 530.2 1225.1 531.078 1223.62C532.834 1220.15 534.809 1216.44 536.565 1212.98C537.442 1211.25 536.784 1206.79 536.784 1204.81V1182.3C536.784 1181.56 537.223 1177.6 536.784 1177.11C536.345 1176.61 533.492 1177.11 532.834 1177.11C531.737 1177.11 529.762 1177.6 529.323 1176.61C528.884 1175.62 529.323 1172.4 529.323 1171.17C529.323 1170.92 521.422 1171.17 520.544 1171.17C519.228 1171.17 519.228 1171.42 519.228 1169.68V1163.75C519.228 1163.5 515.278 1163.75 514.839 1163.75C514.18 1163.75 514.619 1159.79 514.619 1159.04C514.619 1156.32 514.4 1156.82 512.205 1156.82C510.23 1156.82 510.23 1156.57 510.23 1159.04C510.23 1159.54 510.45 1163.75 510.23 1163.75H483.676C483.457 1163.75 483.457 1160.03 483.457 1159.79C483.457 1156.82 483.896 1157.07 481.482 1157.07C479.726 1157.07 479.068 1156.32 479.068 1158.55C479.068 1159.29 479.287 1163.75 478.848 1163.75C477.97 1163.75 475.117 1163.25 474.459 1163.75C474.02 1164.24 474.459 1168.94 474.459 1169.68C474.459 1171.17 474.679 1171.17 473.581 1171.17H467.876C467.437 1171.17 465.023 1170.67 464.584 1171.17C463.925 1172.16 465.023 1175.62 464.584 1176.61C464.145 1177.6 462.609 1177.11 461.511 1177.11C460.853 1177.11 457.561 1176.61 457.122 1177.11C456.683 1177.6 457.122 1181.06 457.122 1181.56V1210.75C457.122 1211.25 456.903 1212.24 457.342 1212.73C459.097 1216.2 461.072 1219.91 462.828 1223.37C463.267 1224.36 463.048 1226.09 463.048 1227.33V1288.44C463.048 1288.93 453.831 1288.68 453.172 1288.68H410.379C409.062 1288.68 407.745 1289.43 407.745 1287.45C407.745 1285.96 404.892 1286.71 403.795 1286.71C403.576 1286.71 402.478 1286.46 402.259 1286.71C402.039 1286.95 402.478 1288.68 402.259 1288.68H397.431C396.553 1288.68 394.578 1288.19 393.7 1288.68C392.822 1289.18 391.725 1291.9 391.067 1293.14C390.189 1294.38 389.531 1295.61 388.653 1297.1V1169.93C388.653 1167.7 387.994 1168.69 386.239 1168.69C384.483 1168.69 386.678 1165.97 384.922 1165.97C384.483 1165.97 383.166 1166.22 382.727 1165.97C382.508 1165.72 382.947 1164.74 382.727 1164.74H356.393C355.954 1164.74 356.612 1165.97 356.174 1165.97H353.76C352.662 1165.97 354.198 1168.69 352.662 1168.69C350.468 1168.69 350.248 1167.95 350.248 1170.67V1255.53C350.248 1257.26 346.956 1256.77 346.956 1255.53C346.956 1254.54 347.395 1250.83 346.518 1250.83H341.47C339.495 1250.83 339.715 1250.58 339.715 1253.31C339.715 1255.53 340.153 1256.27 338.617 1256.27C338.178 1256.27 334.228 1256.27 334.228 1256.27V1119.95C334.228 1119.21 332.253 1119.71 331.595 1119.71C329.839 1119.71 330.497 1118.22 330.497 1116C330.497 1115.5 327.206 1116.49 327.206 1115.5C327.206 1114.02 327.425 1114.26 326.328 1114.26H296.482C296.263 1114.26 295.165 1114.02 294.946 1114.26C294.507 1114.76 295.385 1116 294.726 1116H292.312C290.776 1116 292.093 1119.71 291.654 1119.71C291.215 1119.71 288.143 1119.71 288.143 1119.71V1253.8C288.143 1257.02 287.923 1256.27 285.29 1256.27H272.562C271.684 1256.27 270.367 1256.77 270.367 1255.53C270.367 1254.54 270.806 1250.83 269.928 1250.83H264.881C262.906 1250.83 263.125 1250.58 263.125 1253.31C263.125 1254.79 263.564 1256.27 262.247 1256.27H256.542C256.103 1256.27 254.128 1255.78 253.689 1256.52C251.714 1259.24 249.738 1261.97 247.763 1264.69V1246.13C248.202 1246.87 248.861 1247.62 249.519 1248.61C249.958 1247.62 252.152 1245.39 251.494 1244.4C250.616 1243.16 249.738 1241.68 248.641 1240.44C244.91 1235 241.18 1229.56 237.23 1224.11C231.304 1215.45 225.16 1206.79 219.234 1198.13C213.309 1206.79 207.164 1215.45 201.239 1224.11C197.508 1229.56 193.558 1235 189.828 1240.44C188.95 1241.68 187.852 1243.16 186.975 1244.4C186.316 1245.39 188.511 1247.37 189.169 1248.11C189.608 1247.62 190.047 1246.87 190.266 1246.38V1295.36C186.536 1291.65 182.805 1287.2 179.294 1283.24C178.196 1282 177.099 1280.03 175.563 1280.03H166.785C165.688 1280.03 149.448 1280.03 149.448 1280.03V1247.12C149.448 1246.87 156.471 1246.87 157.348 1246.87C154.057 1241.43 150.765 1236.24 147.473 1230.79C142.426 1222.63 137.598 1214.71 132.55 1206.55C130.794 1203.58 129.039 1200.86 127.283 1198.13C126.844 1197.39 126.186 1195.41 125.308 1195.41H110.385C109.069 1195.41 109.507 1194.92 109.507 1193.19C109.507 1191.21 109.069 1191.7 107.752 1191.7H98.3153C98.0959 1191.7 98.5348 1195.41 98.3153 1195.41H89.0982C88.2204 1195.41 82.7341 1194.42 82.2952 1195.41C79.4423 1200.11 76.3699 1204.81 73.517 1209.52C65.8361 1221.89 58.1553 1234.26 50.4744 1246.63C52.8884 1246.63 55.0829 1246.63 57.4969 1246.63C58.3747 1246.63 58.3747 1246.38 58.3747 1247.86V1300.31C58.3747 1301.06 58.8136 1305.26 58.3747 1306C57.9358 1306.5 55.0829 1306 54.4245 1306H49.1577C48.0604 1306 48.2798 1305.76 48.2798 1307.24V1324.81C45.6464 1322.83 43.0129 1320.85 40.3795 1319.12C38.6239 1317.88 36.8682 1316.64 35.1126 1315.16C34.8932 1314.91 33.5764 1313.67 33.357 1313.92C33.357 1313.92 33.1375 1313.92 33.1375 1314.17V1264.44H0V1345.09V1422.28H2.8529V1424.76H984.031V1336.93C984.031 1336.19 986.006 1336.68 986.445 1336.68C983.153 1330.74 980.081 1325.3 977.008 1319.86Z" fill="#2E2A68"/>
<path d="M1948.56 1319.86L1947.25 1317.63C1947.03 1317.14 1944.39 1317.63 1943.95 1317.63C1942.2 1317.63 1942.64 1317.14 1942.64 1314.66C1942.64 1313.67 1940.44 1314.17 1939.78 1314.17C1938.25 1314.17 1939.78 1316.39 1939.13 1317.63C1938.69 1318.13 1935.83 1317.63 1935.18 1317.63C1934.3 1317.63 1934.08 1318.13 1934.08 1316.89V1300.07C1934.08 1298.33 1933.2 1294.13 1935.18 1294.62C1933.86 1291.16 1931.45 1288.19 1929.69 1284.97C1927.93 1281.76 1925.96 1278.54 1924.2 1275.32C1922.23 1278.79 1920.25 1282 1918.28 1285.47C1916.52 1288.44 1914.33 1291.41 1913.01 1294.62C1914.77 1294.13 1914.11 1297.59 1914.11 1299.08V1310.7C1914.11 1311.69 1914.55 1316.64 1914.11 1317.38C1913.67 1317.88 1911.48 1317.38 1911.26 1317.38H1907.96C1907.74 1317.38 1908.18 1314.17 1907.74 1314.17H1904.45C1904.23 1314.17 1904.67 1317.38 1904.23 1317.38H1900.5C1899.19 1317.38 1897.65 1321.09 1896.99 1322.58C1895.67 1324.81 1894.36 1327.03 1893.26 1329.26V1262.46C1893.26 1261.47 1892.38 1261.97 1891.72 1261.97C1889.97 1261.97 1890.19 1262.21 1890.19 1260.23V1249.1C1890.19 1247.12 1888.87 1247.86 1887.55 1247.86H1882.51C1881.63 1247.86 1882.07 1242.92 1882.07 1241.93V1210.26C1882.07 1210.01 1878.78 1210.26 1878.34 1210.26C1877.24 1210.26 1877.68 1207.04 1877.68 1205.8C1877.68 1205.56 1874.17 1205.8 1873.73 1205.8C1871.53 1205.8 1872.19 1206.3 1872.19 1209.02C1872.19 1211 1871.75 1210.51 1870.22 1210.51H1864.73C1863.63 1210.51 1864.07 1208.77 1864.07 1207.54V1201.1C1864.07 1200.86 1860.56 1201.1 1860.34 1201.1C1859.9 1201.1 1860.12 1196.9 1860.12 1196.16C1860.12 1194.67 1860.34 1194.67 1859.25 1194.67H1844.98C1844.98 1194.67 1844.98 1199.37 1844.98 1199.62C1844.98 1202.09 1844.1 1201.1 1842.35 1201.1C1840.59 1201.1 1841.03 1201.35 1841.03 1203.33V1210.26C1841.03 1210.75 1838.62 1210.51 1838.18 1210.51H1832.91C1832.47 1210.51 1832.69 1206.55 1832.69 1206.05C1832.69 1205.8 1828.74 1206.05 1828.3 1206.05C1826.55 1206.05 1827.21 1207.04 1827.21 1209.27C1827.21 1210.26 1827.42 1210.75 1826.55 1210.75H1823.91C1823.04 1210.75 1823.04 1210.51 1823.04 1211.74V1248.11C1823.04 1248.61 1817.33 1248.36 1816.45 1248.36C1814.7 1248.36 1815.14 1248.85 1815.14 1251.08V1257.26C1815.14 1258.01 1815.57 1261.97 1815.14 1262.46C1814.92 1262.95 1812.06 1261.97 1812.06 1262.71V1273.35C1796.48 1257.26 1771.9 1257.51 1756.54 1274.34V1174.63C1756.54 1172.65 1753.69 1173.64 1752.37 1173.64C1752.15 1173.64 1752.59 1171.66 1752.37 1171.42C1752.15 1171.17 1750.62 1171.42 1750.4 1171.42C1749.96 1171.42 1748.86 1171.66 1748.42 1171.42C1748.2 1171.42 1748.64 1170.43 1748.42 1170.43H1711.99C1711.33 1170.43 1711.33 1171.42 1711.33 1171.42C1710.89 1171.42 1707.6 1171.17 1707.6 1171.66C1707.6 1172.16 1707.82 1173.89 1707.38 1173.89H1704.75C1704.31 1173.89 1703.43 1173.39 1703.43 1174.38V1241.68C1702.56 1239.7 1701.68 1237.72 1700.8 1235.49C1700.36 1234.75 1699.04 1230.54 1698.39 1230.54H1691.36C1690.7 1230.54 1690.05 1230.79 1690.05 1230.05C1690.05 1228.57 1690.27 1228.32 1689.17 1228.32H1686.32C1685.88 1228.32 1686.1 1229.56 1686.1 1230.05C1686.1 1231.04 1685.66 1230.54 1684.78 1230.54H1661.52C1661.52 1230.54 1661.52 1228.57 1661.52 1228.32C1661.52 1228.07 1660.42 1228.07 1660.2 1228.07H1657.57C1657.35 1228.07 1657.57 1229.8 1657.57 1230.3C1657.57 1230.54 1654.5 1230.54 1654.28 1230.54C1653.4 1230.54 1650.76 1230.05 1649.89 1230.54C1649.45 1230.79 1649.01 1232.28 1648.79 1232.77C1645.72 1239.7 1642.64 1246.63 1639.57 1253.55C1640.45 1253.55 1641.55 1252.81 1641.55 1254.3V1284.97C1641.55 1285.96 1635.62 1285.47 1634.74 1285.47C1634.52 1285.47 1633.65 1285.72 1633.65 1285.22C1633.65 1284.97 1633.65 1282.99 1633.65 1282.99C1632.99 1282.99 1630.14 1282.5 1629.7 1282.99C1629.48 1283.24 1629.92 1285.22 1629.7 1285.22H1622.89C1622.24 1285.22 1622.45 1278.29 1622.45 1276.56V1117.23C1622.45 1116.49 1622.67 1106.35 1622.24 1106.35C1621.14 1106.35 1621.14 1106.6 1621.14 1105.11V1102.14C1621.14 1101.65 1620.26 1100.9 1620.04 1100.66C1615.21 1094.72 1610.6 1088.53 1605.78 1082.6C1604.68 1081.36 1601.83 1082.1 1600.07 1082.1V1074.19H1595.68V1068H1578.34V1074.19H1573.96V1081.85C1572.2 1081.85 1569.35 1080.87 1568.25 1082.35C1566.06 1085.32 1563.64 1088.04 1561.45 1091.01C1559.03 1094.22 1556.4 1097.44 1553.99 1100.41C1553.33 1101.15 1553.11 1101.4 1553.11 1102.39V1105.61C1553.11 1106.6 1552.23 1105.36 1552.01 1105.85C1551.57 1106.35 1552.01 1109.56 1552.01 1110.55V1254.05C1552.01 1256.27 1552.23 1271.86 1551.79 1271.86H1511.41C1510.09 1271.86 1511.41 1264.93 1510.75 1264.93C1509.87 1264.93 1502.41 1264.93 1502.41 1264.93V1231.04C1502.41 1229.31 1501.76 1225.1 1502.63 1223.62C1504.39 1220.15 1506.36 1216.44 1508.12 1212.98C1509 1211.25 1508.34 1206.79 1508.34 1204.81V1182.3C1508.34 1181.56 1508.78 1177.6 1508.34 1177.11C1507.9 1176.61 1505.05 1177.11 1504.39 1177.11C1503.29 1177.11 1501.32 1177.6 1500.88 1176.61C1500.44 1175.62 1500.88 1172.4 1500.88 1171.17C1500.88 1170.92 1492.98 1171.17 1492.1 1171.17C1490.78 1171.17 1490.78 1171.42 1490.78 1169.68V1163.75C1490.78 1163.5 1486.83 1163.75 1486.39 1163.75C1485.74 1163.75 1486.17 1159.79 1486.17 1159.04C1486.17 1156.32 1485.95 1156.82 1483.76 1156.82C1481.78 1156.82 1481.78 1156.57 1481.78 1159.04C1481.78 1159.54 1482 1163.75 1481.78 1163.75H1455.23C1455.01 1163.75 1455.01 1160.03 1455.01 1159.79C1455.01 1156.82 1455.45 1157.07 1453.04 1157.07C1451.28 1157.07 1450.62 1156.32 1450.62 1158.55C1450.62 1159.29 1450.84 1163.75 1450.4 1163.75C1449.53 1163.75 1446.67 1163.25 1446.01 1163.75C1445.57 1164.24 1446.01 1168.94 1446.01 1169.68C1446.01 1171.17 1446.23 1171.17 1445.14 1171.17H1439.43C1438.99 1171.17 1436.58 1170.67 1436.14 1171.17C1435.48 1172.16 1436.58 1175.62 1436.14 1176.61C1435.7 1177.6 1434.16 1177.11 1433.07 1177.11C1432.41 1177.11 1429.12 1176.61 1428.68 1177.11C1428.24 1177.6 1428.68 1181.06 1428.68 1181.56V1210.75C1428.68 1211.25 1428.46 1212.24 1428.9 1212.73C1430.65 1216.2 1432.63 1219.91 1434.38 1223.37C1434.82 1224.36 1434.6 1226.09 1434.6 1227.33V1288.44C1434.6 1288.93 1425.39 1288.68 1424.73 1288.68H1381.93C1380.62 1288.68 1379.3 1289.43 1379.3 1287.45C1379.3 1285.96 1376.45 1286.71 1375.35 1286.71C1375.13 1286.71 1374.03 1286.46 1373.81 1286.71C1373.59 1286.95 1374.03 1288.68 1373.81 1288.68H1368.99C1368.11 1288.68 1366.13 1288.19 1365.25 1288.68C1364.38 1289.18 1363.28 1291.9 1362.62 1293.14C1361.74 1294.38 1361.09 1295.61 1360.21 1297.1V1169.93C1360.21 1167.7 1359.55 1168.69 1357.79 1168.69C1356.04 1168.69 1358.23 1165.97 1356.48 1165.97C1356.04 1165.97 1354.72 1166.22 1354.28 1165.97C1354.06 1165.72 1354.5 1164.74 1354.28 1164.74H1327.95C1327.51 1164.74 1328.17 1165.97 1327.73 1165.97H1325.31C1324.22 1165.97 1325.75 1168.69 1324.22 1168.69C1322.02 1168.69 1321.8 1167.95 1321.8 1170.67V1255.53C1321.8 1257.26 1318.51 1256.77 1318.51 1255.53C1318.51 1254.54 1318.95 1250.83 1318.07 1250.83H1313.02C1311.05 1250.83 1311.27 1250.58 1311.27 1253.31C1311.27 1255.53 1311.71 1256.27 1310.17 1256.27C1309.73 1256.27 1305.78 1256.27 1305.78 1256.27V1119.95C1305.78 1119.21 1303.81 1119.71 1303.15 1119.71C1301.39 1119.71 1302.05 1118.22 1302.05 1116C1302.05 1115.5 1298.76 1116.49 1298.76 1115.5C1298.76 1114.02 1298.98 1114.26 1297.88 1114.26H1268.04C1267.82 1114.26 1266.72 1114.02 1266.5 1114.26C1266.06 1114.76 1266.94 1116 1266.28 1116H1263.87C1262.33 1116 1263.65 1119.71 1263.21 1119.71C1262.77 1119.71 1259.7 1119.71 1259.7 1119.71V1253.8C1259.7 1257.02 1259.48 1256.27 1256.84 1256.27H1244.12C1243.24 1256.27 1241.92 1256.77 1241.92 1255.53C1241.92 1254.54 1242.36 1250.83 1241.48 1250.83H1236.44C1234.46 1250.83 1234.68 1250.58 1234.68 1253.31C1234.68 1254.79 1235.12 1256.27 1233.8 1256.27H1228.1C1227.66 1256.27 1225.68 1255.78 1225.24 1256.52C1223.27 1259.24 1221.29 1261.97 1219.32 1264.69V1246.13C1219.76 1246.87 1220.42 1247.62 1221.07 1248.61C1221.51 1247.62 1223.71 1245.39 1223.05 1244.4C1222.17 1243.16 1221.29 1241.68 1220.2 1240.44C1216.47 1235 1212.73 1229.56 1208.78 1224.11C1202.86 1215.45 1196.71 1206.79 1190.79 1198.13C1184.86 1206.79 1178.72 1215.45 1172.79 1224.11C1169.06 1229.56 1165.11 1235 1161.38 1240.44C1160.5 1241.68 1159.41 1243.16 1158.53 1244.4C1157.87 1245.39 1160.07 1247.37 1160.72 1248.11C1161.16 1247.62 1161.6 1246.87 1161.82 1246.38V1295.36C1158.09 1291.65 1154.36 1287.2 1150.85 1283.24C1149.75 1282 1148.65 1280.03 1147.12 1280.03H1138.34C1137.24 1280.03 1121 1280.03 1121 1280.03V1247.12C1121 1246.87 1128.03 1246.87 1128.9 1246.87C1125.61 1241.43 1122.32 1236.24 1119.03 1230.79C1113.98 1222.63 1109.15 1214.71 1104.1 1206.55C1102.35 1203.58 1100.59 1200.86 1098.84 1198.13C1098.4 1197.39 1097.74 1195.41 1096.86 1195.41H1081.94C1080.62 1195.41 1081.06 1194.92 1081.06 1193.19C1081.06 1191.21 1080.62 1191.7 1079.31 1191.7H1069.87C1069.65 1191.7 1070.09 1195.41 1069.87 1195.41H1060.65C1059.78 1195.41 1054.29 1194.42 1053.85 1195.41C1051 1200.11 1047.92 1204.81 1045.07 1209.52C1037.39 1221.89 1029.71 1234.26 1022.03 1246.63C1024.44 1246.63 1026.64 1246.63 1029.05 1246.63C1029.93 1246.63 1029.93 1246.38 1029.93 1247.86V1300.31C1029.93 1301.06 1030.37 1305.26 1029.93 1306C1029.49 1306.5 1026.64 1306 1025.98 1306H1020.71C1019.62 1306 1019.83 1305.76 1019.83 1307.24V1324.81C1017.2 1322.83 1014.57 1320.85 1011.93 1319.12C1010.18 1317.88 1008.42 1316.64 1006.67 1315.16C1006.45 1314.91 1005.13 1313.67 1004.91 1313.92C1004.91 1313.92 1004.69 1313.92 1004.69 1314.17V1264.44H971.555V1345.09V1422.28H974.408V1424.76H1955.59V1336.93C1955.59 1336.19 1957.56 1336.68 1958 1336.68C1954.71 1330.74 1951.64 1325.3 1948.56 1319.86Z" fill="#2E2A68"/>
<defs>
<linearGradient id="paint0_linear" x1="984.221" y1="0" x2="984.221" y2="1425" gradientUnits="userSpaceOnUse">
<stop stop-color="#25225C"/>
<stop offset="1" stop-color="#6C4AA4"/>
</linearGradient>
</defs>
</svg>
