<svg id="Layer_1" data-name="Layer 1" xmlns="http://www.w3.org/2000/svg" xmlns:xlink="http://www.w3.org/1999/xlink" viewBox="0 0 896.17 308.03"><defs><style>.cls-1{fill:url(#linear-gradient);}.cls-2{fill:#2e2a68;}</style><linearGradient id="linear-gradient" x1="447.52" y1="308.03" x2="447.52" gradientUnits="userSpaceOnUse"><stop offset="0" stop-color="#6c4aa4"/><stop offset="1" stop-color="#25225c"/></linearGradient></defs><title>background-skyline-with-gradient</title><rect class="cls-1" width="895.05" height="308.03"/><path class="cls-2" d="M891.9,265.75l-.6-.91c-.11-.16-1.29,0-1.48,0-.83,0-.61-.21-.61-1.15,0-.44-1-.21-1.31-.21-.74,0,0,.94-.31,1.36-.16.22-1.54,0-1.79,0-.42,0-.54.16-.54-.3v-6.79c0-.66-.39-2.41.49-2.18a34.2,34.2,0,0,0-2.53-3.9c-.84-1.3-1.69-2.57-2.52-3.87-.9,1.37-1.79,2.72-2.67,4.08a36,36,0,0,0-2.41,3.69c.85-.23.51,1.15.51,1.79v4.72c0,.37.25,2.43,0,2.69s-1.15,0-1.32,0h-1.5c-.09,0,.06-1.29-.06-1.29h-1.46c-.13,0,.06,1.29-.07,1.29h-1.66c-.63,0-1.27,1.54-1.62,2.09l-1.74,2.7v-27c0-.41-.42-.21-.73-.21-.75,0-.72.1-.72-.75v-4.48c0-.78-.59-.48-1.16-.48h-2.26c-.4,0-.19-2-.19-2.41V221.45s-1.52,0-1.68,0c-.52,0-.26-1.3-.26-1.81a11.49,11.49,0,0,0-1.8,0c-1,0-.73.2-.73,1.28,0,.8-.23.57-.91.57h-2.59c-.48,0-.26-.7-.26-1.16v-2.64s-1.56,0-1.73,0-.11-1.74-.11-2c0-.64.08-.62-.43-.62h-6.49s0,1.88,0,2c0,.95-.45.62-1.24.62s-.61,0-.61.92v2.82c0,.19-1.14.09-1.31.09H839.1c-.15,0-.07-1.56-.07-1.81a14.06,14.06,0,0,0-2,0c-.79,0-.53.41-.53,1.28,0,.44.11.57-.26.57H835c-.43,0-.43-.11-.43.35v14.7a14.61,14.61,0,0,1-3,.09c-.83,0-.63.23-.63,1.12v2.48a7.45,7.45,0,0,1,0,2.11c-.14.19-1.44-.22-1.44.07v4.56a18.43,18.43,0,0,0-25.28.42V207.07c0-.81-1.34-.37-1.89-.37-.13,0,.06-.81,0-.92s-.77,0-.89,0-.66.11-.88,0,.08-.37,0-.37H783.93c-.33,0-.34.37-.34.37-.23,0-1.74-.07-1.74.07s.12.85-.13.85h-1.17c-.23,0-.63-.16-.63.16v27.22l-1.25-2.48c-.15-.29-.8-2-1.09-2h-2.87c-.31,0-.56.15-.56-.23,0-.62.11-.69-.41-.69h-1.33c-.23,0-.12.46-.12.69,0,.38-.25.23-.56.23H761.1s0-.76,0-.85-.51-.07-.61-.07h-1.22a3.78,3.78,0,0,0,0,.85c0,.15-1.36.07-1.53.07-.42,0-1.59-.24-2,0-.18.13-.35.71-.46.91-1.42,2.8-2.82,5.62-4.24,8.42.45,0,.88-.27.88.32v12.36c0,.37-2.71.16-3.13.16-.11,0-.54.09-.54-.06s0-.85,0-.85c-.31,0-1.65-.21-1.84,0s.08.91,0,.91h-3.11c-.34,0-.17-2.82-.17-3.48V183.83a41.46,41.46,0,0,0-.08-4.4c-.53,0-.48,0-.48-.53v-1.21c0-.17-.42-.51-.51-.62-2.17-2.44-4.35-4.87-6.52-7.32-.48-.53-1.85-.21-2.56-.18v-3.1h-2v-2.53h-7.91v2.53h-2v3.1c-.76,0-2.07-.37-2.62.25-1.05,1.17-2.1,2.34-3.13,3.51l-3.43,3.83c-.27.3-.43.37-.43.82v1.31c0,.39-.38,0-.54.14s0,1.49,0,1.88v58c0,.91.13,7.16-.14,7.16h-18c-.65,0,0-2.76-.28-2.76s-3.76,0-3.76,0V229.88c0-.68-.29-2.42.08-3,.85-1.43,1.68-2.85,2.53-4.29.43-.73.12-2.48.12-3.32v-9.11a7.69,7.69,0,0,0,0-2.09c-.21-.21-1.52,0-1.8,0-.51,0-1.39.21-1.59-.2a7.3,7.3,0,0,1,0-2.19c0-.08-3.61,0-4,0-.59,0-.6.09-.6-.57v-2.41a17.45,17.45,0,0,0-2,0c-.26,0-.12-1.62-.12-1.9,0-1.14-.11-.89-1.1-.89s-.86-.14-.86.89a10.44,10.44,0,0,1-.05,1.9H667.26a7.19,7.19,0,0,1-.06-1.65c0-1.16.15-1.14-.87-1.14-.78,0-1.08-.3-1.08.64,0,.32.14,2.15-.12,2.15s-1.73-.25-2,0a9,9,0,0,0,0,2.44c0,.57.06.57-.45.57h-2.59c-.23,0-1.34-.18-1.53,0-.3.35.24,1.77,0,2.23s-.87.2-1.35.2-1.79-.25-2,0a6.66,6.66,0,0,0,0,1.84v11.78a1.83,1.83,0,0,0,.06.81c.85,1.44,1.7,2.86,2.54,4.29a3.55,3.55,0,0,1,.13,1.6v24.72a38.62,38.62,0,0,1-4.52.08H633.9c-.65,0-1.2.31-1.2-.51,0-.57-1.35-.28-1.76-.28-.09,0-.65-.07-.71,0s.06.79,0,.79h-2.15c-.44,0-1.35-.21-1.73,0s-.94,1.35-1.25,1.78-.74,1-1.09,1.58V205.16c0-.85-.28-.53-1.08-.53s.17-1.1-.64-1.1a3,3,0,0,1-.95,0c-.08-.06.11-.48-.05-.48h-12c-.17,0,.06.48-.09.48h-1.08c-.51,0,.23,1.1-.47,1.1-1,0-1.08-.27-1.08.76v34.33c0,.67-1.54.48-1.54,0s.19-1.92-.17-1.92h-2.31c-.89,0-.79-.05-.79,1,0,.87.25,1.23-.52,1.23h-2V185c0-.33-.94-.14-1.18-.14-.78,0-.49-.62-.49-1.45,0-.23-1.54.16-1.54-.16,0-.57.08-.55-.35-.55H582.05c-.09,0-.64-.09-.72,0s.21.65-.12.65h-1.13c-.66,0-.08,1.51-.32,1.51s-1.62,0-1.62,0V239c0,1.29-.08,1-1.3,1H571c-.42,0-1,.25-1-.3,0-.38.2-1.92-.17-1.92h-2.31c-.89,0-.78-.05-.78,1,0,.62.24,1.23-.36,1.23h-2.62c-.25,0-1.09-.16-1.26,0-.9,1.12-1.79,2.24-2.7,3.33v-7.48c.24.32.51.64.75,1,.23-.36,1.19-1.31.88-1.7-.43-.55-.85-1.1-1.28-1.63-1.72-2.22-3.44-4.42-5.16-6.62l-8.23-10.51-8.22,10.51c-1.73,2.2-3.45,4.4-5.17,6.62-.43.53-.86,1.08-1.27,1.63-.31.39.72,1.2,1,1.52.19-.23.36-.46.54-.69v19.82c-1.74-1.5-3.36-3.28-5-4.91-.54-.51-1-1.26-1.7-1.26h-4.16c-.54,0-7.92,0-7.92,0V236.37c0-.08,3.24-.06,3.61-.06-1.52-2.16-3-4.34-4.54-6.51q-3.39-4.89-6.81-9.78c-.79-1.16-1.59-2.29-2.39-3.44-.2-.29-.54-1.07-.88-1.07h-6.75c-.57,0-.4-.17-.4-.85s-.16-.62-.85-.62h-4.3a14.44,14.44,0,0,1-.05,1.47h-4.16c-.42,0-2.85-.35-3.11,0l-4,5.75-10.45,15,3.19,0c.45,0,.4-.05.4.46V258c0,.32.22,2,0,2.27s-1.51,0-1.75,0h-2.42c-.5,0-.45-.06-.45.51v7.11c-1.2-.78-2.41-1.56-3.62-2.32L462.64,264c-.11-.07-.69-.57-.8-.5l-.11.08V243.29h-15v24.84c-.51-.8-1-1.59-1.53-2.38l-.61-.91c-.1-.16-1.29,0-1.48,0-.83,0-.61-.21-.61-1.15,0-.44-1-.21-1.31-.21-.74,0,0,.94-.31,1.36-.15.22-1.54,0-1.79,0-.42,0-.54.16-.54-.3v-6.79c0-.66-.38-2.41.5-2.18a37.15,37.15,0,0,0-2.53-3.9c-.85-1.3-1.7-2.57-2.53-3.87-.9,1.37-1.79,2.72-2.67,4.08a35.86,35.86,0,0,0-2.4,3.69c.84-.23.51,1.15.51,1.79v4.72c0,.37.24,2.43,0,2.69s-1.16,0-1.33,0h-1.5c-.09,0,.07-1.29-.06-1.29h-1.46c-.13,0,.06,1.29-.06,1.29h-1.67c-.63,0-1.26,1.54-1.62,2.09-.57.89-1.15,1.8-1.74,2.7v-27c0-.41-.42-.21-.72-.21-.76,0-.73.1-.73-.75v-4.48c0-.78-.58-.48-1.15-.48h-2.27c-.4,0-.19-2-.19-2.41V221.45s-1.52,0-1.68,0c-.52,0-.26-1.3-.26-1.81a11.49,11.49,0,0,0-1.8,0c-1,0-.73.2-.73,1.28,0,.8-.23.57-.91.57H407c-.47,0-.26-.7-.26-1.16v-2.64s-1.56,0-1.72,0-.11-1.74-.11-2c0-.64.07-.62-.43-.62h-6.49s0,1.88,0,2c0,.95-.45.62-1.23.62s-.62,0-.62.92v2.82c0,.19-1.14.09-1.31.09h-2.37c-.16,0-.08-1.56-.08-1.81a14.06,14.06,0,0,0-2,0c-.79,0-.52.41-.52,1.28,0,.44.1.57-.27.57h-1.25c-.43,0-.43-.11-.43.35v14.7a14.61,14.61,0,0,1-3,.09c-.83,0-.63.23-.63,1.12v2.48a7.45,7.45,0,0,1,0,2.11c-.14.19-1.43-.22-1.43.07v4.56a18.45,18.45,0,0,0-25.29.42V207.07c0-.81-1.34-.37-1.89-.37-.13,0,.06-.81,0-.92s-.77,0-.9,0-.66.11-.88,0,.08-.37,0-.37H337.21c-.32,0-.34.37-.34.37-.23,0-1.74-.07-1.74.07s.12.85-.12.85h-1.18c-.23,0-.63-.16-.63.16v27.22c-.41-.84-.83-1.65-1.25-2.48-.15-.29-.8-2-1.09-2H328c-.31,0-.55.15-.55-.23,0-.62.1-.69-.42-.69H325.7c-.24,0-.13.46-.13.69,0,.38-.24.23-.55.23H314.38s0-.76,0-.85-.5-.07-.61-.07h-1.22a3.78,3.78,0,0,0,0,.85c0,.15-1.36.07-1.53.07-.41,0-1.59-.24-2,0-.18.13-.35.71-.46.91-1.42,2.8-2.82,5.62-4.24,8.42.45,0,.88-.27.88.32v12.36c0,.37-2.71.16-3.13.16-.11,0-.54.09-.54-.06s.05-.85,0-.85c-.31,0-1.65-.21-1.83,0s.07.91,0,.91h-3.11c-.34,0-.17-2.82-.17-3.48V183.83a39,39,0,0,0-.08-4.4c-.52,0-.48,0-.48-.53v-1.21c0-.17-.41-.51-.51-.62l-6.52-7.32c-.47-.53-1.85-.21-2.56-.18v-3.1h-2v-2.53h-7.91v2.53h-2v3.1c-.76,0-2.07-.37-2.62.25-1.05,1.17-2.1,2.34-3.13,3.51l-3.42,3.83c-.28.3-.44.37-.44.82v1.31c0,.39-.38,0-.53.14s0,1.49,0,1.88v58c0,.91.12,7.16-.14,7.16H246c-.64,0,0-2.76-.27-2.76s-3.76,0-3.76,0V229.88c0-.68-.3-2.42.07-3,.85-1.43,1.68-2.85,2.53-4.29.43-.73.12-2.48.12-3.32v-9.11a7.69,7.69,0,0,0,0-2.09c-.21-.21-1.52,0-1.8,0-.51,0-1.39.21-1.59-.2a7.65,7.65,0,0,1,0-2.19c0-.08-3.61,0-4,0-.59,0-.6.09-.6-.57v-2.41a17.45,17.45,0,0,0-2,0c-.26,0-.12-1.62-.12-1.9,0-1.14-.11-.89-1.1-.89s-.86-.14-.86.89a10.44,10.44,0,0,1-.05,1.9H220.54a7.19,7.19,0,0,1-.06-1.65c0-1.16.15-1.14-.86-1.14-.79,0-1.08-.3-1.08.64,0,.32.14,2.15-.13,2.15s-1.72-.25-2,0a9,9,0,0,0,0,2.44c0,.57.06.57-.45.57H213.4c-.23,0-1.34-.18-1.52,0-.31.35.23,1.77,0,2.23s-.88.2-1.36.2c-.32,0-1.79-.25-2,0a6.66,6.66,0,0,0,0,1.84v11.78a1.83,1.83,0,0,0,.06.81c.85,1.44,1.7,2.86,2.55,4.29a3.7,3.7,0,0,1,.12,1.6v24.72a38.62,38.62,0,0,1-4.52.08H187.18c-.65,0-1.2.31-1.2-.51,0-.57-1.34-.28-1.76-.28-.09,0-.65-.07-.71,0s.06.79,0,.79h-2.16c-.43,0-1.34-.21-1.73,0s-.94,1.35-1.25,1.78-.74,1-1.09,1.58V205.16c0-.85-.28-.53-1.08-.53s.17-1.1-.63-1.1a3.09,3.09,0,0,1-1,0c-.08-.06.11-.48,0-.48h-12c-.17,0,.06.48-.09.48h-1.08c-.51,0,.23,1.1-.46,1.1-1,0-1.08-.27-1.08.76v34.33c0,.67-1.54.48-1.54,0s.18-1.92-.17-1.92h-2.32c-.89,0-.78-.05-.78,1,0,.87.24,1.23-.53,1.23h-2V185c0-.33-.94-.14-1.17-.14-.79,0-.5-.62-.5-1.45,0-.23-1.54.16-1.54-.16,0-.57.08-.55-.35-.55H135.34c-.1,0-.65-.09-.73,0s.22.65-.12.65h-1.13c-.66,0-.07,1.51-.32,1.51s-1.62,0-1.62,0V239c0,1.29-.08,1-1.29,1h-5.85c-.41,0-1,.25-1-.3,0-.38.2-1.92-.17-1.92h-2.32c-.89,0-.78-.05-.78,1,0,.62.24,1.23-.36,1.23h-2.62c-.24,0-1.09-.16-1.26,0-.9,1.12-1.79,2.24-2.7,3.33v-7.48l.76,1c.23-.36,1.18-1.31.87-1.7-.43-.55-.84-1.1-1.28-1.63-1.72-2.22-3.43-4.42-5.16-6.62q-4.11-5.27-8.23-10.51l-8.22,10.51c-1.73,2.2-3.45,4.4-5.16,6.62-.43.53-.87,1.08-1.28,1.63-.31.39.72,1.2,1,1.52.19-.23.36-.46.54-.69v19.82c-1.74-1.5-3.36-3.28-5-4.91-.54-.51-1-1.26-1.69-1.26H76c-.53,0-7.92,0-7.92,0V236.37c0-.08,3.24-.06,3.61-.06-1.51-2.16-3-4.34-4.53-6.51L60.35,220c-.78-1.16-1.59-2.29-2.39-3.44-.2-.29-.54-1.07-.88-1.07H50.33c-.57,0-.4-.17-.4-.85s-.15-.62-.85-.62h-4.3a14.44,14.44,0,0,1-.05,1.47H40.57c-.41,0-2.85-.35-3.11,0-1.33,1.92-2.67,3.83-4,5.75L23,236.31l3.19,0c.45,0,.41-.05.41.46V258a8.21,8.21,0,0,1,0,2.27c-.17.21-1.52,0-1.76,0H22.43c-.5,0-.45-.06-.45.51v7.11c-1.2-.78-2.4-1.56-3.62-2.32-.8-.53-1.62-1.05-2.44-1.58-.11-.07-.69-.57-.8-.5l-.11.08V243.29H0v32.55H0V307H1.28v1H895.05V272.52c0-.3.91-.13,1.12-.13C894.76,270.18,893.32,268,891.9,265.75Z" transform="translate(0)"/></svg>