<svg width="1968" height="357" viewBox="0 0 1968 357" fill="none" xmlns="http://www.w3.org/2000/svg">
<path d="M977.008 251.858L975.692 249.631C975.472 249.136 972.839 249.631 972.4 249.631C970.644 249.631 971.083 249.136 971.083 246.662C971.083 245.673 968.889 246.168 968.23 246.168C966.694 246.168 968.23 248.394 967.572 249.631C967.133 250.126 964.28 249.631 963.622 249.631C962.744 249.631 962.525 250.126 962.525 248.889V232.065C962.525 230.334 961.647 226.128 963.622 226.623C962.305 223.159 959.891 220.19 958.135 216.974C956.38 213.758 954.405 210.541 952.649 207.325C950.674 210.789 948.699 214.005 946.724 217.469C944.968 220.437 942.774 223.406 941.457 226.623C943.213 226.128 942.554 229.591 942.554 231.076V242.704C942.554 243.693 942.993 248.642 942.554 249.384C942.115 249.879 939.921 249.384 939.701 249.384H936.409C936.19 249.384 936.629 246.168 936.19 246.168H932.898C932.679 246.168 933.118 249.384 932.679 249.384H928.948C927.631 249.384 926.095 253.095 925.437 254.579C924.12 256.806 922.803 259.033 921.706 261.259V194.46C921.706 193.47 920.828 193.965 920.17 193.965C918.414 193.965 918.634 194.213 918.634 192.233V181.1C918.634 179.121 917.317 179.863 916 179.863H910.953C910.075 179.863 910.514 174.915 910.514 173.925V142.258C910.514 142.01 907.222 142.258 906.783 142.258C905.686 142.258 906.125 139.041 906.125 137.804C906.125 137.557 902.614 137.804 902.175 137.804C899.98 137.804 900.638 138.299 900.638 141.021C900.638 143 900.2 142.505 898.663 142.505H893.177C892.08 142.505 892.519 140.773 892.519 139.536V133.104C892.519 132.856 889.007 133.104 888.788 133.104C888.349 133.104 888.568 128.898 888.568 128.156C888.568 126.671 888.788 126.671 887.691 126.671H873.426C873.426 126.671 873.426 131.372 873.426 131.619C873.426 134.093 872.548 133.104 870.793 133.104C869.037 133.104 869.476 133.351 869.476 135.33V142.258C869.476 142.752 867.062 142.505 866.623 142.505H861.356C860.917 142.505 861.137 138.547 861.137 138.052C861.137 137.804 857.187 138.052 856.748 138.052C854.992 138.052 855.651 139.041 855.651 141.268C855.651 142.258 855.87 142.752 854.992 142.752H852.359C851.481 142.752 851.481 142.505 851.481 143.742V180.111C851.481 180.605 845.775 180.358 844.897 180.358C843.142 180.358 843.58 180.853 843.58 183.079V189.264C843.58 190.007 844.019 193.965 843.58 194.46C843.361 194.955 840.508 193.965 840.508 194.707V205.346C824.927 189.264 800.348 189.512 784.986 206.335V106.631C784.986 104.652 782.133 105.642 780.817 105.642C780.597 105.642 781.036 103.662 780.817 103.415C780.597 103.168 779.061 103.415 778.842 103.415C778.403 103.415 777.305 103.662 776.867 103.415C776.647 103.415 777.086 102.425 776.867 102.425H740.437C739.779 102.425 739.779 103.415 739.779 103.415C739.34 103.415 736.048 103.168 736.048 103.663C736.048 104.157 736.268 105.889 735.829 105.889H733.195C732.756 105.889 731.879 105.394 731.879 106.384V173.678C731.001 171.699 730.123 169.72 729.245 167.493C728.806 166.751 727.489 162.545 726.831 162.545H719.808C719.15 162.545 718.492 162.792 718.492 162.05C718.492 160.566 718.711 160.318 717.614 160.318H714.761C714.322 160.318 714.542 161.555 714.542 162.05C714.542 163.04 714.103 162.545 713.225 162.545H689.963C689.963 162.545 689.963 160.566 689.963 160.318C689.963 160.071 688.866 160.071 688.646 160.071H686.013C685.793 160.071 686.013 161.803 686.013 162.297C686.013 162.545 682.94 162.545 682.721 162.545C681.843 162.545 679.21 162.05 678.332 162.545C677.893 162.792 677.454 164.277 677.234 164.771C674.162 171.699 671.09 178.626 668.017 185.553C668.895 185.553 669.992 184.811 669.992 186.296V216.974C669.992 217.963 664.067 217.469 663.189 217.469C662.97 217.469 662.092 217.716 662.092 217.221C662.092 216.974 662.092 214.995 662.092 214.995C661.434 214.995 658.581 214.5 658.142 214.995C657.923 215.242 658.361 217.221 658.142 217.221H651.339C650.681 217.221 650.9 210.294 650.9 208.562V49.2335C650.9 48.4913 651.12 38.3477 650.681 38.3477C649.583 38.3477 649.583 38.5951 649.583 37.1107V34.1418C649.583 33.647 648.705 32.9048 648.486 32.6574C643.658 26.7197 639.049 20.5346 634.221 14.5969C633.124 13.3598 630.271 14.1021 628.516 14.1021V6.18511H624.127V0H606.79V6.18511H602.401V13.8547C600.645 13.8547 597.792 12.865 596.695 14.3495C594.5 17.3183 592.086 20.0398 589.892 23.0086C587.478 26.2249 584.844 29.4411 582.43 32.41C581.772 33.1522 581.553 33.3996 581.553 34.3892V37.6055C581.553 38.5951 580.675 37.3581 580.455 37.8529C580.016 38.3477 580.455 41.564 580.455 42.5536V186.048C580.455 188.275 580.675 203.861 580.236 203.861H539.856C538.54 203.861 539.856 196.934 539.198 196.934C538.32 196.934 530.859 196.934 530.859 196.934V163.04C530.859 161.308 530.2 157.102 531.078 155.617C532.834 152.154 534.809 148.443 536.565 144.979C537.442 143.247 536.784 138.794 536.784 136.815V114.301C536.784 113.559 537.223 109.6 536.784 109.105C536.345 108.611 533.492 109.105 532.834 109.105C531.737 109.105 529.762 109.6 529.323 108.611C528.884 107.621 529.323 104.405 529.323 103.168C529.323 102.92 521.422 103.168 520.544 103.168C519.228 103.168 519.228 103.415 519.228 101.683V95.7456C519.228 95.4982 515.278 95.7456 514.839 95.7456C514.18 95.7456 514.619 91.7871 514.619 91.0449C514.619 88.3234 514.4 88.8182 512.205 88.8182C510.23 88.8182 510.23 88.5708 510.23 91.0449C510.23 91.5397 510.45 95.7456 510.23 95.7456H483.676C483.457 95.7456 483.457 92.0345 483.457 91.7871C483.457 88.8182 483.896 89.0656 481.482 89.0656C479.726 89.0656 479.068 88.3234 479.068 90.5501C479.068 91.2923 479.287 95.7456 478.848 95.7456C477.97 95.7456 475.117 95.2508 474.459 95.7456C474.02 96.2404 474.459 100.941 474.459 101.683C474.459 103.168 474.679 103.168 473.581 103.168H467.876C467.437 103.168 465.023 102.673 464.584 103.168C463.925 104.157 465.023 107.621 464.584 108.611C464.145 109.6 462.609 109.105 461.511 109.105C460.853 109.105 457.561 108.611 457.122 109.105C456.683 109.6 457.122 113.064 457.122 113.559V142.752C457.122 143.247 456.903 144.237 457.342 144.732C459.097 148.195 461.072 151.906 462.828 155.37C463.267 156.36 463.048 158.091 463.048 159.329V220.437C463.048 220.932 453.831 220.685 453.172 220.685H410.379C409.062 220.685 407.745 221.427 407.745 219.448C407.745 217.963 404.892 218.706 403.795 218.706C403.576 218.706 402.478 218.458 402.259 218.706C402.039 218.953 402.478 220.685 402.259 220.685H397.431C396.553 220.685 394.578 220.19 393.7 220.685C392.822 221.18 391.725 223.901 391.067 225.138C390.189 226.375 389.53 227.612 388.653 229.097V101.931C388.653 99.704 387.994 100.694 386.239 100.694C384.483 100.694 386.678 97.9722 384.922 97.9722C384.483 97.9722 383.166 98.2196 382.727 97.9722C382.508 97.7248 382.947 96.7352 382.727 96.7352H356.393C355.954 96.7352 356.612 97.9722 356.174 97.9722H353.76C352.662 97.9722 354.198 100.694 352.662 100.694C350.468 100.694 350.248 99.9514 350.248 102.673V187.533C350.248 189.264 346.956 188.77 346.956 187.533C346.956 186.543 347.395 182.832 346.518 182.832H341.47C339.495 182.832 339.715 182.585 339.715 185.306C339.715 187.533 340.153 188.275 338.617 188.275C338.178 188.275 334.228 188.275 334.228 188.275V51.955C334.228 51.2127 332.253 51.7075 331.595 51.7075C329.839 51.7075 330.497 50.2231 330.497 47.9965C330.497 47.5017 327.206 48.4913 327.206 47.5017C327.206 46.0173 327.425 46.2647 326.328 46.2647H296.482C296.263 46.2647 295.165 46.0172 294.946 46.2647C294.507 46.7595 295.385 47.9965 294.726 47.9965H292.312C290.776 47.9965 292.093 51.7075 291.654 51.7075C291.215 51.7075 288.143 51.7075 288.143 51.7075V185.801C288.143 189.017 287.923 188.275 285.29 188.275H272.562C271.684 188.275 270.367 188.77 270.367 187.533C270.367 186.543 270.806 182.832 269.928 182.832H264.881C262.906 182.832 263.125 182.585 263.125 185.306C263.125 186.79 263.564 188.275 262.247 188.275H256.542C256.103 188.275 254.128 187.78 253.689 188.522C251.714 191.244 249.738 193.965 247.763 196.687V178.131C248.202 178.873 248.861 179.616 249.519 180.605C249.958 179.616 252.152 177.389 251.494 176.399C250.616 175.162 249.738 173.678 248.641 172.441C244.91 166.998 241.18 161.555 237.23 156.112C231.304 147.453 225.16 138.794 219.234 130.135C213.309 138.794 207.164 147.453 201.239 156.112C197.508 161.555 193.558 166.998 189.828 172.441C188.95 173.678 187.852 175.162 186.975 176.399C186.316 177.389 188.511 179.368 189.169 180.111C189.608 179.616 190.047 178.873 190.266 178.379V227.365C186.536 223.654 182.805 219.2 179.294 215.242C178.196 214.005 177.099 212.026 175.563 212.026H166.785C165.688 212.026 149.448 212.026 149.448 212.026V179.121C149.448 178.873 156.471 178.874 157.348 178.874C154.057 173.431 150.765 168.235 147.473 162.792C142.426 154.628 137.598 146.711 132.55 138.547C130.794 135.578 129.039 132.856 127.283 130.135C126.844 129.393 126.186 127.413 125.308 127.413H110.385C109.069 127.413 109.507 126.919 109.507 125.187C109.507 123.207 109.069 123.702 107.752 123.702H98.3153C98.0959 123.702 98.5348 127.413 98.3153 127.413H89.0982C88.2204 127.413 82.7341 126.424 82.2952 127.413C79.4423 132.114 76.3699 136.815 73.517 141.515C65.8361 153.886 58.1553 166.256 50.4744 178.626C52.8884 178.626 55.0829 178.626 57.4969 178.626C58.3747 178.626 58.3747 178.379 58.3747 179.863V232.313C58.3747 233.055 58.8136 237.261 58.3747 238.003C57.9358 238.498 55.0829 238.003 54.4245 238.003H49.1576C48.0604 238.003 48.2798 237.756 48.2798 239.24V256.806C45.6464 254.827 43.0129 252.847 40.3795 251.116C38.6239 249.879 36.8682 248.642 35.1126 247.157C34.8932 246.91 33.5764 245.673 33.357 245.92C33.357 245.92 33.1375 245.92 33.1375 246.168V196.439H0V356.757H981V306.782V256.806C977.708 250.868 980.081 257.301 977.008 251.858Z" fill="#2E2A68"/>
<path d="M1958.01 251.858L1956.69 249.631C1956.47 249.136 1953.84 249.631 1953.4 249.631C1951.64 249.631 1952.08 249.136 1952.08 246.662C1952.08 245.673 1949.89 246.167 1949.23 246.167C1947.69 246.167 1949.23 248.394 1948.57 249.631C1948.13 250.126 1945.28 249.631 1944.62 249.631C1943.74 249.631 1943.52 250.126 1943.52 248.889V232.065C1943.52 230.334 1942.65 226.128 1944.62 226.623C1943.31 223.159 1940.89 220.19 1939.14 216.974C1937.38 213.757 1935.4 210.541 1933.65 207.325C1931.67 210.789 1929.7 214.005 1927.72 217.469C1925.97 220.437 1923.77 223.406 1922.46 226.623C1924.21 226.128 1923.55 229.591 1923.55 231.076V242.704C1923.55 243.693 1923.99 248.642 1923.55 249.384C1923.12 249.879 1920.92 249.384 1920.7 249.384H1917.41C1917.19 249.384 1917.63 246.167 1917.19 246.167H1913.9C1913.68 246.167 1914.12 249.384 1913.68 249.384H1909.95C1908.63 249.384 1907.1 253.095 1906.44 254.579C1905.12 256.806 1903.8 259.033 1902.71 261.259V194.46C1902.71 193.47 1901.83 193.965 1901.17 193.965C1899.41 193.965 1899.63 194.213 1899.63 192.233V181.1C1899.63 179.121 1898.32 179.863 1897 179.863H1891.95C1891.08 179.863 1891.51 174.915 1891.51 173.925V142.258C1891.51 142.01 1888.22 142.258 1887.78 142.258C1886.69 142.258 1887.12 139.041 1887.12 137.804C1887.12 137.557 1883.61 137.804 1883.17 137.804C1880.98 137.804 1881.64 138.299 1881.64 141.021C1881.64 143 1881.2 142.505 1879.66 142.505H1874.18C1873.08 142.505 1873.52 140.773 1873.52 139.536V133.104C1873.52 132.856 1870.01 133.104 1869.79 133.104C1869.35 133.104 1869.57 128.898 1869.57 128.156C1869.57 126.671 1869.79 126.671 1868.69 126.671H1854.43C1854.43 126.671 1854.43 131.372 1854.43 131.619C1854.43 134.093 1853.55 133.104 1851.79 133.104C1850.04 133.104 1850.48 133.351 1850.48 135.33V142.258C1850.48 142.752 1848.06 142.505 1847.62 142.505H1842.36C1841.92 142.505 1842.14 138.547 1842.14 138.052C1842.14 137.804 1838.19 138.052 1837.75 138.052C1835.99 138.052 1836.65 139.041 1836.65 141.268C1836.65 142.258 1836.87 142.752 1835.99 142.752H1833.36C1832.48 142.752 1832.48 142.505 1832.48 143.742V180.11C1832.48 180.605 1826.78 180.358 1825.9 180.358C1824.14 180.358 1824.58 180.853 1824.58 183.079V189.264C1824.58 190.007 1825.02 193.965 1824.58 194.46C1824.36 194.955 1821.51 193.965 1821.51 194.707V205.346C1805.93 189.264 1781.35 189.512 1765.99 206.335V106.631C1765.99 104.652 1763.13 105.642 1761.82 105.642C1761.6 105.642 1762.04 103.662 1761.82 103.415C1761.6 103.168 1760.06 103.415 1759.84 103.415C1759.4 103.415 1758.31 103.662 1757.87 103.415C1757.65 103.415 1758.09 102.425 1757.87 102.425H1721.44C1720.78 102.425 1720.78 103.415 1720.78 103.415C1720.34 103.415 1717.05 103.168 1717.05 103.662C1717.05 104.157 1717.27 105.889 1716.83 105.889H1714.2C1713.76 105.889 1712.88 105.394 1712.88 106.384V173.678C1712 171.699 1711.12 169.719 1710.24 167.493C1709.81 166.751 1708.49 162.545 1707.83 162.545H1700.81C1700.15 162.545 1699.49 162.792 1699.49 162.05C1699.49 160.566 1699.71 160.318 1698.61 160.318H1695.76C1695.32 160.318 1695.54 161.555 1695.54 162.05C1695.54 163.04 1695.1 162.545 1694.22 162.545H1670.96C1670.96 162.545 1670.96 160.566 1670.96 160.318C1670.96 160.071 1669.87 160.071 1669.65 160.071H1667.01C1666.79 160.071 1667.01 161.803 1667.01 162.297C1667.01 162.545 1663.94 162.545 1663.72 162.545C1662.84 162.545 1660.21 162.05 1659.33 162.545C1658.89 162.792 1658.45 164.277 1658.23 164.771C1655.16 171.699 1652.09 178.626 1649.02 185.553C1649.9 185.553 1650.99 184.811 1650.99 186.296V216.974C1650.99 217.963 1645.07 217.469 1644.19 217.469C1643.97 217.469 1643.09 217.716 1643.09 217.221C1643.09 216.974 1643.09 214.995 1643.09 214.995C1642.43 214.995 1639.58 214.5 1639.14 214.995C1638.92 215.242 1639.36 217.221 1639.14 217.221H1632.34C1631.68 217.221 1631.9 210.294 1631.9 208.562V49.2335C1631.9 48.4913 1632.12 38.3477 1631.68 38.3477C1630.58 38.3477 1630.58 38.5951 1630.58 37.1107V34.1418C1630.58 33.647 1629.71 32.9048 1629.49 32.6574C1624.66 26.7197 1620.05 20.5346 1615.22 14.5969C1614.12 13.3598 1611.27 14.1021 1609.52 14.1021V6.18511H1605.13V0H1587.79V6.18511H1583.4V13.8547C1581.65 13.8547 1578.79 12.865 1577.69 14.3495C1575.5 17.3183 1573.09 20.0398 1570.89 23.0086C1568.48 26.2249 1565.84 29.4411 1563.43 32.41C1562.77 33.1522 1562.55 33.3996 1562.55 34.3892V37.6055C1562.55 38.5951 1561.67 37.3581 1561.46 37.8529C1561.02 38.3477 1561.46 41.564 1561.46 42.5536V186.048C1561.46 188.275 1561.67 203.861 1561.24 203.861H1520.86C1519.54 203.861 1520.86 196.934 1520.2 196.934C1519.32 196.934 1511.86 196.934 1511.86 196.934V163.04C1511.86 161.308 1511.2 157.102 1512.08 155.617C1513.83 152.154 1515.81 148.443 1517.56 144.979C1518.44 143.247 1517.78 138.794 1517.78 136.815V114.301C1517.78 113.559 1518.22 109.6 1517.78 109.105C1517.35 108.611 1514.49 109.105 1513.83 109.105C1512.74 109.105 1510.76 109.6 1510.32 108.611C1509.88 107.621 1510.32 104.405 1510.32 103.168C1510.32 102.92 1502.42 103.168 1501.54 103.168C1500.23 103.168 1500.23 103.415 1500.23 101.683V95.7456C1500.23 95.4981 1496.28 95.7456 1495.84 95.7456C1495.18 95.7456 1495.62 91.7871 1495.62 91.0449C1495.62 88.3234 1495.4 88.8182 1493.21 88.8182C1491.23 88.8182 1491.23 88.5708 1491.23 91.0449C1491.23 91.5397 1491.45 95.7456 1491.23 95.7456H1464.68C1464.46 95.7456 1464.46 92.0345 1464.46 91.7871C1464.46 88.8182 1464.9 89.0656 1462.48 89.0656C1460.73 89.0656 1460.07 88.3234 1460.07 90.5501C1460.07 91.2923 1460.29 95.7456 1459.85 95.7456C1458.97 95.7456 1456.12 95.2507 1455.46 95.7456C1455.02 96.2404 1455.46 100.941 1455.46 101.683C1455.46 103.168 1455.68 103.168 1454.58 103.168H1448.88C1448.44 103.168 1446.02 102.673 1445.58 103.168C1444.93 104.157 1446.02 107.621 1445.58 108.611C1445.14 109.6 1443.61 109.105 1442.51 109.105C1441.85 109.105 1438.56 108.611 1438.12 109.105C1437.68 109.6 1438.12 113.064 1438.12 113.559V142.752C1438.12 143.247 1437.9 144.237 1438.34 144.732C1440.1 148.195 1442.07 151.906 1443.83 155.37C1444.27 156.36 1444.05 158.091 1444.05 159.329V220.437C1444.05 220.932 1434.83 220.685 1434.17 220.685H1391.38C1390.06 220.685 1388.75 221.427 1388.75 219.448C1388.75 217.963 1385.89 218.706 1384.8 218.706C1384.58 218.706 1383.48 218.458 1383.26 218.706C1383.04 218.953 1383.48 220.685 1383.26 220.685H1378.43C1377.55 220.685 1375.58 220.19 1374.7 220.685C1373.82 221.18 1372.73 223.901 1372.07 225.138C1371.19 226.375 1370.53 227.612 1369.65 229.097V101.931C1369.65 99.704 1368.99 100.694 1367.24 100.694C1365.48 100.694 1367.68 97.9722 1365.92 97.9722C1365.48 97.9722 1364.17 98.2196 1363.73 97.9722C1363.51 97.7248 1363.95 96.7352 1363.73 96.7352H1337.39C1336.95 96.7352 1337.61 97.9722 1337.17 97.9722H1334.76C1333.66 97.9722 1335.2 100.694 1333.66 100.694C1331.47 100.694 1331.25 99.9514 1331.25 102.673V187.533C1331.25 189.264 1327.96 188.77 1327.96 187.533C1327.96 186.543 1328.4 182.832 1327.52 182.832H1322.47C1320.5 182.832 1320.71 182.585 1320.71 185.306C1320.71 187.533 1321.15 188.275 1319.62 188.275C1319.18 188.275 1315.23 188.275 1315.23 188.275V51.955C1315.23 51.2127 1313.25 51.7075 1312.59 51.7075C1310.84 51.7075 1311.5 50.2231 1311.5 47.9965C1311.5 47.5017 1308.21 48.4913 1308.21 47.5017C1308.21 46.0172 1308.43 46.2646 1307.33 46.2646H1277.48C1277.26 46.2646 1276.17 46.0172 1275.95 46.2646C1275.51 46.7595 1276.38 47.9965 1275.73 47.9965H1273.31C1271.78 47.9965 1273.09 51.7075 1272.65 51.7075C1272.22 51.7075 1269.14 51.7075 1269.14 51.7075V185.801C1269.14 189.017 1268.92 188.275 1266.29 188.275H1253.56C1252.68 188.275 1251.37 188.77 1251.37 187.533C1251.37 186.543 1251.81 182.832 1250.93 182.832H1245.88C1243.91 182.832 1244.13 182.585 1244.13 185.306C1244.13 186.79 1244.56 188.275 1243.25 188.275H1237.54C1237.1 188.275 1235.13 187.78 1234.69 188.522C1232.71 191.244 1230.74 193.965 1228.76 196.687V178.131C1229.2 178.873 1229.86 179.616 1230.52 180.605C1230.96 179.616 1233.15 177.389 1232.49 176.399C1231.62 175.162 1230.74 173.678 1229.64 172.441C1225.91 166.998 1222.18 161.555 1218.23 156.112C1212.3 147.453 1206.16 138.794 1200.23 130.135C1194.31 138.794 1188.16 147.453 1182.24 156.112C1178.51 161.555 1174.56 166.998 1170.83 172.441C1169.95 173.678 1168.85 175.162 1167.97 176.399C1167.32 177.389 1169.51 179.368 1170.17 180.11C1170.61 179.616 1171.05 178.873 1171.27 178.379V227.365C1167.54 223.654 1163.8 219.2 1160.29 215.242C1159.2 214.005 1158.1 212.026 1156.56 212.026H1147.78C1146.69 212.026 1130.45 212.026 1130.45 212.026V179.121C1130.45 178.873 1137.47 178.873 1138.35 178.873C1135.06 173.431 1131.76 168.235 1128.47 162.792C1123.43 154.628 1118.6 146.711 1113.55 138.547C1111.79 135.578 1110.04 132.856 1108.28 130.135C1107.84 129.393 1107.19 127.413 1106.31 127.413H1091.39C1090.07 127.413 1090.51 126.919 1090.51 125.187C1090.51 123.207 1090.07 123.702 1088.75 123.702H1079.32C1079.1 123.702 1079.53 127.413 1079.32 127.413H1070.1C1069.22 127.413 1063.73 126.424 1063.3 127.413C1060.44 132.114 1057.37 136.815 1054.52 141.515C1046.84 153.886 1039.16 166.256 1031.47 178.626C1033.89 178.626 1036.08 178.626 1038.5 178.626C1039.37 178.626 1039.37 178.379 1039.37 179.863V232.313C1039.37 233.055 1039.81 237.261 1039.37 238.003C1038.94 238.498 1036.08 238.003 1035.42 238.003H1030.16C1029.06 238.003 1029.28 237.756 1029.28 239.24V256.806C1026.65 254.827 1024.01 252.847 1021.38 251.116C1019.62 249.879 1017.87 248.642 1016.11 247.157C1015.89 246.91 1014.58 245.673 1014.36 245.92C1014.36 245.92 1014.14 245.92 1014.14 246.167V196.439H981V356.757H1965.03V268.929C1965.03 268.186 1967.01 268.681 1967.44 268.681C1964.15 262.744 1961.08 257.301 1958.01 251.858Z" fill="#2E2A68"/>
</svg>
