<svg width="425" height="761" viewBox="0 0 425 761" fill="none" xmlns="http://www.w3.org/2000/svg">
<path d="M0 0H425V761H0V0Z" fill="url(#paint0_linear)"/>
<path d="M211.953 738.065L211.667 737.578C211.62 737.47 211.048 737.578 210.953 737.578C210.572 737.578 210.667 737.47 210.667 736.929C210.667 736.713 210.191 736.821 210.049 736.821C209.715 736.821 210.049 737.308 209.906 737.578C209.81 737.687 209.192 737.578 209.049 737.578C208.858 737.578 208.811 737.687 208.811 737.416V733.738C208.811 733.359 208.62 732.44 209.049 732.548C208.763 731.791 208.239 731.141 207.859 730.438C207.478 729.735 207.049 729.032 206.668 728.329C206.24 729.086 205.811 729.789 205.383 730.546C205.002 731.196 204.526 731.845 204.24 732.548C204.621 732.44 204.478 733.197 204.478 733.522V736.064C204.478 736.28 204.574 737.362 204.478 737.524C204.383 737.632 203.907 737.524 203.859 737.524H203.145C203.098 737.524 203.193 736.821 203.098 736.821H202.384C202.336 736.821 202.431 737.524 202.336 737.524H201.527C201.241 737.524 200.908 738.336 200.765 738.66C200.479 739.147 200.194 739.634 199.956 740.121V725.516C199.956 725.3 199.765 725.408 199.622 725.408C199.241 725.408 199.289 725.462 199.289 725.029V722.595C199.289 722.162 199.003 722.325 198.718 722.325H197.623C197.432 722.325 197.527 721.243 197.527 721.026V714.103C197.527 714.049 196.813 714.103 196.718 714.103C196.48 714.103 196.575 713.399 196.575 713.129C196.575 713.075 195.814 713.129 195.718 713.129C195.242 713.129 195.385 713.237 195.385 713.832C195.385 714.265 195.29 714.157 194.957 714.157H193.766C193.528 714.157 193.624 713.778 193.624 713.508V712.101C193.624 712.047 192.862 712.101 192.814 712.101C192.719 712.101 192.767 711.182 192.767 711.019C192.767 710.695 192.814 710.695 192.576 710.695H189.482C189.482 710.695 189.482 711.723 189.482 711.777C189.482 712.318 189.291 712.101 188.91 712.101C188.53 712.101 188.625 712.155 188.625 712.588V714.103C188.625 714.211 188.101 714.157 188.006 714.157H186.863C186.768 714.157 186.816 713.291 186.816 713.183C186.816 713.129 185.959 713.183 185.863 713.183C185.483 713.183 185.625 713.399 185.625 713.886C185.625 714.103 185.673 714.211 185.483 714.211H184.911C184.721 714.211 184.721 714.157 184.721 714.427V722.379C184.721 722.487 183.483 722.433 183.293 722.433C182.912 722.433 183.007 722.541 183.007 723.028V724.38C183.007 724.542 183.102 725.408 183.007 725.516C182.959 725.624 182.34 725.408 182.34 725.57V727.896C178.96 724.38 173.628 724.434 170.295 728.112V706.313C170.295 705.881 169.677 706.097 169.391 706.097C169.343 706.097 169.438 705.664 169.391 705.61C169.343 705.556 169.01 705.61 168.962 705.61C168.867 705.61 168.629 705.664 168.534 705.61C168.486 705.61 168.582 705.394 168.534 705.394H160.631C160.488 705.394 160.488 705.61 160.488 705.61C160.393 705.61 159.679 705.556 159.679 705.664C159.679 705.773 159.726 706.151 159.631 706.151H159.06C158.965 706.151 158.774 706.043 158.774 706.259V720.972C158.584 720.54 158.393 720.107 158.203 719.62C158.108 719.458 157.822 718.538 157.679 718.538H156.156C156.013 718.538 155.87 718.592 155.87 718.43C155.87 718.105 155.918 718.051 155.68 718.051H155.061C154.966 718.051 155.013 718.322 155.013 718.43C155.013 718.646 154.918 718.538 154.727 718.538H149.681C149.681 718.538 149.681 718.105 149.681 718.051C149.681 717.997 149.443 717.997 149.395 717.997H148.824C148.776 717.997 148.824 718.376 148.824 718.484C148.824 718.538 148.158 718.538 148.11 718.538C147.919 718.538 147.348 718.43 147.158 718.538C147.063 718.592 146.967 718.917 146.92 719.025C146.253 720.54 145.587 722.054 144.92 723.569C145.111 723.569 145.349 723.406 145.349 723.731V730.438C145.349 730.655 144.063 730.546 143.873 730.546C143.825 730.546 143.635 730.601 143.635 730.492C143.635 730.438 143.635 730.006 143.635 730.006C143.492 730.006 142.873 729.897 142.778 730.006C142.73 730.06 142.825 730.492 142.778 730.492H141.302C141.159 730.492 141.207 728.978 141.207 728.599V693.764C141.207 693.602 141.254 691.384 141.159 691.384C140.921 691.384 140.921 691.438 140.921 691.114V690.465C140.921 690.356 140.731 690.194 140.683 690.14C139.636 688.842 138.636 687.49 137.588 686.191C137.35 685.921 136.731 686.083 136.351 686.083V684.352H135.398V683H131.637V684.352H130.685V686.029C130.304 686.029 129.685 685.813 129.447 686.137C128.971 686.786 128.448 687.381 127.972 688.031C127.448 688.734 126.877 689.437 126.353 690.086C126.21 690.248 126.162 690.302 126.162 690.519V691.222C126.162 691.438 125.972 691.168 125.924 691.276C125.829 691.384 125.924 692.087 125.924 692.304V723.677C125.924 724.164 125.972 727.571 125.877 727.571H117.117C116.831 727.571 117.117 726.057 116.974 726.057C116.784 726.057 115.165 726.057 115.165 726.057V718.646C115.165 718.268 115.022 717.348 115.212 717.024C115.593 716.266 116.022 715.455 116.403 714.698C116.593 714.319 116.45 713.345 116.45 712.913V707.99C116.45 707.828 116.546 706.963 116.45 706.854C116.355 706.746 115.736 706.854 115.593 706.854C115.355 706.854 114.927 706.963 114.832 706.746C114.736 706.53 114.832 705.827 114.832 705.556C114.832 705.502 113.118 705.556 112.927 705.556C112.642 705.556 112.642 705.61 112.642 705.232V703.933C112.642 703.879 111.785 703.933 111.689 703.933C111.547 703.933 111.642 703.068 111.642 702.906C111.642 702.311 111.594 702.419 111.118 702.419C110.69 702.419 110.69 702.365 110.69 702.906C110.69 703.014 110.737 703.933 110.69 703.933H104.929C104.881 703.933 104.881 703.122 104.881 703.068C104.881 702.419 104.977 702.473 104.453 702.473C104.072 702.473 103.929 702.311 103.929 702.798C103.929 702.96 103.977 703.933 103.882 703.933C103.691 703.933 103.072 703.825 102.929 703.933C102.834 704.042 102.929 705.069 102.929 705.232C102.929 705.556 102.977 705.556 102.739 705.556H101.501C101.406 705.556 100.882 705.448 100.787 705.556C100.644 705.773 100.882 706.53 100.787 706.746C100.692 706.963 100.359 706.854 100.121 706.854C99.9778 706.854 99.2636 706.746 99.1684 706.854C99.0732 706.963 99.1684 707.72 99.1684 707.828V714.211C99.1684 714.319 99.1208 714.535 99.216 714.644C99.5969 715.401 100.025 716.212 100.406 716.969C100.501 717.186 100.454 717.564 100.454 717.835V731.196C100.454 731.304 98.4543 731.25 98.3115 731.25H89.0278C88.7422 731.25 88.4565 731.412 88.4565 730.979C88.4565 730.655 87.8376 730.817 87.5996 730.817C87.552 730.817 87.3139 730.763 87.2663 730.817C87.2187 730.871 87.3139 731.25 87.2663 731.25H86.2189C86.0285 731.25 85.6 731.141 85.4096 731.25C85.2191 731.358 84.9811 731.953 84.8383 732.223C84.6478 732.494 84.505 732.764 84.3146 733.089V705.286C84.3146 704.799 84.1718 705.015 83.7909 705.015C83.41 705.015 83.8861 704.42 83.5052 704.42C83.41 704.42 83.1244 704.474 83.0291 704.42C82.9815 704.366 83.0768 704.15 83.0291 704.15H77.3161C77.2209 704.15 77.3637 704.42 77.2685 704.42H76.7448C76.5068 704.42 76.8401 705.015 76.5068 705.015C76.0307 705.015 75.9831 704.853 75.9831 705.448V724.001C75.9831 724.38 75.269 724.272 75.269 724.001C75.269 723.785 75.3642 722.974 75.1738 722.974H74.0788C73.6503 722.974 73.6979 722.92 73.6979 723.515C73.6979 724.001 73.7931 724.164 73.4598 724.164C73.3646 724.164 72.5077 724.164 72.5077 724.164V694.359C72.5077 694.197 72.0792 694.305 71.9364 694.305C71.5555 694.305 71.6983 693.981 71.6983 693.494C71.6983 693.386 70.9842 693.602 70.9842 693.386C70.9842 693.061 71.0318 693.115 70.7938 693.115H64.319C64.2714 693.115 64.0334 693.061 63.9858 693.115C63.8905 693.223 64.081 693.494 63.9382 693.494H63.4145C63.0812 693.494 63.3669 694.305 63.2716 694.305C63.1764 694.305 62.5099 694.305 62.5099 694.305V723.623C62.5099 724.326 62.4623 724.164 61.891 724.164H59.1297C58.9393 724.164 58.6536 724.272 58.6536 724.001C58.6536 723.785 58.7488 722.974 58.5584 722.974H57.4634C57.0349 722.974 57.0825 722.92 57.0825 723.515C57.0825 723.839 57.1778 724.164 56.8921 724.164H55.6543C55.5591 724.164 55.1306 724.055 55.0354 724.218C54.6069 724.813 54.1784 725.408 53.75 726.003V721.946C53.8452 722.108 53.988 722.27 54.1308 722.487C54.226 722.27 54.7021 721.784 54.5593 721.567C54.3689 721.297 54.1784 720.972 53.9404 720.702C53.131 719.512 52.3217 718.322 51.4647 717.132C50.1793 715.239 48.8463 713.345 47.5608 711.452C46.2754 713.345 44.9424 715.239 43.6569 717.132C42.8476 718.322 41.9907 719.512 41.1813 720.702C40.9909 720.972 40.7528 721.297 40.5624 721.567C40.4196 721.784 40.8957 722.216 41.0385 722.379C41.1337 722.27 41.2289 722.108 41.2765 722V732.71C40.4672 731.899 39.6578 730.925 38.8961 730.06C38.6581 729.789 38.42 729.356 38.0868 729.356H36.1824C35.9444 729.356 32.4214 729.356 32.4214 729.356V722.162C32.4214 722.108 33.9448 722.108 34.1353 722.108C33.4211 720.918 32.707 719.782 31.9929 718.592C30.8979 716.807 29.8505 715.076 28.7555 713.291C28.3746 712.642 27.9938 712.047 27.6129 711.452C27.5177 711.29 27.3749 710.857 27.1844 710.857H23.9471C23.6614 710.857 23.7566 710.749 23.7566 710.37C23.7566 709.938 23.6614 710.046 23.3758 710.046H21.3286C21.281 710.046 21.3762 710.857 21.3286 710.857H19.329C19.1386 710.857 17.9484 710.641 17.8532 710.857C17.2343 711.885 16.5677 712.913 15.9488 713.94C14.2825 716.645 12.6162 719.35 10.9499 722.054C11.4736 722.054 11.9497 722.054 12.4734 722.054C12.6638 722.054 12.6638 722 12.6638 722.325V733.792C12.6638 733.954 12.7591 734.874 12.6638 735.036C12.5686 735.144 11.9497 735.036 11.8069 735.036H10.6643C10.4263 735.036 10.4739 734.982 10.4739 735.307V739.147C9.90256 738.714 9.33126 738.282 8.75996 737.903C8.37909 737.632 7.99822 737.362 7.61735 737.037C7.56974 736.983 7.28409 736.713 7.23649 736.767C7.23649 736.767 7.18888 736.767 7.18888 736.821V725.949H0V743.583V760.459H0.61891V761H213.476V741.798C213.476 741.635 213.905 741.743 214 741.743C213.286 740.445 212.619 739.255 211.953 738.065Z" fill="#2E2A68"/>
<path d="M422.953 738.065L422.667 737.578C422.62 737.47 422.048 737.578 421.953 737.578C421.572 737.578 421.667 737.47 421.667 736.929C421.667 736.713 421.191 736.821 421.049 736.821C420.715 736.821 421.049 737.308 420.906 737.578C420.81 737.687 420.192 737.578 420.049 737.578C419.858 737.578 419.811 737.687 419.811 737.416V733.738C419.811 733.359 419.62 732.44 420.049 732.548C419.763 731.791 419.239 731.141 418.859 730.438C418.478 729.735 418.049 729.032 417.668 728.329C417.24 729.086 416.811 729.789 416.383 730.546C416.002 731.196 415.526 731.845 415.24 732.548C415.621 732.44 415.478 733.197 415.478 733.522V736.064C415.478 736.28 415.574 737.362 415.478 737.524C415.383 737.632 414.907 737.524 414.859 737.524H414.145C414.098 737.524 414.193 736.821 414.098 736.821H413.384C413.336 736.821 413.431 737.524 413.336 737.524H412.527C412.241 737.524 411.908 738.336 411.765 738.66C411.479 739.147 411.194 739.634 410.956 740.121V725.516C410.956 725.3 410.765 725.408 410.622 725.408C410.241 725.408 410.289 725.462 410.289 725.029V722.595C410.289 722.162 410.003 722.325 409.718 722.325H408.623C408.432 722.325 408.527 721.243 408.527 721.026V714.103C408.527 714.049 407.813 714.103 407.718 714.103C407.48 714.103 407.575 713.399 407.575 713.129C407.575 713.075 406.814 713.129 406.718 713.129C406.242 713.129 406.385 713.237 406.385 713.832C406.385 714.265 406.29 714.157 405.957 714.157H404.766C404.528 714.157 404.624 713.778 404.624 713.508V712.101C404.624 712.047 403.862 712.101 403.814 712.101C403.719 712.101 403.767 711.182 403.767 711.019C403.767 710.695 403.814 710.695 403.576 710.695H400.482C400.482 710.695 400.482 711.723 400.482 711.777C400.482 712.318 400.291 712.101 399.91 712.101C399.529 712.101 399.625 712.155 399.625 712.588V714.103C399.625 714.211 399.101 714.157 399.006 714.157H397.863C397.768 714.157 397.816 713.291 397.816 713.183C397.816 713.129 396.959 713.183 396.863 713.183C396.483 713.183 396.625 713.399 396.625 713.886C396.625 714.103 396.673 714.211 396.483 714.211H395.911C395.721 714.211 395.721 714.157 395.721 714.427V722.379C395.721 722.487 394.483 722.433 394.293 722.433C393.912 722.433 394.007 722.541 394.007 723.028V724.38C394.007 724.542 394.102 725.408 394.007 725.516C393.959 725.624 393.34 725.408 393.34 725.57V727.896C389.96 724.38 384.628 724.434 381.295 728.112V706.313C381.295 705.881 380.677 706.097 380.391 706.097C380.343 706.097 380.438 705.664 380.391 705.61C380.343 705.556 380.01 705.61 379.962 705.61C379.867 705.61 379.629 705.664 379.534 705.61C379.486 705.61 379.582 705.394 379.534 705.394H371.631C371.488 705.394 371.488 705.61 371.488 705.61C371.393 705.61 370.679 705.556 370.679 705.664C370.679 705.773 370.726 706.151 370.631 706.151H370.06C369.965 706.151 369.774 706.043 369.774 706.259V720.972C369.584 720.54 369.393 720.107 369.203 719.62C369.108 719.458 368.822 718.538 368.679 718.538H367.156C367.013 718.538 366.87 718.592 366.87 718.43C366.87 718.105 366.918 718.051 366.68 718.051H366.061C365.966 718.051 366.013 718.322 366.013 718.43C366.013 718.646 365.918 718.538 365.727 718.538H360.681C360.681 718.538 360.681 718.105 360.681 718.051C360.681 717.997 360.443 717.997 360.395 717.997H359.824C359.776 717.997 359.824 718.376 359.824 718.484C359.824 718.538 359.158 718.538 359.11 718.538C358.919 718.538 358.348 718.43 358.158 718.538C358.063 718.592 357.967 718.917 357.92 719.025C357.253 720.54 356.587 722.054 355.92 723.569C356.111 723.569 356.349 723.406 356.349 723.731V730.438C356.349 730.655 355.063 730.546 354.873 730.546C354.825 730.546 354.635 730.601 354.635 730.492C354.635 730.438 354.635 730.006 354.635 730.006C354.492 730.006 353.873 729.897 353.778 730.006C353.73 730.06 353.825 730.492 353.778 730.492H352.302C352.159 730.492 352.207 728.978 352.207 728.599V693.764C352.207 693.602 352.254 691.384 352.159 691.384C351.921 691.384 351.921 691.438 351.921 691.114V690.465C351.921 690.356 351.731 690.194 351.683 690.14C350.636 688.842 349.636 687.49 348.588 686.191C348.35 685.921 347.731 686.083 347.351 686.083V684.352H346.398V683H342.637V684.352H341.685V686.029C341.304 686.029 340.685 685.813 340.447 686.137C339.971 686.786 339.448 687.381 338.972 688.031C338.448 688.734 337.877 689.437 337.353 690.086C337.21 690.248 337.162 690.302 337.162 690.519V691.222C337.162 691.438 336.972 691.168 336.924 691.276C336.829 691.384 336.924 692.087 336.924 692.304V723.677C336.924 724.164 336.972 727.571 336.877 727.571H328.117C327.831 727.571 328.117 726.057 327.974 726.057C327.784 726.057 326.165 726.057 326.165 726.057V718.646C326.165 718.268 326.022 717.348 326.212 717.024C326.593 716.266 327.022 715.455 327.403 714.698C327.593 714.319 327.45 713.345 327.45 712.913V707.99C327.45 707.828 327.546 706.963 327.45 706.854C327.355 706.746 326.736 706.854 326.593 706.854C326.355 706.854 325.927 706.963 325.832 706.746C325.736 706.53 325.832 705.827 325.832 705.556C325.832 705.502 324.118 705.556 323.927 705.556C323.642 705.556 323.642 705.61 323.642 705.232V703.933C323.642 703.879 322.785 703.933 322.689 703.933C322.547 703.933 322.642 703.068 322.642 702.906C322.642 702.311 322.594 702.419 322.118 702.419C321.69 702.419 321.69 702.365 321.69 702.906C321.69 703.014 321.737 703.933 321.69 703.933H315.929C315.881 703.933 315.881 703.122 315.881 703.068C315.881 702.419 315.977 702.473 315.453 702.473C315.072 702.473 314.929 702.311 314.929 702.798C314.929 702.96 314.977 703.933 314.882 703.933C314.691 703.933 314.072 703.825 313.929 703.933C313.834 704.042 313.929 705.069 313.929 705.232C313.929 705.556 313.977 705.556 313.739 705.556H312.501C312.406 705.556 311.882 705.448 311.787 705.556C311.644 705.773 311.882 706.53 311.787 706.746C311.692 706.963 311.359 706.854 311.121 706.854C310.978 706.854 310.264 706.746 310.168 706.854C310.073 706.963 310.168 707.72 310.168 707.828V714.211C310.168 714.319 310.121 714.535 310.216 714.644C310.597 715.401 311.025 716.212 311.406 716.969C311.501 717.186 311.454 717.564 311.454 717.835V731.196C311.454 731.304 309.454 731.25 309.311 731.25H300.028C299.742 731.25 299.457 731.412 299.457 730.979C299.457 730.655 298.838 730.817 298.6 730.817C298.552 730.817 298.314 730.763 298.266 730.817C298.219 730.871 298.314 731.25 298.266 731.25H297.219C297.028 731.25 296.6 731.141 296.41 731.25C296.219 731.358 295.981 731.953 295.838 732.223C295.648 732.494 295.505 732.764 295.315 733.089V705.286C295.315 704.799 295.172 705.015 294.791 705.015C294.41 705.015 294.886 704.42 294.505 704.42C294.41 704.42 294.124 704.474 294.029 704.42C293.982 704.366 294.077 704.15 294.029 704.15H288.316C288.221 704.15 288.364 704.42 288.269 704.42H287.745C287.507 704.42 287.84 705.015 287.507 705.015C287.031 705.015 286.983 704.853 286.983 705.448V724.001C286.983 724.38 286.269 724.272 286.269 724.001C286.269 723.785 286.364 722.974 286.174 722.974H285.079C284.65 722.974 284.698 722.92 284.698 723.515C284.698 724.001 284.793 724.164 284.46 724.164C284.365 724.164 283.508 724.164 283.508 724.164V694.359C283.508 694.197 283.079 694.305 282.936 694.305C282.556 694.305 282.698 693.981 282.698 693.494C282.698 693.386 281.984 693.602 281.984 693.386C281.984 693.061 282.032 693.115 281.794 693.115H275.319C275.271 693.115 275.033 693.061 274.986 693.115C274.891 693.223 275.081 693.494 274.938 693.494H274.414C274.081 693.494 274.367 694.305 274.272 694.305C274.176 694.305 273.51 694.305 273.51 694.305V723.623C273.51 724.326 273.462 724.164 272.891 724.164H270.13C269.939 724.164 269.654 724.272 269.654 724.001C269.654 723.785 269.749 722.974 269.558 722.974H268.463C268.035 722.974 268.083 722.92 268.083 723.515C268.083 723.839 268.178 724.164 267.892 724.164H266.654C266.559 724.164 266.131 724.055 266.035 724.218C265.607 724.813 265.178 725.408 264.75 726.003V721.946C264.845 722.108 264.988 722.27 265.131 722.487C265.226 722.27 265.702 721.784 265.559 721.567C265.369 721.297 265.178 720.972 264.94 720.702C264.131 719.512 263.322 718.322 262.465 717.132C261.179 715.239 259.846 713.345 258.561 711.452C257.275 713.345 255.942 715.239 254.657 717.132C253.848 718.322 252.991 719.512 252.181 720.702C251.991 720.972 251.753 721.297 251.562 721.567C251.42 721.784 251.896 722.216 252.038 722.379C252.134 722.27 252.229 722.108 252.277 722V732.71C251.467 731.899 250.658 730.925 249.896 730.06C249.658 729.789 249.42 729.356 249.087 729.356H247.182C246.944 729.356 243.421 729.356 243.421 729.356V722.162C243.421 722.108 244.945 722.108 245.135 722.108C244.421 720.918 243.707 719.782 242.993 718.592C241.898 716.807 240.851 715.076 239.756 713.291C239.375 712.642 238.994 712.047 238.613 711.452C238.518 711.29 238.375 710.857 238.184 710.857H234.947C234.661 710.857 234.757 710.749 234.757 710.37C234.757 709.938 234.661 710.046 234.376 710.046H232.329C232.281 710.046 232.376 710.857 232.329 710.857H230.329C230.139 710.857 228.948 710.641 228.853 710.857C228.234 711.885 227.568 712.913 226.949 713.94C225.283 716.645 223.616 719.35 221.95 722.054C222.474 722.054 222.95 722.054 223.473 722.054C223.664 722.054 223.664 722 223.664 722.325V733.792C223.664 733.954 223.759 734.874 223.664 735.036C223.569 735.144 222.95 735.036 222.807 735.036H221.664C221.426 735.036 221.474 734.982 221.474 735.307V739.147C220.903 738.714 220.331 738.282 219.76 737.903C219.379 737.632 218.998 737.362 218.617 737.037C218.57 736.983 218.284 736.713 218.236 736.767C218.236 736.767 218.189 736.767 218.189 736.821V725.949H211V743.583V760.459H211.619V761H424.476V741.798C424.476 741.635 424.905 741.743 425 741.743C424.286 740.445 423.619 739.255 422.953 738.065Z" fill="#2E2A68"/>
<defs>
<linearGradient id="paint0_linear" x1="213.633" y1="0" x2="213.633" y2="761" gradientUnits="userSpaceOnUse">
<stop stop-color="#25225C"/>
<stop offset="1" stop-color="#6C4AA4"/>
</linearGradient>
</defs>
</svg>
