<svg width="603" height="439" viewBox="0 0 603 439" fill="none" xmlns="http://www.w3.org/2000/svg">
<path d="M0 0H603V438.853H0V0Z" fill="url(#paint0_linear)"/>
<path d="M300.887 406.473L300.481 405.787C300.414 405.635 299.603 405.787 299.467 405.787C298.927 405.787 299.062 405.635 299.062 404.873C299.062 404.568 298.386 404.721 298.183 404.721C297.71 404.721 298.183 405.406 297.98 405.787C297.845 405.94 296.967 405.787 296.764 405.787C296.494 405.787 296.426 405.94 296.426 405.559V400.378C296.426 399.844 296.156 398.549 296.764 398.702C296.358 397.635 295.615 396.721 295.074 395.73C294.534 394.74 293.925 393.749 293.385 392.759C292.776 393.825 292.168 394.816 291.56 395.882C291.019 396.797 290.343 397.711 289.938 398.702C290.479 398.549 290.276 399.616 290.276 400.073V403.654C290.276 403.959 290.411 405.483 290.276 405.711C290.141 405.864 289.465 405.711 289.397 405.711H288.383C288.316 405.711 288.451 404.721 288.316 404.721H287.302C287.235 404.721 287.37 405.711 287.235 405.711H286.086C285.68 405.711 285.207 406.854 285.004 407.311C284.599 407.997 284.193 408.683 283.855 409.368V388.796C283.855 388.492 283.585 388.644 283.382 388.644C282.842 388.644 282.909 388.72 282.909 388.111V384.682C282.909 384.073 282.504 384.301 282.098 384.301H280.544C280.273 384.301 280.408 382.777 280.408 382.473V372.72C280.408 372.644 279.395 372.72 279.26 372.72C278.922 372.72 279.057 371.729 279.057 371.348C279.057 371.272 277.975 371.348 277.84 371.348C277.164 371.348 277.367 371.501 277.367 372.339C277.367 372.948 277.232 372.796 276.759 372.796H275.069C274.731 372.796 274.867 372.263 274.867 371.882V369.901C274.867 369.825 273.785 369.901 273.718 369.901C273.582 369.901 273.65 368.605 273.65 368.377C273.65 367.92 273.718 367.92 273.38 367.92H268.987C268.987 367.92 268.987 369.367 268.987 369.444C268.987 370.206 268.716 369.901 268.176 369.901C267.635 369.901 267.77 369.977 267.77 370.586V372.72C267.77 372.872 267.027 372.796 266.892 372.796H265.27C265.134 372.796 265.202 371.577 265.202 371.425C265.202 371.348 263.985 371.425 263.85 371.425C263.31 371.425 263.512 371.729 263.512 372.415C263.512 372.72 263.58 372.872 263.31 372.872H262.499C262.228 372.872 262.228 372.796 262.228 373.177V384.377C262.228 384.53 260.471 384.454 260.201 384.454C259.66 384.454 259.795 384.606 259.795 385.292V387.196C259.795 387.425 259.93 388.644 259.795 388.796C259.728 388.949 258.849 388.644 258.849 388.873V392.149C254.05 387.196 246.481 387.273 241.75 392.454V361.748C241.75 361.139 240.871 361.443 240.466 361.443C240.398 361.443 240.534 360.834 240.466 360.758C240.398 360.681 239.925 360.758 239.858 360.758C239.723 360.758 239.385 360.834 239.249 360.758C239.182 360.758 239.317 360.453 239.249 360.453H228.03C227.828 360.453 227.828 360.758 227.828 360.758C227.693 360.758 226.679 360.681 226.679 360.834C226.679 360.986 226.746 361.52 226.611 361.52H225.8C225.665 361.52 225.395 361.367 225.395 361.672V382.396C225.124 381.787 224.854 381.177 224.584 380.492C224.448 380.263 224.043 378.968 223.84 378.968H221.677C221.475 378.968 221.272 379.044 221.272 378.815C221.272 378.358 221.34 378.282 221.002 378.282H220.123C219.988 378.282 220.055 378.663 220.055 378.815C220.055 379.12 219.92 378.968 219.65 378.968H212.486C212.486 378.968 212.486 378.358 212.486 378.282C212.486 378.206 212.148 378.206 212.08 378.206H211.269C211.202 378.206 211.269 378.739 211.269 378.891C211.269 378.968 210.323 378.968 210.256 378.968C209.985 378.968 209.174 378.815 208.904 378.968C208.769 379.044 208.634 379.501 208.566 379.653C207.62 381.787 206.674 383.92 205.728 386.054C205.998 386.054 206.336 385.825 206.336 386.282V395.73C206.336 396.035 204.511 395.882 204.241 395.882C204.173 395.882 203.903 395.959 203.903 395.806C203.903 395.73 203.903 395.12 203.903 395.12C203.7 395.12 202.821 394.968 202.686 395.12C202.619 395.197 202.754 395.806 202.686 395.806H200.591C200.388 395.806 200.456 393.673 200.456 393.139V344.071C200.456 343.843 200.524 340.719 200.388 340.719C200.05 340.719 200.05 340.795 200.05 340.338V339.424C200.05 339.271 199.78 339.043 199.712 338.967C198.226 337.138 196.806 335.233 195.319 333.405C194.982 333.024 194.103 333.252 193.562 333.252V330.814H192.211V328.909H186.871V330.814H185.52V333.176C184.979 333.176 184.1 332.871 183.763 333.328C183.087 334.243 182.343 335.081 181.667 335.995C180.924 336.986 180.113 337.976 179.37 338.89C179.167 339.119 179.099 339.195 179.099 339.5V340.49C179.099 340.795 178.829 340.414 178.761 340.567C178.626 340.719 178.761 341.71 178.761 342.014V386.206C178.761 386.892 178.829 391.692 178.694 391.692H166.258C165.853 391.692 166.258 389.558 166.055 389.558C165.785 389.558 163.487 389.558 163.487 389.558V379.12C163.487 378.587 163.284 377.291 163.555 376.834C164.095 375.768 164.704 374.625 165.244 373.558C165.515 373.025 165.312 371.653 165.312 371.044V364.11C165.312 363.882 165.447 362.662 165.312 362.51C165.177 362.358 164.298 362.51 164.095 362.51C163.757 362.51 163.149 362.662 163.014 362.358C162.879 362.053 163.014 361.062 163.014 360.681C163.014 360.605 160.581 360.681 160.311 360.681C159.905 360.681 159.905 360.758 159.905 360.224V358.396C159.905 358.319 158.689 358.396 158.553 358.396C158.351 358.396 158.486 357.177 158.486 356.948C158.486 356.11 158.418 356.262 157.742 356.262C157.134 356.262 157.134 356.186 157.134 356.948C157.134 357.1 157.202 358.396 157.134 358.396H148.956C148.889 358.396 148.889 357.253 148.889 357.177C148.889 356.262 149.024 356.338 148.281 356.338C147.74 356.338 147.537 356.11 147.537 356.796C147.537 357.024 147.605 358.396 147.47 358.396C147.199 358.396 146.321 358.243 146.118 358.396C145.983 358.548 146.118 359.996 146.118 360.224C146.118 360.681 146.185 360.681 145.848 360.681H144.09C143.955 360.681 143.212 360.529 143.077 360.681C142.874 360.986 143.212 362.053 143.077 362.358C142.941 362.662 142.468 362.51 142.13 362.51C141.928 362.51 140.914 362.358 140.779 362.51C140.644 362.662 140.779 363.729 140.779 363.882V372.872C140.779 373.025 140.711 373.329 140.846 373.482C141.387 374.548 141.995 375.691 142.536 376.758C142.671 377.063 142.603 377.596 142.603 377.977V396.797C142.603 396.949 139.765 396.873 139.562 396.873H126.383C125.978 396.873 125.572 397.101 125.572 396.492C125.572 396.035 124.694 396.263 124.356 396.263C124.288 396.263 123.95 396.187 123.883 396.263C123.815 396.34 123.95 396.873 123.883 396.873H122.396C122.125 396.873 121.517 396.721 121.247 396.873C120.976 397.025 120.638 397.863 120.436 398.244C120.165 398.625 119.963 399.006 119.692 399.463V360.3C119.692 359.615 119.49 359.92 118.949 359.92C118.408 359.92 119.084 359.081 118.543 359.081C118.408 359.081 118.003 359.158 117.868 359.081C117.8 359.005 117.935 358.7 117.868 358.7H109.757C109.622 358.7 109.825 359.081 109.69 359.081H108.946C108.608 359.081 109.082 359.92 108.608 359.92C107.933 359.92 107.865 359.691 107.865 360.529V386.663C107.865 387.196 106.851 387.044 106.851 386.663C106.851 386.358 106.986 385.215 106.716 385.215H105.162C104.553 385.215 104.621 385.139 104.621 385.977C104.621 386.663 104.756 386.892 104.283 386.892C104.148 386.892 102.931 386.892 102.931 386.892V344.91C102.931 344.681 102.323 344.833 102.12 344.833C101.58 344.833 101.782 344.376 101.782 343.691C101.782 343.538 100.769 343.843 100.769 343.538C100.769 343.081 100.836 343.157 100.498 343.157H91.3068C91.2392 343.157 90.9013 343.081 90.8337 343.157C90.6985 343.31 90.9689 343.691 90.7661 343.691H90.0227C89.5496 343.691 89.9551 344.833 89.8199 344.833C89.6848 344.833 88.7386 344.833 88.7386 344.833V386.13C88.7386 387.12 88.671 386.892 87.86 386.892H83.9401C83.6697 386.892 83.2642 387.044 83.2642 386.663C83.2642 386.358 83.3994 385.215 83.1291 385.215H81.5746C80.9663 385.215 81.0339 385.139 81.0339 385.977C81.0339 386.435 81.1691 386.892 80.7636 386.892H79.0064C78.8712 386.892 78.263 386.739 78.1278 386.968C77.5195 387.806 76.9113 388.644 76.303 389.482V383.768C76.4382 383.996 76.6409 384.225 76.8437 384.53C76.9788 384.225 77.6547 383.539 77.4519 383.234C77.1816 382.853 76.9113 382.396 76.5734 382.015C75.4244 380.339 74.2755 378.663 73.0589 376.987C71.2342 374.32 69.3418 371.653 67.517 368.986C65.6922 371.653 63.7998 374.32 61.9751 376.987C60.8261 378.663 59.6096 380.339 58.4607 382.015C58.1903 382.396 57.8524 382.853 57.5821 383.234C57.3793 383.539 58.0552 384.149 58.2579 384.377C58.3931 384.225 58.5283 383.996 58.5958 383.844V398.93C57.4469 397.787 56.298 396.416 55.2166 395.197C54.8787 394.816 54.5408 394.206 54.0677 394.206H51.3643C51.0264 394.206 46.0251 394.206 46.0251 394.206V384.073C46.0251 383.996 48.1878 383.996 48.4582 383.996C47.4444 382.32 46.4306 380.72 45.4168 379.044C43.8624 376.53 42.3755 374.091 40.8211 371.577C40.2804 370.663 39.7397 369.825 39.1991 368.986C39.0639 368.758 38.8611 368.148 38.5908 368.148H33.9951C33.5895 368.148 33.7247 367.996 33.7247 367.463C33.7247 366.853 33.5895 367.005 33.184 367.005H30.2779C30.2103 367.005 30.3455 368.148 30.2779 368.148H27.4393C27.169 368.148 25.4794 367.844 25.3442 368.148C24.4656 369.596 23.5194 371.044 22.6408 372.491C20.2754 376.301 17.9099 380.111 15.5445 383.92C16.2879 383.92 16.9637 383.92 17.7072 383.92C17.9775 383.92 17.9775 383.844 17.9775 384.301V400.454C17.9775 400.683 18.1127 401.978 17.9775 402.206C17.8423 402.359 16.9637 402.206 16.761 402.206H15.1389C14.801 402.206 14.8686 402.13 14.8686 402.587V407.997C14.0576 407.387 13.2466 406.778 12.4356 406.245C11.8949 405.864 11.3542 405.483 10.8135 405.026C10.746 404.949 10.3404 404.568 10.2729 404.645C10.2729 404.645 10.2053 404.645 10.2053 404.721V389.406H0V414.245V438.017H0.8786V438.779H303.049V411.73C303.049 411.502 303.658 411.654 303.793 411.654C302.779 409.826 301.833 408.149 300.887 406.473Z" fill="#2E2A68"/>
<path d="M600.094 406.473L599.688 405.787C599.621 405.635 598.81 405.787 598.674 405.787C598.134 405.787 598.269 405.635 598.269 404.873C598.269 404.568 597.593 404.721 597.39 404.721C596.917 404.721 597.39 405.406 597.188 405.787C597.052 405.94 596.174 405.787 595.971 405.787C595.701 405.787 595.633 405.94 595.633 405.559V400.378C595.633 399.844 595.363 398.549 595.971 398.702C595.566 397.635 594.822 396.721 594.281 395.73C593.741 394.74 593.132 393.749 592.592 392.759C591.984 393.825 591.375 394.816 590.767 395.882C590.226 396.797 589.55 397.711 589.145 398.702C589.686 398.549 589.483 399.616 589.483 400.073V403.654C589.483 403.959 589.618 405.483 589.483 405.711C589.348 405.864 588.672 405.711 588.604 405.711H587.591C587.523 405.711 587.658 404.721 587.523 404.721H586.509C586.442 404.721 586.577 405.711 586.442 405.711H585.293C584.887 405.711 584.414 406.854 584.211 407.311C583.806 407.997 583.4 408.683 583.062 409.368V388.796C583.062 388.492 582.792 388.644 582.589 388.644C582.049 388.644 582.116 388.72 582.116 388.111V384.682C582.116 384.073 581.711 384.301 581.305 384.301H579.751C579.48 384.301 579.616 382.777 579.616 382.473V372.72C579.616 372.644 578.602 372.72 578.467 372.72C578.129 372.72 578.264 371.729 578.264 371.348C578.264 371.272 577.183 371.348 577.047 371.348C576.371 371.348 576.574 371.501 576.574 372.339C576.574 372.948 576.439 372.796 575.966 372.796H574.276C573.938 372.796 574.074 372.263 574.074 371.882V369.901C574.074 369.825 572.992 369.901 572.925 369.901C572.79 369.901 572.857 368.605 572.857 368.377C572.857 367.92 572.925 367.92 572.587 367.92H568.194C568.194 367.92 568.194 369.367 568.194 369.444C568.194 370.206 567.923 369.901 567.383 369.901C566.842 369.901 566.977 369.977 566.977 370.586V372.72C566.977 372.872 566.234 372.796 566.099 372.796H564.477C564.341 372.796 564.409 371.577 564.409 371.425C564.409 371.348 563.192 371.425 563.057 371.425C562.517 371.425 562.719 371.729 562.719 372.415C562.719 372.72 562.787 372.872 562.517 372.872H561.706C561.435 372.872 561.435 372.796 561.435 373.177V384.377C561.435 384.53 559.678 384.454 559.408 384.454C558.867 384.454 559.002 384.606 559.002 385.292V387.196C559.002 387.425 559.137 388.644 559.002 388.796C558.935 388.949 558.056 388.644 558.056 388.873V392.149C553.258 387.196 545.688 387.273 540.957 392.454V361.748C540.957 361.139 540.079 361.443 539.673 361.443C539.605 361.443 539.741 360.834 539.673 360.758C539.605 360.681 539.132 360.758 539.065 360.758C538.93 360.758 538.592 360.834 538.457 360.758C538.389 360.758 538.524 360.453 538.457 360.453H527.237C527.035 360.453 527.035 360.758 527.035 360.758C526.9 360.758 525.886 360.681 525.886 360.834C525.886 360.986 525.953 361.52 525.818 361.52H525.007C524.872 361.52 524.602 361.367 524.602 361.672V382.396C524.331 381.787 524.061 381.177 523.791 380.492C523.655 380.263 523.25 378.968 523.047 378.968H520.885C520.682 378.968 520.479 379.044 520.479 378.815C520.479 378.358 520.547 378.282 520.209 378.282H519.33C519.195 378.282 519.262 378.663 519.262 378.815C519.262 379.12 519.127 378.968 518.857 378.968H511.693C511.693 378.968 511.693 378.358 511.693 378.282C511.693 378.206 511.355 378.206 511.288 378.206H510.477C510.409 378.206 510.477 378.739 510.477 378.891C510.477 378.968 509.53 378.968 509.463 378.968C509.192 378.968 508.381 378.815 508.111 378.968C507.976 379.044 507.841 379.501 507.773 379.653C506.827 381.787 505.881 383.92 504.935 386.054C505.205 386.054 505.543 385.825 505.543 386.282V395.73C505.543 396.035 503.718 395.882 503.448 395.882C503.38 395.882 503.11 395.959 503.11 395.806C503.11 395.73 503.11 395.12 503.11 395.12C502.907 395.12 502.028 394.968 501.893 395.12C501.826 395.197 501.961 395.806 501.893 395.806H499.798C499.595 395.806 499.663 393.673 499.663 393.139V344.071C499.663 343.843 499.731 340.719 499.595 340.719C499.257 340.719 499.257 340.795 499.257 340.338V339.424C499.257 339.271 498.987 339.043 498.92 338.967C497.433 337.138 496.013 335.233 494.527 333.405C494.189 333.024 493.31 333.252 492.769 333.252V330.814H491.418V328.909H486.078V330.814H484.727V333.176C484.186 333.176 483.307 332.871 482.97 333.328C482.294 334.243 481.55 335.081 480.874 335.995C480.131 336.986 479.32 337.976 478.577 338.89C478.374 339.119 478.306 339.195 478.306 339.5V340.49C478.306 340.795 478.036 340.414 477.968 340.567C477.833 340.719 477.968 341.71 477.968 342.014V386.206C477.968 386.892 478.036 391.692 477.901 391.692H465.465C465.06 391.692 465.465 389.558 465.262 389.558C464.992 389.558 462.694 389.558 462.694 389.558V379.12C462.694 378.587 462.491 377.291 462.762 376.834C463.302 375.768 463.911 374.625 464.451 373.558C464.722 373.025 464.519 371.653 464.519 371.044V364.11C464.519 363.882 464.654 362.662 464.519 362.51C464.384 362.358 463.505 362.51 463.302 362.51C462.965 362.51 462.356 362.662 462.221 362.358C462.086 362.053 462.221 361.062 462.221 360.681C462.221 360.605 459.788 360.681 459.518 360.681C459.112 360.681 459.112 360.758 459.112 360.224V358.396C459.112 358.319 457.896 358.396 457.761 358.396C457.558 358.396 457.693 357.177 457.693 356.948C457.693 356.11 457.625 356.262 456.949 356.262C456.341 356.262 456.341 356.186 456.341 356.948C456.341 357.1 456.409 358.396 456.341 358.396H448.163C448.096 358.396 448.096 357.253 448.096 357.177C448.096 356.262 448.231 356.338 447.488 356.338C446.947 356.338 446.744 356.11 446.744 356.796C446.744 357.024 446.812 358.396 446.677 358.396C446.406 358.396 445.528 358.243 445.325 358.396C445.19 358.548 445.325 359.996 445.325 360.224C445.325 360.681 445.393 360.681 445.055 360.681H443.297C443.162 360.681 442.419 360.529 442.284 360.681C442.081 360.986 442.419 362.053 442.284 362.358C442.148 362.662 441.675 362.51 441.337 362.51C441.135 362.51 440.121 362.358 439.986 362.51C439.851 362.662 439.986 363.729 439.986 363.882V372.872C439.986 373.025 439.918 373.329 440.053 373.482C440.594 374.548 441.202 375.691 441.743 376.758C441.878 377.063 441.811 377.596 441.811 377.977V396.797C441.811 396.949 438.972 396.873 438.769 396.873H425.59C425.185 396.873 424.779 397.101 424.779 396.492C424.779 396.035 423.901 396.263 423.563 396.263C423.495 396.263 423.157 396.187 423.09 396.263C423.022 396.34 423.157 396.873 423.09 396.873H421.603C421.332 396.873 420.724 396.721 420.454 396.873C420.183 397.025 419.846 397.863 419.643 398.244C419.372 398.625 419.17 399.006 418.899 399.463V360.3C418.899 359.615 418.697 359.92 418.156 359.92C417.615 359.92 418.291 359.081 417.75 359.081C417.615 359.081 417.21 359.158 417.075 359.081C417.007 359.005 417.142 358.7 417.075 358.7H408.964C408.829 358.7 409.032 359.081 408.897 359.081H408.153C407.815 359.081 408.289 359.92 407.815 359.92C407.14 359.92 407.072 359.691 407.072 360.529V386.663C407.072 387.196 406.058 387.044 406.058 386.663C406.058 386.358 406.193 385.215 405.923 385.215H404.369C403.76 385.215 403.828 385.139 403.828 385.977C403.828 386.663 403.963 386.892 403.49 386.892C403.355 386.892 402.138 386.892 402.138 386.892V344.91C402.138 344.681 401.53 344.833 401.327 344.833C400.787 344.833 400.989 344.376 400.989 343.691C400.989 343.538 399.976 343.843 399.976 343.538C399.976 343.081 400.043 343.157 399.705 343.157H390.514C390.446 343.157 390.108 343.081 390.041 343.157C389.906 343.31 390.176 343.691 389.973 343.691H389.23C388.757 343.691 389.162 344.833 389.027 344.833C388.892 344.833 387.946 344.833 387.946 344.833V386.13C387.946 387.12 387.878 386.892 387.067 386.892H383.147C382.877 386.892 382.471 387.044 382.471 386.663C382.471 386.358 382.606 385.215 382.336 385.215H380.782C380.173 385.215 380.241 385.139 380.241 385.977C380.241 386.435 380.376 386.892 379.971 386.892H378.213C378.078 386.892 377.47 386.739 377.335 386.968C376.727 387.806 376.118 388.644 375.51 389.482V383.768C375.645 383.996 375.848 384.225 376.051 384.53C376.186 384.225 376.862 383.539 376.659 383.234C376.389 382.853 376.118 382.396 375.78 382.015C374.631 380.339 373.482 378.663 372.266 376.987C370.441 374.32 368.549 371.653 366.724 368.986C364.899 371.653 363.007 374.32 361.182 376.987C360.033 378.663 358.817 380.339 357.668 382.015C357.397 382.396 357.059 382.853 356.789 383.234C356.586 383.539 357.262 384.149 357.465 384.377C357.6 384.225 357.735 383.996 357.803 383.844V398.93C356.654 397.787 355.505 396.416 354.424 395.197C354.086 394.816 353.748 394.206 353.275 394.206H350.571C350.233 394.206 345.232 394.206 345.232 394.206V384.073C345.232 383.996 347.395 383.996 347.665 383.996C346.651 382.32 345.638 380.72 344.624 379.044C343.069 376.529 341.583 374.091 340.028 371.577C339.487 370.663 338.947 369.825 338.406 368.986C338.271 368.758 338.068 368.148 337.798 368.148H333.202C332.797 368.148 332.932 367.996 332.932 367.463C332.932 366.853 332.797 367.005 332.391 367.005H329.485C329.417 367.005 329.553 368.148 329.485 368.148H326.646C326.376 368.148 324.686 367.844 324.551 368.148C323.673 369.596 322.726 371.044 321.848 372.491C319.482 376.301 317.117 380.111 314.751 383.92C315.495 383.92 316.171 383.92 316.914 383.92C317.185 383.92 317.185 383.844 317.185 384.301V400.454C317.185 400.683 317.32 401.978 317.185 402.206C317.049 402.359 316.171 402.206 315.968 402.206H314.346C314.008 402.206 314.076 402.13 314.076 402.587V407.997C313.265 407.387 312.454 406.778 311.643 406.245C311.102 405.864 310.561 405.483 310.021 405.026C309.953 404.949 309.547 404.568 309.48 404.645C309.48 404.645 309.412 404.645 309.412 404.721V389.406H299.207V414.245V438.017H300.086V438.779H602.256V411.73C602.256 411.502 602.865 411.654 603 411.654C601.986 409.826 601.04 408.149 600.094 406.473Z" fill="#2E2A68"/>
<defs>
<linearGradient id="paint0_linear" x1="303.108" y1="0" x2="303.108" y2="438.853" gradientUnits="userSpaceOnUse">
<stop stop-color="#25225C"/>
<stop offset="1" stop-color="#6C4AA4"/>
</linearGradient>
</defs>
</svg>
