<svg width="529" height="368" viewBox="0 0 529 368" fill="none" xmlns="http://www.w3.org/2000/svg">
<path d="M52.8949 62.5832C67.1682 62.5832 78.739 51.0043 78.739 36.721C78.739 22.4378 67.1682 10.8589 52.8949 10.8589C38.6216 10.8589 27.0508 22.4378 27.0508 36.721C27.0508 51.0043 38.6216 62.5832 52.8949 62.5832Z" fill="#6C63FF"/>
<path opacity="0.1" d="M49.7379 89.3686C60.5892 113.896 46.7472 142.139 30.4535 163.406C25.0001 170.538 18.9796 178.014 18.2236 186.959C17.3119 197.902 24.7166 207.959 33.4999 214.535C49.5211 226.517 71.4016 230.222 90.4692 224.175C106.946 218.952 120.799 207.153 137.421 202.396C165.216 194.43 194.679 207.637 218.483 224.092C235.333 235.724 253.378 249.898 273.69 247.406C287.983 245.654 300.113 235.613 308.346 223.792C312.32 218.084 315.778 211.687 321.565 207.837C325.006 205.545 329.048 204.332 333.089 203.465C369.996 195.571 409.165 214.835 445.582 204.928C470.181 198.252 489.794 178.782 501.99 156.38C514.187 133.978 519.879 108.683 524.621 83.622C527.99 65.8206 530.786 46.5895 523.042 30.2178C514.848 12.8836 495.881 2.37521 476.819 0.405924C457.757 -1.56336 438.639 3.87164 421.078 11.5374C399.136 21.139 377.628 34.5791 353.68 34.6236C337.37 34.657 321.815 28.3931 306.222 23.6145C280.15 15.6317 253.039 11.6653 226.021 8.00491C200.155 4.50025 174.033 1.24037 148.011 3.30978C129.599 4.77284 113.339 11.8155 95.4724 15.0754C83.8261 17.2005 72.1243 15.6317 60.6949 19.192C46.6193 23.5978 32.1435 33.8058 31.3652 49.8828C30.6314 65.1864 43.9843 76.3568 49.7379 89.3686Z" fill="white"/>
<path d="M334.612 111.209C332.238 105.017 326.117 90.4646 322.087 93.3517C316.995 97.001 327.179 113.122 327.179 113.122C327.468 116.082 321.742 122.24 318.674 125.311C318.674 125.066 318.674 124.927 318.674 124.927C318.644 125.044 318.6 125.156 318.54 125.261L318.285 125.122C318.216 125.367 318.093 125.594 317.923 125.784C317.923 125.366 317.895 125.122 317.895 125.122C317.306 127.619 307.022 130.785 307.022 130.785C307.022 130.785 306.744 130.785 306.266 130.785C303.408 130.785 295.97 130.139 292.524 124.621C290.741 121.632 288.461 118.969 285.781 116.749C284.863 116.03 283.748 115.607 282.584 115.537C273.062 114.925 265.351 110.102 263.811 109.073L263.528 108.878L263.467 109.056C263.105 108.539 262.755 107.988 262.427 107.42L262.26 107.114C264.565 105.957 266.505 104.182 267.864 101.989C269.223 99.7952 269.948 97.2678 269.96 94.6868C269.96 94.5923 269.96 94.4921 269.96 94.3976C270.797 92.9486 271.238 91.3041 271.238 89.6301V87.9612L273.412 86.0253C274.407 85.1408 275.435 84.2062 275.941 82.988C276.144 82.4949 276.235 81.9629 276.208 81.4303C276.257 80.9741 276.188 80.5129 276.009 80.0904C275.83 79.668 275.547 79.2982 275.185 79.016C273.517 77.8645 270.738 79.016 269.532 77.4139C268.976 76.6907 269.076 75.7061 268.803 74.8549C268.247 73.1249 266.246 72.1903 264.395 72.1625C262.544 72.1346 260.77 72.8078 258.992 73.314C255.254 74.3758 251.354 74.7416 247.484 74.3932C246.438 74.2068 245.363 74.2447 244.332 74.5045C243.703 74.7649 243.143 75.1701 242.699 75.6871C242.254 76.2041 241.938 76.8186 241.775 77.4806C241.638 77.9781 241.556 78.4893 241.531 79.0049C239.98 80.7554 239.122 83.0128 239.118 85.3522V89.6301C239.121 91.9139 239.939 94.1214 241.425 95.855C241.6 97.8679 242.212 99.8184 243.217 101.571C244.222 103.323 245.597 104.835 247.245 106.002C247.245 106.113 247.245 106.226 247.245 106.341L247.318 106.386C247.228 107.712 247.023 109.028 246.706 110.319V110.035C246.706 110.035 238.923 114.179 230.585 114.28H229.667C228.023 114.224 226.423 114.824 225.22 115.948C222.752 118.274 218.427 121.951 215.77 121.951C215.214 121.951 201.183 124.693 198.859 125.15L194.518 120.894L194.384 121.144L194.128 120.894C193.654 120.931 193.182 120.999 192.716 121.1C190.493 118.463 186.045 112.332 185.017 104.105C185.017 104.105 194.618 93.1626 191.088 82.9657C188.075 74.2764 179.775 92.9011 177.418 98.5141C177.006 99.4936 176.954 100.588 177.273 101.602L185.073 126.757C184.33 128.707 184.117 130.818 184.456 132.876H184.367L190.048 140.169C190.048 140.169 194.323 141.994 201.011 141.961C205.912 141.969 210.769 141.036 215.32 139.213H216.637L216.387 139.307H223.152L227.455 152.33C227.31 153.515 225.231 170.054 223.564 173.753C223.069 174.989 222.845 176.317 222.908 177.647C222.995 180.203 223.412 182.736 224.147 185.185L227.916 185.046L227.772 185.341C224.581 191.888 219.25 203.554 216.098 214.457L210.611 225.583L214.725 275.483H214.892L215.208 275.533C215.653 275.599 216.32 275.7 217.198 275.811L216.876 276.367L207.809 291.387C207.809 291.387 201.344 304.632 215.648 302.135C215.648 302.135 220.934 300.599 223.091 291.565L232.497 282.737C232.497 282.737 232.936 276.873 230.273 274.531C230.107 271.822 229.684 263.912 230.335 262.009C231.118 259.706 226.999 233.221 226.999 233.221C226.999 233.221 241.886 202.319 250.903 201.551C251.564 201.505 252.228 201.592 252.854 201.807C260.265 204.221 269.242 222.151 271.883 227.73L272.005 227.986V228.036L272.105 228.253V228.314L272.194 228.504V228.554L272.272 228.726V228.765L272.339 228.904V228.96L272.389 229.065V229.11L272.422 229.188V229.232V229.282L272.45 229.349L273.623 264.09L273.74 264.151H273.795L273.695 264.868L273.184 268.457C273.184 268.457 279.649 282.086 279.254 283.81C278.86 285.535 283.563 292.45 290.222 290.53C296.882 288.611 292.919 277.791 292.919 277.791L286.503 264.563L286.22 263.973C286.859 263.58 287.462 263.132 288.021 262.632C288.021 262.632 286.064 248.43 288.021 245.359C289.978 242.288 290.567 228.275 290.567 228.275C290.567 228.275 289.194 218.679 286.842 214.457L276.992 179.271C279.944 182.02 282.24 183.093 284.157 183.021H284.474C285.317 183.037 286.15 182.829 286.887 182.42C287.283 182.196 287.655 181.934 287.999 181.636C288.064 181.579 288.126 181.518 288.182 181.452V181.452C290.923 179.149 285.047 170.126 281.717 164.763C278.509 159.59 282.929 145.532 283.262 144.486C283.559 144.268 283.878 144.082 284.213 143.93C284.903 143.634 285.642 143.474 286.392 143.457C289.583 143.568 293.508 145.404 298.366 146.328C301.743 146.902 305.165 147.169 308.59 147.123H308.79C310.152 147.123 311.386 147.095 312.386 147.056C313.299 147.02 314.192 146.779 314.999 146.35V146.35C315.691 145.946 316.317 145.44 316.856 144.848L325.383 135.207L325.161 135.313C325.574 134.22 325.574 133.013 325.161 131.92L334.172 116.343C334.627 115.576 334.903 114.715 334.979 113.826C335.055 112.937 334.929 112.042 334.612 111.209V111.209Z" fill="url(#paint0_linear)"/>
<path d="M233.37 281.418L224.292 290.124C222.213 299.025 217.104 300.532 217.104 300.532C203.301 302.991 209.538 289.963 209.538 289.963L218.294 275.138L219.372 273.307C219.372 273.307 225.615 271.416 229.773 272.551C230.298 272.695 230.783 272.957 231.191 273.319C233.798 275.583 233.37 281.418 233.37 281.418Z" fill="#444176"/>
<path d="M289.344 289.179C282.913 291.07 278.376 284.261 278.782 282.553C279.188 280.845 272.906 267.433 272.906 267.433L273.395 263.895L273.851 260.618L284.414 261.375L285.409 263.467L291.601 276.512C291.601 276.512 295.776 287.287 289.344 289.179Z" fill="#444176"/>
<path opacity="0.1" d="M231.291 274.798C230.296 276.506 222.23 275.644 218.3 275.11L219.378 273.28C219.378 273.28 225.621 271.388 229.779 272.523C230.304 272.667 230.789 272.93 231.197 273.291C231.252 274.214 231.291 274.798 231.291 274.798Z" fill="black"/>
<path opacity="0.1" d="M285.42 263.455C280.011 267.06 274.252 264.334 273.385 263.884L273.841 260.607L284.403 261.364L285.42 263.455Z" fill="black"/>
<path d="M286.887 244.519C284.997 247.545 286.887 261.553 286.887 261.553C280.644 267.233 273.273 263.066 273.273 263.066L272.161 228.815C272.161 228.815 259.87 200.616 251.17 201.373C242.47 202.129 228.1 232.598 228.1 232.598C228.1 232.598 232.069 258.71 231.313 260.969C230.557 263.227 231.313 274.214 231.313 274.214C229.99 276.484 216.187 274.214 216.187 274.214L212.218 225.01L217.488 214.029C220.517 203.281 225.665 191.777 228.745 185.324C230.274 182.114 231.297 180.156 231.297 180.156L241.358 178.059L274.018 171.283L285.753 214.029C288.021 218.19 289.344 227.652 289.344 227.652C289.344 227.652 288.777 241.493 286.887 244.519Z" fill="#565387"/>
<g opacity="0.1">
<path opacity="0.1" d="M276.297 263.066L275.185 228.815C275.185 228.815 262.894 200.616 254.194 201.373C253.805 201.411 253.423 201.497 253.055 201.629C261.538 204.449 272.161 228.815 272.161 228.815L273.273 263.066C275.592 264.248 278.207 264.726 280.794 264.44C279.226 264.251 277.703 263.786 276.297 263.066V263.066Z" fill="black"/>
<path opacity="0.1" d="M219.189 274.231L215.219 225.027L220.512 214.029C223.541 203.281 228.689 191.777 231.769 185.324C233.298 182.114 234.32 180.156 234.32 180.156L244.382 178.059L274.196 171.856L274.034 171.261L241.358 178.059L231.296 180.156C231.296 180.156 230.273 182.114 228.745 185.324C225.654 191.777 220.517 203.303 217.488 214.029L212.195 225.004L216.164 274.209C216.164 274.209 223.703 275.449 228.172 275.177C225.164 275.013 222.165 274.698 219.189 274.231V274.231Z" fill="black"/>
</g>
<path d="M196.191 121.801C196.191 121.801 185.412 122.357 186.924 133.722L189.948 134.1L194.484 129.183L196.752 125.021V124.076L196.191 121.801Z" fill="#CED2DF"/>
<path opacity="0.1" d="M196.191 121.801C196.191 121.801 185.412 122.357 186.924 133.722L189.948 134.1L194.484 129.183L196.752 125.021V124.076L196.191 121.801Z" fill="black"/>
<path d="M316.106 125.962C316.106 125.962 325.001 130.69 322.727 136.181L319.892 137.293L316.112 135.213L315.556 130.295L315.934 126.891L316.106 125.962Z" fill="#CED2DF"/>
<path opacity="0.1" d="M316.106 125.962C316.106 125.962 325.001 130.69 322.727 136.181L319.892 137.293L316.112 135.213L315.556 130.295L315.934 126.891L316.106 125.962Z" fill="black"/>
<path d="M258.998 77.1357H251.432C244.957 77.1357 239.708 82.3885 239.708 88.868C239.708 95.3475 244.957 100.6 251.432 100.6H258.998C265.473 100.6 270.722 95.3475 270.722 88.868C270.722 82.3885 265.473 77.1357 258.998 77.1357Z" fill="#88455E"/>
<path d="M196.119 123.408L189.498 133.978L188.942 132.098L179.948 102.77C179.64 101.77 179.689 100.694 180.087 99.7267C182.36 94.1972 190.376 75.8061 193.284 84.4008C196.686 94.4141 187.419 105.217 187.419 105.217C188.475 113.985 193.395 120.337 195.33 122.54C195.819 123.113 196.119 123.408 196.119 123.408Z" fill="#EC8C9C"/>
<path d="M314.688 127.948C314.688 127.948 325.089 118.107 324.695 114.135C324.695 114.135 314.861 98.2416 319.781 94.6646C323.672 91.8164 329.581 106.169 331.872 112.271C332.174 113.084 332.296 113.954 332.228 114.818C332.16 115.683 331.903 116.523 331.477 117.278L319.047 139.302L314.688 127.948Z" fill="#EC8C9C"/>
<path d="M247.362 100.511C247.362 100.511 249.252 112.622 243.771 117.167C238.29 121.712 259.47 121.684 259.47 121.684L267.036 114.68C267.036 114.68 258.336 106.542 260.982 100.489L247.362 100.511Z" fill="#EC8C9C"/>
<path opacity="0.1" d="M246.985 114.324C246.985 114.324 255.118 120.382 263.245 113.567L276.481 141.009L275.725 174.504C275.725 174.504 248.302 188.695 236.956 179.995C225.61 171.294 235.066 166.749 235.066 166.749L232.42 141.015L235.255 124.359C235.255 124.359 240.358 116.41 240.742 116.41C241.125 116.41 246.985 114.324 246.985 114.324Z" fill="black"/>
<path d="M246.984 113.946C246.984 113.946 255.117 120.015 263.25 113.189L276.486 140.631L275.73 174.126C275.73 174.126 248.307 188.317 236.961 179.616C225.615 170.916 235.071 166.371 235.071 166.371L232.425 140.637L235.26 123.981C235.26 123.981 240.363 116.032 240.747 116.032C241.13 116.032 246.984 113.946 246.984 113.946Z" fill="#EBF1F6"/>
<path opacity="0.1" d="M246.985 111.114C246.985 111.114 239.274 115.509 230.902 115.292C230.117 115.267 229.334 115.399 228.601 115.68C227.867 115.961 227.196 116.385 226.627 116.928C224.242 119.219 220.068 122.847 217.483 122.847C216.927 122.847 200.839 126.062 200.839 126.062L196.586 121.806C196.586 121.806 190.249 134.2 187.225 133.633L192.711 140.826C192.711 140.826 203.112 145.365 216.727 139.88H224.67L228.829 152.747C228.829 152.747 226.75 170.159 225.048 173.942C223.347 177.725 225.604 185.107 225.604 185.107L240.542 184.551C240.542 184.551 241.298 177.169 242.432 176.206C243.566 175.244 238.463 142.712 238.463 142.712C238.463 142.712 235.06 124.354 247.54 117.734L246.985 111.114Z" fill="black"/>
<path opacity="0.1" d="M241.353 178.081C240.803 180.326 240.411 182.607 240.18 184.907L228.745 185.341C230.274 182.131 231.297 180.173 231.297 180.173L241.353 178.081Z" fill="black"/>
<path opacity="0.1" d="M196.119 123.408L189.498 133.978L188.942 132.098C191.372 129.683 194.218 124.638 195.352 122.535C195.819 123.113 196.119 123.408 196.119 123.408Z" fill="black"/>
<path d="M246.985 111.114C246.985 111.114 238.891 115.509 230.524 115.292C229.739 115.267 228.957 115.399 228.223 115.68C227.489 115.961 226.818 116.385 226.249 116.928C223.865 119.219 219.69 122.847 217.105 122.847C216.549 122.847 200.461 126.062 200.461 126.062L196.192 121.801C196.192 121.801 189.854 134.195 186.83 133.627L192.317 140.82C192.317 140.82 202.718 145.36 216.332 139.875H224.276L228.434 152.736C228.434 152.736 226.355 170.148 224.654 173.931C222.953 177.714 225.21 185.096 225.21 185.096L240.147 184.54C240.147 184.54 240.903 177.158 242.037 176.195C243.171 175.233 238.068 142.701 238.068 142.701C238.068 142.701 234.666 124.343 247.146 117.723L246.985 111.114Z" fill="#CED2DF"/>
<path opacity="0.1" d="M263.25 109.968C263.25 109.968 270.966 115.854 281.267 116.533C282.394 116.603 283.471 117.021 284.352 117.729C286.95 119.934 289.152 122.568 290.862 125.517C295.02 132.331 305.232 131.575 305.232 131.575C305.232 131.575 315.16 128.454 315.727 126.012C315.727 126.012 316.011 139.363 322.254 136.136L314.043 145.604C313.525 146.203 312.891 146.688 312.179 147.032C311.466 147.375 310.691 147.569 309.901 147.602C306.816 147.724 301.457 147.763 296.932 146.884C290.122 145.56 285.208 142.345 281.617 145.182C281.617 145.182 276.892 159.94 280.105 165.242C283.318 170.543 288.999 179.433 286.348 181.708C283.696 183.983 280.483 183.789 275.191 178.303C269.898 172.818 269.326 163.545 269.326 163.545L270.649 139.702C270.649 139.702 265.546 121.723 260.643 118.129L263.25 109.968Z" fill="black"/>
<path opacity="0.1" d="M323.005 135.897L314.772 145.404C314.225 146.035 313.548 146.54 312.787 146.884V146.884C312.111 147.189 311.383 147.361 310.641 147.39C307.556 147.518 302.197 147.557 297.672 146.673C291.301 145.432 286.587 142.539 283.063 144.492C282.813 144.63 282.575 144.788 282.351 144.965C282.351 144.965 277.626 159.723 280.839 165.025C284.052 170.326 289.734 179.216 287.082 181.491C286.638 181.882 286.14 182.206 285.603 182.453C283.224 183.527 280.272 182.598 275.925 178.087C270.633 172.596 270.06 163.328 270.06 163.328L271.383 139.485C271.383 139.485 266.28 121.506 261.377 117.912L263.539 110.152C265.029 111.164 272.467 115.921 281.662 116.527C282.789 116.598 283.867 117.016 284.747 117.723C287.345 119.929 289.546 122.563 291.257 125.511C295.415 132.326 305.627 131.569 305.627 131.569C308.075 130.788 310.466 129.836 312.782 128.721V128.721C314.233 128.009 315.511 127.23 316.117 126.496C316.287 126.304 316.411 126.076 316.478 125.828C316.478 125.828 316.767 139.113 323.005 135.897Z" fill="black"/>
<path d="M322.627 136.086L314.399 145.605C313.947 146.127 313.405 146.564 312.798 146.895V146.895C312.022 147.317 311.158 147.555 310.275 147.591C307.189 147.718 301.83 147.757 297.305 146.873C291.163 145.677 286.554 142.94 283.08 144.503C282.683 144.676 282.309 144.898 281.968 145.165C281.968 145.165 277.243 159.924 280.456 165.225C283.669 170.527 289.35 179.416 286.699 181.691C286.356 181.987 285.983 182.246 285.587 182.465C283.141 183.816 280.117 183.021 275.53 178.287C270.238 172.796 269.666 163.528 269.666 163.528L270.989 139.686C270.989 139.686 265.886 121.706 260.982 118.112L263.251 109.974L263.523 110.163C265.013 111.175 272.451 115.932 281.645 116.538C282.773 116.609 283.85 117.027 284.731 117.734C287.328 119.94 289.53 122.574 291.24 125.522C295.399 132.337 305.611 131.58 305.611 131.58C308.059 130.799 310.449 129.847 312.765 128.732V128.732C314.483 127.853 315.884 126.891 316.101 126.012C316.101 126.012 316.101 126.184 316.101 126.49C316.267 128.788 317.101 138.929 322.627 136.086Z" fill="#CED2DF"/>
<path opacity="0.1" d="M261.149 100.795H247.251C247.557 103.006 247.644 105.242 247.512 107.47C249.634 108.964 252.122 109.852 254.709 110.038C257.297 110.224 259.886 109.702 262.199 108.527C260.865 106.057 260.054 103.254 261.149 100.795Z" fill="black"/>
<path d="M255.684 109.779C263.307 109.779 269.487 103.595 269.487 95.9664C269.487 88.3378 263.307 82.1536 255.684 82.1536C248.061 82.1536 241.881 88.3378 241.881 95.9664C241.881 103.595 248.061 109.779 255.684 109.779Z" fill="#EC8C9C"/>
<path opacity="0.1" d="M252.816 93.5075C254.356 93.3239 255.895 92.7788 257.413 93.0847C258.792 93.3629 259.965 94.3141 261.343 94.6034C264.001 95.1597 266.469 93.2015 268.476 91.3769L272.812 87.4272C273.773 86.5538 274.763 85.6359 275.258 84.4343C275.752 83.2327 275.58 81.6529 274.524 80.8963C272.94 79.7837 270.21 80.8963 269.065 79.3164C268.548 78.6044 268.626 77.6475 268.359 76.7964C267.803 75.0942 265.891 74.1651 264.101 74.1429C262.311 74.1206 260.598 74.7771 258.886 75.2555C255.279 76.3025 251.508 76.6629 247.768 76.318C246.759 76.1331 245.721 76.1691 244.727 76.4237C244.115 76.6851 243.573 77.0865 243.145 77.5957C242.716 78.1048 242.413 78.7076 242.259 79.3554C241.403 82.3816 242.865 87.2603 244.333 89.9695C245.8 92.6786 249.886 93.8691 252.816 93.5075Z" fill="black"/>
<path d="M252.816 93.1291C254.356 92.9455 255.895 92.4003 257.413 92.7063C258.792 92.9845 259.965 93.9357 261.343 94.225C264.001 94.7813 266.469 92.8231 268.476 90.9985L272.812 87.0488C273.773 86.1754 274.763 85.2575 275.258 84.0559C275.752 82.8543 275.58 81.2744 274.524 80.5179C272.94 79.4053 270.21 80.5179 269.065 78.938C268.548 78.226 268.626 77.2691 268.359 76.418C267.803 74.7157 265.891 73.7867 264.101 73.7645C262.311 73.7422 260.598 74.3986 258.886 74.8771C255.279 75.9241 251.508 76.2845 247.768 75.9396C246.759 75.7547 245.721 75.7907 244.727 76.0453C244.115 76.3067 243.573 76.7081 243.145 77.2172C242.716 77.7264 242.413 78.3291 242.259 78.977C241.403 82.0032 242.865 86.8819 244.333 89.5911C245.8 92.3002 249.886 93.4629 252.816 93.1291Z" fill="#88455E"/>
<path opacity="0.1" d="M228.739 152.836C228.739 152.836 231.763 153.214 233.275 155.106C234.788 156.997 237.434 157.565 237.434 157.565" fill="black"/>
<path opacity="0.1" d="M201.505 127.853C201.505 127.853 203.973 133.366 202.45 133.922C200.927 134.478 201.505 138.462 201.505 138.462" fill="black"/>
<g opacity="0.1">
<path opacity="0.1" d="M202.356 125.962C202.356 125.962 218.427 122.746 218.983 122.746C221.574 122.746 225.743 119.119 228.128 116.827C228.853 116.132 229.745 115.636 230.718 115.386H230.513C229.727 115.362 228.945 115.494 228.211 115.775C227.477 116.055 226.806 116.479 226.238 117.022C223.853 119.314 219.678 122.941 217.093 122.941C216.643 122.941 206.358 124.983 202.184 125.811L202.356 125.962Z" fill="black"/>
<path opacity="0.1" d="M247.006 111.91V111.203C243.14 113.176 238.98 114.508 234.688 115.147C238.946 114.768 243.111 113.673 247.006 111.91V111.91Z" fill="black"/>
<path opacity="0.1" d="M227.133 185.001C227.133 185.001 224.865 177.619 226.577 173.836C228.29 170.054 230.358 152.642 230.358 152.642L226.211 139.774H218.244L217.761 139.964H224.293L228.434 152.836C228.434 152.836 226.355 170.248 224.654 174.031C222.953 177.814 225.21 185.196 225.21 185.196L240.147 184.64V184.523L227.133 185.001Z" fill="black"/>
</g>
<g opacity="0.1">
<path opacity="0.1" d="M286.887 178.665C286.545 178.96 286.172 179.22 285.776 179.438C283.33 180.79 280.306 179.995 275.719 175.26C271.517 170.905 270.294 164.135 269.966 161.57L269.854 163.528C269.854 163.528 270.41 172.802 275.719 178.287C280.306 183.037 283.33 183.816 285.776 182.465C286.172 182.246 286.545 181.987 286.887 181.691C287.682 181.007 287.727 179.722 287.31 178.12C287.207 178.328 287.063 178.513 286.887 178.665V178.665Z" fill="black"/>
<path opacity="0.1" d="M319.953 136.37L314.599 142.562C314.147 143.084 313.605 143.521 312.998 143.852V143.852C312.221 144.274 311.358 144.512 310.475 144.548C307.389 144.675 302.03 144.714 297.505 143.83C291.362 142.634 286.754 139.897 283.28 141.46C282.883 141.633 282.509 141.855 282.168 142.122C282.168 142.122 279.116 151.657 279.583 158.149C279.944 152.08 282.168 145.148 282.168 145.148C282.509 144.882 282.883 144.659 283.28 144.486C286.76 142.923 291.362 145.66 297.505 146.856C302.03 147.735 307.384 147.696 310.475 147.574C311.358 147.539 312.221 147.301 312.998 146.878C313.603 146.552 314.145 146.121 314.599 145.604L322.832 136.097C322.406 136.363 321.924 136.526 321.425 136.573C320.925 136.62 320.421 136.551 319.953 136.37V136.37Z" fill="black"/>
</g>
<path d="M78.1943 204.51C78.2603 204.574 78.3452 204.616 78.4363 204.628C78.5274 204.64 78.6199 204.622 78.7002 204.577C78.5292 204.58 78.3587 204.558 78.1943 204.51V204.51Z" fill="url(#paint1_linear)"/>
<path d="M134.847 112.36C133.846 112.071 132.417 111.598 130.699 110.997C132.485 108.699 133.791 106.066 134.541 103.254L134.396 103.309C134.446 103.137 134.496 102.97 134.541 102.792C131.244 104.133 127.597 101.863 125.274 98.9479C122.95 96.0329 121.382 92.417 118.836 89.7357C117.775 88.669 116.634 87.6852 115.423 86.7929C114.673 86.2366 113.867 85.608 112.949 85.5802C111.465 85.5357 110.303 86.9932 108.875 87.4215C107.935 87.6332 106.956 87.5968 106.034 87.3158C102.348 86.4702 98.8071 84.9071 95.0436 84.4954C93.0301 84.2465 90.9863 84.4772 89.0787 85.1685C87.1887 85.8861 86.327 87.3158 84.7983 88.4618C83.1305 89.6912 79.8729 89.6634 77.9328 89.8803C75.5785 90.1494 73.2079 90.2479 70.8394 90.1752C69.4783 90.0571 68.1078 90.1075 66.7591 90.3254C63.9406 90.9429 61.6781 93.1847 59.5657 95.332C58.989 95.8178 58.5741 96.4679 58.376 97.1956C58.3489 97.4005 58.3489 97.6082 58.376 97.8131C58.3547 98.3739 58.4513 98.933 58.6595 99.4542C59.3098 101.385 60.2287 103.215 61.389 104.889C62.2507 106.124 63.2569 107.287 63.7461 108.75C63.978 109.469 64.0998 110.219 64.1074 110.975C64.0834 111.777 63.9998 112.577 63.8573 113.367C63.4842 115.551 62.8709 117.687 62.0283 119.737C61.5053 120.789 61.1454 121.914 60.961 123.074C60.9451 123.312 60.9451 123.549 60.961 123.786C60.822 127.458 64.5243 130.1 65.2415 133.75C65.3004 134.052 65.3357 134.359 65.3471 134.668C65.2693 136.943 63.974 139.168 62.0617 140.053C62.2284 140.119 62.4008 140.175 62.5731 140.231C62.4086 140.334 62.2378 140.427 62.0617 140.509C62.4119 140.642 62.7677 140.759 63.129 140.854C60.9557 142.748 59.129 145.007 57.7312 147.529C51.2993 159.512 7.73849 182.982 7.73849 182.982L8.38334 183.349L7.86079 183.688C4.09174 186.197 -4.75273 193.512 3.24121 202.764C3.24121 202.764 9.48403 192.906 13.859 188.706C14.0536 188.517 14.2482 188.344 14.4149 188.183C14.511 188.331 14.5755 188.498 14.6042 188.672C14.6329 188.846 14.6252 189.024 14.5817 189.196L43.222 173.091C43.222 173.091 53.4007 165.959 56.2413 164.351C58.2407 163.105 60.4166 162.167 62.6954 161.57L62.3619 161.709C63.4327 161.414 64.5367 161.257 65.6473 161.242C70.7171 161.32 76.2095 165.036 78.0162 179.75C80.44 199.454 79.317 203.008 78.5387 203.492C78.4428 203.485 78.3478 203.468 78.2552 203.442C78.2793 203.463 78.3053 203.482 78.3331 203.498C78.2276 203.49 78.1233 203.472 78.0217 203.442C78.0777 203.494 78.146 203.53 78.2199 203.547C78.2939 203.565 78.3711 203.563 78.4442 203.542C78.4969 203.558 78.5522 203.563 78.6068 203.556C78.6613 203.55 78.7139 203.532 78.7611 203.503C78.8889 203.511 79.0169 203.511 79.1447 203.503C79.1447 203.685 79.1317 203.871 79.1058 204.06C79.0669 204.06 78.8779 204.165 79.1058 204.177C79.0446 205.289 79.0502 206.496 79.1058 207.759C76.5875 207.898 74.0693 208.048 71.879 208.182L72.0736 207.142L72.1625 206.674C74.0971 206.519 75.9315 205.951 76.1483 204.382C76.6209 200.933 71.8901 199.092 67.8653 198.864C63.8406 198.636 39.7031 200.244 39.7031 200.244C39.7031 200.244 36.0842 204.933 47.5636 206.363C47.9046 206.541 48.2585 206.726 48.6254 206.919C53.1227 209.484 59.221 214.207 62.1451 216.532L62.5509 216.855L61.2389 217.923C68.3379 219.53 75.2033 246.678 78.989 259.088C82.7748 271.499 91.0578 271.049 97.9232 269.207C104.355 267.483 105.15 248.791 105.256 246.444V246.205L116.696 260.346L117.563 261.419C117.897 261.594 118.227 261.757 118.553 261.909C127.214 266.031 136.781 258.126 134.063 249.114C131.311 240.03 127.042 226.595 124.195 220.916C121.811 216.159 118.731 208.26 116.863 203.314C117.105 203.217 117.341 203.104 117.569 202.975C117.569 202.975 117.524 202.752 117.452 202.346L117.569 202.285C117.569 202.285 114.789 187.977 114.667 177.808C114.667 177.63 114.667 177.445 114.667 177.252C114.667 177.141 114.667 177.029 114.667 176.924C116.735 176.451 118.047 176.267 118.047 176.267L118.086 175.822L117.847 175.872L118.998 162.694C118.998 162.694 123.223 153.698 119.987 149.955C119.004 148.86 118.347 147.51 118.092 146.061C117.536 142.617 118.091 136.871 125.624 132.098C137.22 124.738 141.745 118.746 141.745 118.746C141.745 118.746 141.945 114.452 134.847 112.36ZM111.815 121.506V115.414C113.967 115.309 116.162 115.559 118.325 115.414C119.387 115.34 120.438 115.163 121.466 114.886L121.988 115.247C118.825 117.683 115.415 119.78 111.815 121.506V121.506ZM78.9334 216.988C79.784 217.578 80.6401 218.19 81.4795 218.807C82.002 221.811 82.4635 223.931 82.4968 224.081C81.5374 221.608 80.3442 219.233 78.9334 216.988V216.988Z" fill="url(#paint2_linear)"/>
<path d="M97.3125 211.981L96.8122 214.702L96.4286 216.782L95.7281 220.587L88.935 225.344C88.935 225.344 88.3235 224.821 87.3117 223.992C84.5322 221.7 78.6785 217.049 74.3813 214.535C73.2771 213.829 72.082 213.277 70.8291 212.894L97.3125 211.981Z" fill="#FFBDC6"/>
<path opacity="0.1" d="M97.3122 211.981L96.8119 214.702C95.3145 214.785 93.8125 214.709 92.3313 214.474L76.4824 214.702C75.7319 214.657 75.0315 214.596 74.3755 214.529C73.2712 213.824 72.0762 213.272 70.8232 212.888L97.3122 211.981Z" fill="black"/>
<path d="M92.3308 214.029C92.3308 214.029 100.258 215.386 100.708 211.987C101.159 208.588 96.6335 206.797 92.7922 206.541C88.9509 206.285 65.8419 207.909 65.8419 207.909C65.8419 207.909 61.7671 213.344 76.4819 214.251L92.3308 214.029Z" fill="#7679B4"/>
<path opacity="0.1" d="M97.3125 211.981L96.8122 214.702L96.4286 216.782L95.7281 220.587L88.935 225.344C88.935 225.344 88.3235 224.821 87.3117 223.992C84.5322 221.7 78.6785 217.049 74.3813 214.535C73.2771 213.829 72.082 213.277 70.8291 212.894L97.3125 211.981Z" fill="black"/>
<path opacity="0.1" d="M97.3122 211.981L96.8119 214.702C95.3145 214.785 93.8125 214.709 92.3313 214.474L76.4824 214.702C75.7319 214.657 75.0315 214.596 74.3755 214.529C73.2712 213.824 72.0762 213.272 70.8232 212.888L97.3122 211.981Z" fill="black"/>
<path opacity="0.1" d="M92.3308 214.029C92.3308 214.029 100.258 215.386 100.708 211.987C101.159 208.588 96.6335 206.797 92.7922 206.541C88.9509 206.285 65.8419 207.909 65.8419 207.909C65.8419 207.909 61.7671 213.344 76.4819 214.251L92.3308 214.029Z" fill="black"/>
<path d="M109.648 102.319H68.2158V151.484H109.648V102.319Z" fill="#A66477"/>
<path opacity="0.1" d="M109.648 102.319H68.2158V151.484H109.648V102.319Z" fill="black"/>
<path d="M19.6515 186.492C18.9677 186.665 18.1005 187.321 17.1277 188.278C12.9417 192.417 6.97127 202.124 6.97127 202.124C-0.678 193.012 7.78846 185.808 11.4185 183.332C12.2969 182.732 12.8861 182.409 12.8861 182.409L19.6515 186.492Z" fill="#FFBDC6"/>
<path d="M96.8613 117.84C96.8613 117.84 98.9015 132.114 105.917 135.513C112.933 138.912 96.8613 145.254 96.8613 145.254L74.8975 137.099C74.8975 137.099 87.3498 133.021 84.8593 121.011L96.8613 117.84Z" fill="#FFBDC6"/>
<path d="M73.3359 203.709L72.8356 206.43L72.452 208.51L71.7516 212.315L64.9584 217.072C64.9584 217.072 64.3469 216.549 63.3352 215.72C60.5556 213.428 54.7019 208.777 50.4048 206.263C49.3005 205.557 48.1055 205.005 46.8525 204.622L73.3359 203.709Z" fill="#FFBDC6"/>
<path opacity="0.1" d="M73.3356 203.709L72.8353 206.43C71.3379 206.513 69.8359 206.437 68.3547 206.202L52.5058 206.43C51.7553 206.385 51.0549 206.324 50.3989 206.257C49.2946 205.552 48.0996 205 46.8467 204.616L73.3356 203.709Z" fill="black"/>
<path d="M68.3325 205.751C68.3325 205.751 76.2597 207.108 76.71 203.709C77.1603 200.31 72.6352 198.497 68.7828 198.274C64.9303 198.052 41.838 199.632 41.838 199.632C41.838 199.632 37.7632 205.067 52.478 205.974L68.3325 205.751Z" fill="#7679B4"/>
<path opacity="0.1" d="M72.4294 208.516L71.7289 212.321L64.9357 217.077C64.9357 217.077 64.3243 216.554 63.3125 215.725L72.296 208.354L72.4294 208.516Z" fill="black"/>
<path d="M117.253 260.385C116.941 260.233 116.626 260.071 116.307 259.901L115.479 258.844L104.539 244.936V245.181C104.467 247.49 103.677 265.903 97.5289 267.6C90.9637 269.413 83.0365 269.864 79.4175 257.631C75.7986 245.398 69.2277 218.663 62.4346 217.077L72.5076 208.805C72.5076 208.805 79.1785 216.593 81.9024 224.092C81.8024 223.614 77.1939 202.079 80.9963 198.274H114.05C114.05 198.274 119.143 212.816 122.656 220.026C125.38 225.622 129.466 238.851 132.106 247.801C134.719 256.658 125.591 264.446 117.253 260.385Z" fill="#7679B4"/>
<path opacity="0.1" d="M116.33 202.346C111.232 205.367 88.818 204.138 81.5134 203.648L79.5288 203.504C79.312 203.504 79.5622 203.381 79.5622 203.381L79.7679 201.323L85.1991 187.505L114.295 170.638C113.706 172.412 113.506 175.133 113.556 178.253C113.7 188.256 116.33 202.346 116.33 202.346Z" fill="black"/>
<path d="M116.329 201.673C111.232 204.694 88.8174 203.465 81.5128 202.975L79.5282 202.83H79.2002L79.5615 202.736L81.3516 202.263L85.1984 186.854L114.295 169.976C113.705 171.75 113.505 174.47 113.555 177.591C113.7 187.577 116.329 201.673 116.329 201.673Z" fill="#F2F1F2"/>
<path opacity="0.1" d="M113.556 177.569C107.641 178.932 94.6215 182.943 89.6183 192.589C86.2829 199.031 83.5034 201.796 81.5188 202.953L79.5342 202.808L79.5675 202.686L81.3576 202.213L85.2044 186.804L114.301 169.926C113.7 171.75 113.506 174.448 113.556 177.569Z" fill="black"/>
<path opacity="0.1" d="M12.8592 182.415L19.6524 186.492C18.9686 186.665 18.1014 187.321 17.1286 188.278C16.5726 186.609 13.0037 184.317 11.3916 183.338C12.2699 182.737 12.8592 182.415 12.8592 182.415Z" fill="black"/>
<path opacity="0.1" d="M78.3394 203.092C78.2636 203.134 78.1763 203.151 78.0903 203.14C78.0043 203.129 77.924 203.091 77.8613 203.031C78.0168 203.075 78.1779 203.095 78.3394 203.092V203.092Z" fill="black"/>
<path d="M93.6872 134.607C93.6872 134.607 87.5723 135.285 83.2696 130.757C83.2696 130.757 65.1581 135.969 59.0432 147.752C52.9282 159.534 11.2686 182.643 11.2686 182.643C11.2686 182.643 18.4953 186.72 17.8338 188.762L45.2289 172.902C45.2289 172.902 54.9628 165.876 57.6812 164.29C60.3996 162.705 75.3423 152.964 78.511 179.472C81.6797 205.979 78.511 202.836 78.511 202.836C78.511 202.836 83.0416 204.422 89.6291 191.71C96.2166 178.999 116.574 176.078 116.574 176.078L117.686 162.727C117.686 162.727 121.727 153.871 118.631 150.177C117.687 149.09 117.06 147.764 116.819 146.344C116.302 142.951 116.819 137.293 124.045 132.593C135.163 125.361 139.444 119.453 139.444 119.453C139.444 119.453 139.672 115.147 132.879 113.111C126.085 111.075 98.4625 99.9717 98.4625 99.9717L97.5564 103.821L119.292 119.231C119.292 119.231 108.424 128.065 99.8356 127.842C99.8022 127.803 101.387 134.379 93.6872 134.607Z" fill="#565388"/>
<path opacity="0.1" d="M97.8846 124.054C97.3493 122.228 96.9315 120.37 96.6338 118.491L84.6318 121.684C85.1572 123.976 85.0632 126.366 84.3594 128.61C86.8122 129.265 89.4036 129.181 91.8093 128.37C94.215 127.558 96.3282 126.055 97.8846 124.048V124.054Z" fill="black"/>
<path d="M87.9169 128.376C95.0459 128.376 100.825 122.593 100.825 115.459C100.825 108.325 95.0459 102.542 87.9169 102.542C80.788 102.542 75.0088 108.325 75.0088 115.459C75.0088 122.593 80.788 128.376 87.9169 128.376Z" fill="#FFBDC6"/>
<path opacity="0.1" d="M94.7771 86.0809C98.3572 86.487 101.765 88.028 105.289 88.8624C106.17 89.1388 107.108 89.1753 108.008 88.9681C109.375 88.5453 110.487 87.1101 111.899 87.1546C112.772 87.1546 113.567 87.7776 114.267 88.3506C115.428 89.2316 116.519 90.2005 117.53 91.2489C119.96 93.8913 121.472 97.4516 123.69 100.322C125.908 103.193 129.405 105.429 132.557 104.11C130.416 112.455 123.39 118.836 115.796 119.353C112.766 119.559 109.681 118.93 106.729 119.82C105.998 120.119 105.226 120.306 104.439 120.376C102.771 120.376 101.392 118.824 100.336 117.317C97.868 113.768 95.8889 109.74 93.1094 106.508C92.1922 105.44 91.1081 104.422 89.8129 104.227C88.5176 104.033 87.3224 104.65 86.1661 105.251C84.2594 106.241 82.3081 107.265 80.8294 108.956C79.3507 110.647 78.4168 113.178 79.0283 115.47C79.3563 116.705 80.1123 117.818 80.1401 119.114C80.1401 121.172 78.3501 122.68 77.9887 124.677C77.9091 125.52 77.8794 126.367 77.8998 127.213C77.7386 129.961 75.9486 132.22 74.0696 133.939C73.3414 134.612 72.5297 135.33 72.3185 136.37C72.174 137.076 72.3185 137.827 72.224 138.545C71.9516 140.331 70.1727 141.232 68.5995 141.466C66.7621 141.735 64.8861 141.512 63.1627 140.82C65.3863 139.78 66.715 136.815 66.2035 134.145C65.5031 130.468 61.8119 127.831 62.1232 124.081C62.2973 122.933 62.642 121.818 63.146 120.771C63.9516 118.749 64.5368 116.645 64.8916 114.496C65.2553 112.843 65.2191 111.126 64.786 109.49C64.3134 108.049 63.3517 106.903 62.529 105.685C61.4148 104.028 60.5355 102.226 59.9162 100.328C59.6918 99.7667 59.606 99.1598 59.6661 98.5586C59.8453 97.8494 60.2325 97.21 60.7779 96.7228C62.8014 94.6034 64.9694 92.3949 67.66 91.7829C68.9456 91.5686 70.2531 91.5182 71.5513 91.6327C73.8179 91.7049 76.0867 91.6082 78.339 91.3435C80.1957 91.1265 83.3421 91.1543 84.9098 89.9416C86.3718 88.829 87.2001 87.4105 89.0068 86.6984C90.8507 86.0229 92.8322 85.8109 94.7771 86.0809V86.0809Z" fill="black"/>
<path opacity="0.1" d="M101.954 219.458C101.954 219.458 109.425 234.183 107.163 238.717Z" fill="black"/>
<path opacity="0.1" d="M115.502 258.844L104.561 244.936V245.181C104.561 245.181 103.928 240.686 106.012 242.199C110.576 245.504 117.881 250.922 118.036 251.857C118.192 252.791 116.558 256.541 115.502 258.844Z" fill="black"/>
<g opacity="0.1">
<path opacity="0.1" d="M100.019 127.803C100.019 127.803 100.942 131.63 97.957 133.544C102.554 132.754 102.755 129.177 102.616 127.619C101.757 127.758 100.889 127.82 100.019 127.803V127.803Z" fill="black"/>
<path opacity="0.1" d="M13.9931 181.736C13.9931 181.736 55.6527 158.627 61.7677 146.845C66.1538 138.389 76.7216 133.321 82.3362 131.13C78.2392 132.504 64.4527 137.772 59.2717 147.752C53.1567 159.534 11.4971 182.643 11.4971 182.643L13.9931 181.736Z" fill="black"/>
<path opacity="0.1" d="M108.125 126.006C115.213 123.781 121.989 118.29 121.989 118.29L100.253 102.881L100.748 100.767L98.6688 99.9326L97.7627 103.782L119.499 119.192C116.011 121.935 112.189 124.225 108.125 126.006V126.006Z" fill="black"/>
<path opacity="0.1" d="M108.264 178.22C111.041 177.271 113.891 176.551 116.786 176.067L116.825 175.628C113.908 176.269 111.046 177.135 108.264 178.22V178.22Z" fill="black"/>
<path opacity="0.1" d="M81.9196 201.957H81.7194C81.6437 201.999 81.5564 202.016 81.4704 202.005C81.3843 201.994 81.3041 201.956 81.2414 201.896C81.3969 201.939 81.558 201.96 81.7194 201.957C82.4644 201.523 83.5817 198.141 81.2414 178.559C78.7398 157.654 68.9225 159.295 63.5469 161.698C69.0392 160.185 76.5996 161.492 78.7509 179.466C81.0913 199.048 79.9739 202.435 79.229 202.864C80.1945 202.828 81.129 202.513 81.9196 201.957Z" fill="black"/>
<path opacity="0.1" d="M79.2281 202.869C79.0666 202.872 78.9056 202.852 78.75 202.808C78.8127 202.868 78.8929 202.906 78.979 202.917C79.065 202.928 79.1523 202.912 79.2281 202.869V202.869Z" fill="black"/>
</g>
<path d="M94.7771 85.6415C98.3572 86.0476 101.765 87.5885 105.289 88.4229C106.17 88.6993 107.108 88.7358 108.008 88.5286C109.375 88.1058 110.487 86.6706 111.899 86.7151C112.772 86.7151 113.567 87.3382 114.267 87.9112C115.428 88.7921 116.519 89.7611 117.53 90.8094C119.96 93.4518 121.472 97.0121 123.69 99.8826C125.908 102.753 129.405 104.989 132.557 103.671C130.416 112.015 123.39 118.396 115.796 118.913C112.766 119.119 109.681 118.491 106.729 119.381C105.998 119.679 105.226 119.867 104.439 119.937C102.771 119.937 101.392 118.385 100.336 116.877C97.868 113.328 95.8889 109.301 93.1094 106.069C92.1922 105.001 91.1081 103.982 89.8129 103.788C88.5176 103.593 87.3224 104.211 86.1661 104.811C84.2594 105.802 82.3081 106.825 80.8294 108.516C79.3507 110.207 78.4168 112.739 79.0283 115.031C79.3563 116.265 80.1123 117.378 80.1401 118.674C80.1401 120.733 78.3501 122.24 77.9887 124.237C77.9091 125.08 77.8794 125.927 77.8998 126.774C77.7386 129.522 75.9486 131.781 74.0696 133.499C73.3414 134.173 72.5297 134.89 72.3185 135.93C72.174 136.637 72.3185 137.388 72.224 138.106C71.9516 139.891 70.1727 140.792 68.5995 141.026C66.7621 141.296 64.8861 141.073 63.1627 140.381C65.3863 139.341 66.715 136.376 66.2035 133.705C65.5031 130.028 61.8119 127.391 62.1232 123.642C62.2973 122.494 62.642 121.378 63.146 120.332C63.9516 118.309 64.5368 116.205 64.8916 114.057C65.2553 112.404 65.2191 110.687 64.786 109.05C64.3134 107.61 63.3517 106.464 62.529 105.245C61.4148 103.589 60.5355 101.786 59.9162 99.8882C59.6918 99.3272 59.606 98.7204 59.6661 98.1192C59.8453 97.4099 60.2325 96.7706 60.7779 96.2834C62.8014 94.1639 64.9694 91.9554 67.66 91.3435C68.9456 91.1292 70.2531 91.0787 71.5513 91.1933C73.8179 91.2655 76.0867 91.1688 78.339 90.904C80.1957 90.6871 83.3421 90.7149 84.9098 89.5021C86.3718 88.3896 87.2001 86.971 89.0068 86.259C90.8507 85.5834 92.8322 85.3714 94.7771 85.6415V85.6415Z" fill="#A66477"/>
<path d="M463.36 56.6474C463.36 56.5751 463.36 56.5084 463.36 56.4416C463.36 56.3749 463.36 56.297 463.326 56.2302H463.237C463.237 56.08 463.237 55.9298 463.237 55.7685C463.015 50.6116 455.888 39.636 453.031 42.8402C450.529 45.6551 454.304 52.7756 456.227 55.9799L456.4 56.2692L456.305 56.208C456.305 56.208 448.35 79.9506 447.411 80.8741C446.471 81.7975 439.923 100.467 431.289 102.57C429.583 102.976 428.165 103.343 426.976 103.682L427.07 103.365C427.626 101.546 428.31 99.827 428.588 97.8021C428.866 95.7772 428.588 93.3239 427.565 92.3393C427.065 91.8498 426.453 91.783 426.042 91.0042C425.775 90.3211 425.632 89.5958 425.619 88.8625L424.885 79.8616L425.397 79.7059C428.488 78.7157 431.484 76.3681 431.834 73.2083C431.727 73.2492 431.617 73.2845 431.506 73.314C431.547 73.1303 431.579 72.9446 431.601 72.7577C429.005 73.7813 426.598 71.0889 424.096 69.8817C419.977 67.8623 415.268 69.7649 411.016 70.2266C406.196 70.7551 401.621 68.7524 396.695 69.114C394.016 69.3198 391.036 71.1389 391.181 73.7813C391.264 75.2332 392.293 76.4626 392.715 77.8534C393.782 81.219 391.409 84.5957 389.33 87.4662C387.962 89.352 386.65 91.6495 386.417 93.8635C381.63 88.8569 376.455 83.0714 375.854 80.8963L362.007 57.1537C362.007 57.1537 361.679 57.5041 361.151 58.0215C361.067 57.7656 360.967 57.4652 360.856 57.1648C359.088 52.2082 354.085 40.1978 347.742 42.4007C341.399 44.6037 350.372 56.9145 354.274 61.821L354.83 62.4997C354.503 62.5801 354.159 62.5647 353.841 62.4552L369.284 88.9626C369.284 88.9626 372.091 94.036 374.665 95.4156C374.665 95.4156 393.849 119.62 394.083 124.46C394.316 129.3 402.71 142.211 402.71 142.211C402.71 142.211 405.518 163.189 400.603 166.877H400.665H400.704H400.765H400.82H400.931H401.004H401.076H401.17H401.248H401.359H401.415C401.182 167.105 400.943 167.356 400.698 167.628C397.057 171.667 392.404 180.323 398.763 195.042C408.119 216.738 409.526 225.238 409.526 225.238C409.526 225.238 391.737 226.162 388.235 226.851C385.133 227.463 373.075 227.892 370.318 227.964C369.334 226.818 366.426 224.281 362.502 227.964C357.587 232.576 354.08 247.991 354.08 247.991C354.08 247.991 352.206 260.44 358.527 257.208C358.527 257.208 366.015 246.833 368.116 246.372C369.161 246.144 370.268 244.603 371.113 243.117L371.157 243.145C371.207 243.145 371.413 243.034 371.746 242.9C373.303 242.283 377.589 240.798 380.969 241.538C382.82 241.944 390.758 242.038 399.08 242.016C397.201 246.522 393.833 258.148 393.833 258.148C393.833 258.148 392.426 268.991 397.096 268.546C400.431 268.217 405.545 259.689 408.214 254.822C410.148 253.403 415.691 248.319 419.788 248.703L447.394 238.1C447.394 238.1 453.943 234.411 450.435 222.195C447.655 212.482 439.745 192.6 436.621 184.851L436.526 184.651C435.77 182.776 435.314 181.664 435.314 181.664C434.031 178.126 433.189 174.443 432.807 170.699C432.779 170.404 432.757 170.104 432.735 169.809C433.122 169.646 433.486 169.435 433.819 169.18C433.819 169.18 431.245 143.135 433.819 140.364L433.863 140.314V140.281L433.908 140.225L434.008 140.097L434.13 139.941C434.269 139.758 434.436 139.53 434.625 139.252C436.098 137.093 438.844 132.164 438.055 126.346C438.022 126.093 437.981 125.839 437.933 125.583C437.63 124.005 437.09 122.482 436.332 121.066C436.22 120.477 436.152 119.88 436.126 119.281C436.126 118.941 436.126 118.569 436.126 118.168V118.101C436.126 117.994 436.126 117.886 436.126 117.779V117.701C436.126 117.439 436.17 117.144 436.209 116.9V116.8C436.209 116.699 436.226 116.597 436.259 116.494V116.366C436.259 116.266 436.304 116.165 436.326 116.065V115.96C436.359 115.826 436.393 115.693 436.437 115.559V115.492C436.471 115.381 436.508 115.272 436.548 115.164L436.598 115.036L436.71 114.769L436.765 114.636C436.81 114.535 436.86 114.435 436.91 114.335L436.949 114.252C437.015 114.129 437.086 114.009 437.16 113.89L437.221 113.796L437.404 113.534L437.493 113.417L437.688 113.184L437.777 113.084C437.877 112.978 437.977 112.872 438.088 112.772C441.129 109.991 454.699 89.4911 454.699 89.4911C454.699 89.4911 457.973 84.8794 457.973 81.8865C458.156 81.8198 463.943 62.5163 463.36 56.6474ZM426.931 228.96C426.598 225.8 426.264 221.884 425.958 217.834L431.251 226.089C431.251 226.089 430.75 228.604 426.931 228.96Z" fill="url(#paint3_linear)"/>
<path d="M371.752 227.213C371.752 227.213 368.583 222.206 363.824 226.762C359.066 231.318 355.675 246.472 355.675 246.472C355.675 246.472 353.863 258.71 359.978 255.534C359.978 255.534 367.204 245.337 369.261 244.886C371.318 244.436 373.564 238.767 373.564 238.767L371.752 227.213Z" fill="#493545"/>
<path d="M405.712 239.446C405.712 239.446 401.41 237.404 400.053 238.995C398.697 240.586 394.166 256.441 394.166 256.441C394.166 256.441 392.81 266.866 397.335 266.409C401.86 265.953 409.787 249.632 409.787 249.632L405.712 239.446Z" fill="#493545"/>
<path opacity="0.05" d="M405.712 239.446C405.712 239.446 401.41 237.404 400.053 238.995C398.697 240.586 394.166 256.441 394.166 256.441C394.166 256.441 392.81 266.866 397.335 266.409C401.86 265.953 409.787 249.632 409.787 249.632L405.712 239.446Z" fill="black"/>
<path d="M420.655 208.633L430.389 223.814C430.389 223.814 429.711 227.213 423.824 226.534L403.672 239.223C403.672 239.223 401.921 254.672 407.519 253.27C408.425 253.042 414.746 246.472 419.293 246.928L446.016 236.503C446.016 236.503 452.353 232.876 448.957 220.871C445.56 208.866 434.331 181.029 434.331 181.029L416.581 190.965L420.655 208.633Z" fill="#3E3D77"/>
<path opacity="0.05" d="M420.655 208.633L430.389 223.814C430.389 223.814 429.711 227.213 423.824 226.534L403.672 239.223C403.672 239.223 401.921 254.672 407.519 253.27C408.425 253.042 414.746 246.472 419.293 246.928L446.016 236.503C446.016 236.503 452.353 232.876 448.957 220.871C445.56 208.866 434.331 181.029 434.331 181.029L416.581 190.965L420.655 208.633Z" fill="black"/>
<path d="M426.77 231.062C428.126 239.674 420.433 240.353 420.433 240.353C420.433 240.353 385.788 241.031 381.714 240.124C377.639 239.218 372.202 241.71 372.202 241.71C365.181 237.404 370.846 226.757 370.846 226.757C370.846 226.757 385.338 226.306 388.735 225.644C392.131 224.982 409.337 224.042 409.337 224.042C409.337 224.042 407.98 215.659 398.919 194.364C392.765 179.9 397.251 171.389 400.792 167.422C401.696 166.37 402.742 165.449 403.9 164.685L431.751 166.043C431.721 167.448 431.773 168.854 431.907 170.254C432.383 175.059 433.631 179.755 435.603 184.161C434.019 184.161 423.829 193.679 423.829 193.679C423.829 193.679 425.408 222.457 426.77 231.062Z" fill="#3E3D77"/>
<path opacity="0.1" d="M372.881 227.664C372.881 227.664 387.373 227.213 390.77 226.551C394.167 225.889 411.372 224.966 411.372 224.966C411.372 224.966 410.015 216.582 400.954 195.287C394.8 180.824 399.286 172.312 402.828 168.346C403.731 167.293 404.777 166.372 405.935 165.609L431.74 166.866C431.74 166.599 431.74 166.31 431.74 166.06L403.889 164.702C402.731 165.465 401.685 166.387 400.782 167.439C397.257 171.411 392.754 179.917 398.908 194.38C407.992 215.659 409.337 224.042 409.337 224.042C409.337 224.042 392.104 224.949 388.735 225.628C385.367 226.306 370.846 226.74 370.846 226.74C370.846 226.74 365.187 237.393 372.203 241.716C372.203 241.716 372.414 241.615 372.759 241.471C368.094 236.67 372.881 227.664 372.881 227.664Z" fill="black"/>
<path d="M414.312 81.5249H400.275V117.094H414.312V81.5249Z" fill="#493545"/>
<path opacity="0.1" d="M414.312 81.5249H400.275V117.094H414.312V81.5249Z" fill="black"/>
<path d="M422.34 76.3068C422.823 76.4403 423.368 76.457 423.696 77.1245C423.9 77.658 424.011 78.2225 424.024 78.7934L424.908 89.7858C424.921 90.5055 425.06 91.2173 425.319 91.8886C425.692 92.634 426.309 92.723 426.793 93.2014C427.765 94.1694 428.049 96.5948 427.782 98.5697C427.515 100.545 426.843 102.236 426.315 104.021C425.558 106.58 425.058 109.456 423.996 111.615C422.935 113.773 421.006 114.953 419.76 113.139C418.515 111.326 418.682 107.665 418.448 104.667C418.059 99.66 416.108 95.3432 415.975 90.3031C415.863 86.2255 416.959 82.4204 417.642 78.5542C418.132 75.9007 418.159 72.6797 418.871 70.2932C419.466 73.1303 420.6 75.8283 422.34 76.3068Z" fill="#493545"/>
<path opacity="0.1" d="M422.34 76.3068C422.823 76.4403 423.368 76.457 423.696 77.1245C423.9 77.658 424.011 78.2225 424.024 78.7934L424.908 89.7858C424.921 90.5055 425.06 91.2173 425.319 91.8886C425.692 92.634 426.309 92.723 426.793 93.2014C427.765 94.1694 428.049 96.5948 427.782 98.5697C427.515 100.545 426.843 102.236 426.315 104.021C425.558 106.58 425.058 109.456 423.996 111.615C422.935 113.773 421.006 114.953 419.76 113.139C418.515 111.326 418.682 107.665 418.448 104.667C418.059 99.66 416.108 95.3432 415.975 90.3031C415.863 86.2255 416.959 82.4204 417.642 78.5542C418.132 75.9007 418.159 72.6797 418.871 70.2932C419.466 73.1303 420.6 75.8283 422.34 76.3068Z" fill="black"/>
<path d="M362.919 60.6805L357.488 65.2144C357.488 65.2144 356.843 64.4578 355.881 63.2339C352.107 58.4109 343.429 46.3114 349.561 44.1475C355.692 41.9835 360.54 53.7825 362.252 58.6556C362.686 59.8906 362.919 60.6805 362.919 60.6805Z" fill="#C77485"/>
<path d="M460.958 59.0951C458.696 62.494 455.527 59.0951 455.527 59.0951C455.527 59.0951 455.121 58.4887 454.549 57.5096C452.687 54.3554 449.034 47.3628 451.452 44.5925C454.232 41.4271 461.12 52.2304 461.331 57.2982C461.396 57.9213 461.266 58.5494 460.958 59.0951V59.0951Z" fill="#C77485"/>
<path d="M405.256 95.7994C405.256 95.7994 409.787 110.302 408.425 114.602C407.063 118.902 418.164 123.909 418.164 123.909H430.844C430.844 123.909 435.375 114.619 434.241 111.899C433.107 109.178 423.373 107.142 423.373 107.142C423.373 107.142 417.714 107.142 417.942 91.9609L405.256 95.7994Z" fill="#C77485"/>
<path opacity="0.1" d="M362.919 60.6804L357.487 65.2142C357.487 65.2142 356.843 64.4577 355.881 63.2338C357.854 62.8834 360.917 60.0018 362.257 58.6555C362.685 59.8905 362.919 60.6804 362.919 60.6804Z" fill="black"/>
<path opacity="0.1" d="M460.958 59.095C458.696 62.494 455.527 59.095 455.527 59.095C455.527 59.095 455.121 58.4887 454.549 57.5096L454.621 57.2815C456.089 58.3329 460.653 57.4373 461.331 57.2815C461.4 57.9101 461.27 58.5446 460.958 59.095V59.095Z" fill="black"/>
<path opacity="0.1" d="M431.895 170.248C424.891 173.447 402.132 167.751 400.765 167.411C401.668 166.359 402.714 165.438 403.872 164.674L431.723 166.032C431.698 167.439 431.756 168.847 431.895 170.248V170.248Z" fill="black"/>
<path d="M408.202 108.26C408.202 108.26 402.771 110.074 395.072 103.048C395.072 103.048 377.839 86.0531 376.727 81.9755L363.385 58.6111C363.385 58.6111 357.726 64.7303 355.458 63.8236L370.401 89.8804C370.401 89.8804 373.119 94.8871 375.61 96.2222C375.61 96.2222 394.177 120.015 394.399 124.771C394.622 129.528 402.766 142.267 402.766 142.267C402.766 142.267 405.484 162.883 400.725 166.51C400.725 166.51 427.214 173.308 432.874 168.774C432.874 168.774 430.383 143.185 432.874 140.453C432.874 140.453 440.573 131.391 435.364 121.422C435.364 121.422 434.252 115.987 437.176 113.267C440.1 110.547 453.253 90.3811 453.253 90.3811C453.253 90.3811 456.422 85.8473 456.422 82.9045C456.422 82.9045 462.309 62.9669 461.425 57.7544C461.425 57.7544 456.216 58.867 454.632 57.7544C454.632 57.7544 446.932 81.1188 446.026 81.9977C445.12 82.8767 438.8 101.257 430.405 103.298C422.011 105.34 420.671 106.241 420.671 106.241C420.671 106.241 436.971 116.438 429.049 120.966C421.127 125.494 408.202 108.26 408.202 108.26Z" fill="#FFAAC4"/>
<path opacity="0.1" d="M418.493 99.2874C418.224 97.1531 418.114 95.0017 418.165 92.8511L405.484 96.7006C405.818 97.5459 406.084 98.4165 406.279 99.3041C407.73 99.9438 409.687 101.457 411.371 101.457C413.919 101.54 416.423 100.777 418.493 99.2874V99.2874Z" fill="black"/>
<path d="M411.143 100.784C417.646 100.784 422.917 95.5088 422.917 89.0016C422.917 82.4944 417.646 77.2192 411.143 77.2192C404.641 77.2192 399.369 82.4944 399.369 89.0016C399.369 95.5088 404.641 100.784 411.143 100.784Z" fill="#C77485"/>
<path opacity="0.1" d="M397.134 70.8497C394.544 71.05 391.653 72.8412 391.798 75.4391C391.876 76.8688 392.854 78.076 393.282 79.4444C394.31 82.7544 392.02 86.0755 390.008 88.9015C387.995 91.7274 386.116 95.4713 387.84 98.4642C388.331 99.1847 388.862 99.8774 389.43 100.539C391.559 103.415 391.531 107.298 392.476 110.753C393.683 115.172 396.536 118.961 400.448 121.341C404.361 123.721 409.035 124.51 413.511 123.547C411.826 121.395 410.986 118.7 411.149 115.971C411.277 113.99 411.916 111.921 411.149 110.091C410.159 107.738 407.258 106.809 405.762 104.75C404.267 102.692 404.367 99.8382 405.089 97.3849C405.812 94.9317 407.063 92.6564 407.663 90.1531C407.812 89.4227 407.997 88.7005 408.219 87.9891C409.264 85.0185 412.389 83.294 415.446 82.5541C418.503 81.8143 421.717 81.7698 424.702 80.7962C427.687 79.8227 430.589 77.5419 430.934 74.41C428.421 75.4169 426.092 72.7912 423.668 71.584C419.676 69.6036 415.124 71.4672 411.01 71.9233C406.324 72.4463 401.876 70.5048 397.134 70.8497Z" fill="black"/>
<path d="M396.907 70.399C394.316 70.5993 391.426 72.3905 391.57 74.9884C391.648 76.4181 392.626 77.6253 393.054 78.9938C394.083 82.3037 391.793 85.6248 389.78 88.4508C387.768 91.2768 385.889 95.0206 387.612 98.0135C388.103 98.734 388.634 99.4267 389.202 100.088C391.331 102.964 391.303 106.847 392.248 110.302C393.455 114.722 396.308 118.511 400.221 120.89C404.133 123.27 408.808 124.06 413.284 123.097C411.599 120.944 410.759 118.25 410.921 115.52C411.049 113.54 411.688 111.47 410.921 109.64C409.932 107.287 407.03 106.358 405.535 104.3C404.039 102.241 404.139 99.3875 404.862 96.9343C405.585 94.481 406.835 92.2058 407.436 89.7024C407.584 88.9721 407.77 88.2498 407.992 87.5384C409.037 84.5678 412.161 82.8433 415.218 82.1035C418.276 81.3636 421.489 81.3191 424.474 80.3456C427.46 79.372 430.361 77.0912 430.706 73.9593C428.193 74.9662 425.864 72.3405 423.44 71.1333C419.449 69.1529 414.896 71.0165 410.782 71.4727C406.107 71.99 401.677 70.0263 396.907 70.399Z" fill="#493545"/>
<path opacity="0.1" d="M422.807 115.175C422.807 115.175 427.521 119.386 428.449 121.244Z" fill="black"/>
<path opacity="0.1" d="M433.007 140.325C433.007 140.325 427.12 140.325 424.402 141.004C421.683 141.683 415.118 141.004 415.118 141.004" fill="black"/>
<g opacity="0.1">
<path opacity="0.1" d="M429.033 120.949C428.525 121.24 427.976 121.45 427.404 121.573C428.881 121.9 430.426 121.679 431.751 120.949C439.678 116.416 423.374 106.224 423.374 106.224H420.655C420.655 106.224 436.96 116.421 429.033 120.949Z" fill="black"/>
<path opacity="0.1" d="M461.465 58.1494C461.465 58.0048 461.432 57.8657 461.409 57.7378C460.478 57.9309 459.537 58.0739 458.591 58.1661C459.546 58.2713 460.511 58.2657 461.465 58.1494V58.1494Z" fill="black"/>
<path opacity="0.1" d="M403.45 166.493C408.203 162.866 405.49 142.25 405.49 142.25C405.49 142.25 397.341 129.561 397.113 124.805C396.885 120.048 378.323 96.2555 378.323 96.2555C375.833 94.8982 373.114 89.9138 373.114 89.9138C373.114 89.9138 357.716 64.7637 355.453 63.8569L370.396 89.9138C370.396 89.9138 373.114 94.9204 375.605 96.2555C375.605 96.2555 394.172 120.048 394.394 124.805C394.617 129.561 402.766 142.267 402.766 142.267C402.766 142.267 405.485 162.883 400.726 166.51C400.726 166.51 417.009 170.688 426.77 170.309C416.986 169.965 403.45 166.493 403.45 166.493Z" fill="black"/>
<path opacity="0.1" d="M408.336 108.439L408.203 108.266C408.048 108.312 407.89 108.347 407.73 108.372C407.942 108.4 408.142 108.422 408.336 108.439Z" fill="black"/>
</g>
<g opacity="0.1">
<path opacity="0.1" d="M461.409 57.71L461.27 57.7378C461.031 64.697 456.206 81.0465 456.206 81.0465C456.206 83.9893 453.037 88.5231 453.037 88.5231C453.037 88.5231 439.907 108.689 436.96 111.409C434.014 114.129 435.148 119.564 435.148 119.564L435.176 119.62C435.087 117.79 435.309 114.953 437.183 113.217C440.124 110.497 453.26 90.3311 453.26 90.3311C453.26 90.3311 456.428 85.7973 456.428 82.8545C456.428 82.8879 462.315 62.9503 461.409 57.71Z" fill="black"/>
<path opacity="0.1" d="M432.657 138.623C432.996 140.548 432.768 138.512 432.885 140.437C432.885 140.437 438.444 133.911 436.927 125.845C437.382 133.055 432.657 138.623 432.657 138.623Z" fill="black"/>
</g>
<path opacity="0.1" d="M261.171 367.989C392.474 367.989 498.916 357.757 498.916 345.136C498.916 332.515 392.474 322.284 261.171 322.284C129.869 322.284 23.4268 332.515 23.4268 345.136C23.4268 357.757 129.869 367.989 261.171 367.989Z" fill="#FBF2F2"/>
<path d="M169.013 321.95C169.013 321.95 160.919 294.441 170.53 274.198C174.618 265.731 175.851 256.166 174.044 246.939C173.151 242.565 171.86 238.282 170.186 234.144" stroke="#535461" stroke-width="2" stroke-miterlimit="10"/>
<path d="M176.178 221.361C176.178 224.732 170.063 234.506 170.063 234.506C170.063 234.506 163.948 224.732 163.948 221.361C163.886 220.521 163.998 219.678 164.276 218.884C164.555 218.09 164.994 217.362 165.566 216.745C166.138 216.128 166.832 215.636 167.603 215.3C168.374 214.963 169.206 214.79 170.047 214.79C170.888 214.79 171.72 214.963 172.491 215.3C173.262 215.636 173.955 216.128 174.527 216.745C175.1 217.362 175.539 218.09 175.817 218.884C176.095 219.678 176.207 220.521 176.145 221.361H176.178Z" fill="#6C63FF"/>
<path d="M186.246 240.03C184.417 242.861 173.988 247.746 173.988 247.746C173.988 247.746 174.177 236.225 176.006 233.393C176.412 232.658 176.964 232.014 177.629 231.502C178.294 230.99 179.058 230.62 179.872 230.416C180.685 230.212 181.533 230.177 182.361 230.315C183.188 230.452 183.979 230.759 184.683 231.215C185.388 231.672 185.991 232.268 186.454 232.968C186.918 233.668 187.234 234.456 187.38 235.282C187.527 236.109 187.502 236.957 187.307 237.774C187.111 238.591 186.75 239.359 186.246 240.03V240.03Z" fill="#6C63FF"/>
<path d="M185.807 271.945C182.8 273.463 171.354 272.412 171.354 272.412C171.354 272.412 177.33 262.56 180.337 261.041C181.058 260.608 181.86 260.328 182.694 260.22C183.528 260.111 184.375 260.175 185.183 260.409C185.991 260.643 186.742 261.041 187.389 261.578C188.036 262.115 188.566 262.781 188.945 263.532C189.323 264.283 189.543 265.105 189.59 265.945C189.637 266.785 189.511 267.626 189.218 268.415C188.926 269.204 188.474 269.924 187.891 270.53C187.308 271.137 186.606 271.616 185.829 271.939L185.807 271.945Z" fill="#6C63FF"/>
<path d="M180.042 296.01C177.335 298.013 165.85 298.919 165.85 298.919C165.85 298.919 170.074 288.199 172.787 286.191C174.093 285.397 175.648 285.121 177.147 285.417C178.645 285.713 179.979 286.56 180.885 287.79C181.792 289.021 182.205 290.547 182.044 292.067C181.882 293.587 181.158 294.992 180.014 296.004L180.042 296.01Z" fill="#6C63FF"/>
<path d="M161.17 248.402C163.588 250.75 174.845 253.186 174.845 253.186C174.845 253.186 172.065 241.999 169.669 239.646C169.11 239.019 168.428 238.514 167.665 238.162C166.903 237.81 166.076 237.62 165.236 237.602C164.396 237.584 163.562 237.739 162.785 238.058C162.008 238.377 161.305 238.853 160.72 239.456C160.135 240.059 159.68 240.776 159.384 241.562C159.088 242.349 158.957 243.188 158.999 244.027C159.041 244.866 159.256 245.688 159.629 246.441C160.002 247.193 160.527 247.861 161.17 248.402Z" fill="#6C63FF"/>
<path d="M154.793 276.64C157.801 278.158 169.247 277.107 169.247 277.107C169.247 277.107 163.293 267.255 160.286 265.764C158.86 265.172 157.263 265.141 155.815 265.678C154.368 266.215 153.177 267.281 152.481 268.66C151.786 270.04 151.638 271.631 152.067 273.115C152.496 274.6 153.47 275.867 154.793 276.662V276.64Z" fill="#6C63FF"/>
<path d="M152.347 304.933C155.055 306.936 166.54 307.842 166.54 307.842C166.54 307.842 162.315 297.123 159.602 295.114C158.966 294.551 158.22 294.127 157.411 293.869C156.603 293.61 155.749 293.523 154.905 293.613C154.061 293.702 153.245 293.967 152.508 294.39C151.772 294.812 151.132 295.384 150.628 296.068C150.124 296.751 149.768 297.533 149.583 298.362C149.398 299.191 149.387 300.049 149.551 300.883C149.716 301.716 150.052 302.506 150.538 303.202C151.024 303.899 151.65 304.486 152.375 304.927L152.347 304.933Z" fill="#6C63FF"/>
<path opacity="0.1" d="M176.178 221.361C176.178 224.732 170.063 234.506 170.063 234.506C170.063 234.506 163.948 224.732 163.948 221.361C163.886 220.521 163.998 219.678 164.276 218.884C164.555 218.09 164.994 217.362 165.566 216.745C166.138 216.128 166.832 215.636 167.603 215.3C168.374 214.963 169.206 214.79 170.047 214.79C170.888 214.79 171.72 214.963 172.491 215.3C173.262 215.636 173.955 216.128 174.527 216.745C175.1 217.362 175.539 218.09 175.817 218.884C176.095 219.678 176.207 220.521 176.145 221.361H176.178Z" fill="#6C63FF"/>
<path opacity="0.1" d="M186.246 240.03C184.417 242.861 173.988 247.746 173.988 247.746C173.988 247.746 174.177 236.225 176.006 233.393C176.412 232.658 176.964 232.014 177.629 231.502C178.294 230.99 179.058 230.62 179.872 230.416C180.685 230.212 181.533 230.177 182.361 230.315C183.188 230.452 183.979 230.759 184.683 231.215C185.388 231.672 185.991 232.268 186.454 232.968C186.918 233.668 187.234 234.456 187.38 235.282C187.527 236.109 187.502 236.957 187.307 237.774C187.111 238.591 186.75 239.359 186.246 240.03V240.03Z" fill="#6C63FF"/>
<path opacity="0.1" d="M185.807 271.945C182.8 273.463 171.354 272.412 171.354 272.412C171.354 272.412 177.33 262.56 180.337 261.041C181.058 260.608 181.86 260.328 182.694 260.22C183.528 260.111 184.375 260.175 185.183 260.409C185.991 260.643 186.742 261.041 187.389 261.578C188.036 262.115 188.566 262.781 188.945 263.532C189.323 264.283 189.543 265.105 189.59 265.945C189.637 266.785 189.511 267.626 189.218 268.415C188.926 269.204 188.474 269.924 187.891 270.53C187.308 271.137 186.606 271.616 185.829 271.939L185.807 271.945Z" fill="#6C63FF"/>
<path opacity="0.1" d="M180.042 296.01C177.335 298.013 165.85 298.919 165.85 298.919C165.85 298.919 170.074 288.199 172.787 286.191C174.093 285.397 175.648 285.121 177.147 285.417C178.645 285.713 179.979 286.56 180.885 287.79C181.792 289.021 182.205 290.547 182.044 292.067C181.882 293.587 181.158 294.992 180.014 296.004L180.042 296.01Z" fill="#6C63FF"/>
<path opacity="0.1" d="M161.17 248.402C163.588 250.75 174.845 253.186 174.845 253.186C174.845 253.186 172.065 241.999 169.669 239.646C169.11 239.019 168.428 238.514 167.665 238.162C166.903 237.81 166.076 237.62 165.236 237.602C164.396 237.584 163.562 237.739 162.785 238.058C162.008 238.377 161.305 238.853 160.72 239.456C160.135 240.059 159.68 240.776 159.384 241.562C159.088 242.349 158.957 243.188 158.999 244.027C159.041 244.866 159.256 245.688 159.629 246.441C160.002 247.193 160.527 247.861 161.17 248.402Z" fill="#6C63FF"/>
<path opacity="0.1" d="M154.793 276.64C157.801 278.158 169.247 277.107 169.247 277.107C169.247 277.107 163.293 267.255 160.286 265.764C158.86 265.172 157.263 265.141 155.815 265.678C154.368 266.215 153.177 267.281 152.481 268.66C151.786 270.04 151.638 271.631 152.067 273.115C152.496 274.6 153.47 275.867 154.793 276.662V276.64Z" fill="#6C63FF"/>
<path opacity="0.1" d="M152.347 304.933C155.055 306.936 166.54 307.842 166.54 307.842C166.54 307.842 162.315 297.123 159.602 295.114C158.966 294.551 158.22 294.127 157.411 293.869C156.603 293.61 155.749 293.523 154.905 293.613C154.061 293.702 153.245 293.967 152.508 294.39C151.772 294.812 151.132 295.384 150.628 296.068C150.124 296.751 149.768 297.533 149.583 298.362C149.398 299.191 149.387 300.049 149.551 300.883C149.716 301.716 150.052 302.506 150.538 303.202C151.024 303.899 151.65 304.486 152.375 304.927L152.347 304.933Z" fill="#6C63FF"/>
<path d="M332.805 322.345C332.805 322.345 324.711 294.836 334.322 274.593C338.41 266.126 339.643 256.561 337.836 247.334C336.943 242.96 335.652 238.677 333.978 234.539" stroke="#535461" stroke-width="2" stroke-miterlimit="10"/>
<path d="M339.959 221.75C339.959 225.121 333.844 234.895 333.844 234.895C333.844 234.895 327.729 225.121 327.729 221.75C327.843 220.21 328.535 218.769 329.666 217.718C330.798 216.667 332.284 216.083 333.828 216.083C335.371 216.083 336.858 216.667 337.989 217.718C339.12 218.769 339.812 220.21 339.926 221.75H339.959Z" fill="#6C63FF"/>
<path d="M350.044 240.419C348.215 243.251 337.786 248.135 337.786 248.135C337.786 248.135 337.975 236.614 339.804 233.783C340.21 233.048 340.762 232.404 341.427 231.892C342.092 231.379 342.855 231.01 343.669 230.805C344.483 230.601 345.331 230.567 346.158 230.704C346.986 230.842 347.777 231.148 348.481 231.605C349.185 232.061 349.788 232.658 350.252 233.358C350.716 234.057 351.031 234.845 351.178 235.672C351.325 236.499 351.299 237.347 351.104 238.164C350.909 238.98 350.548 239.748 350.044 240.419V240.419Z" fill="#6C63FF"/>
<path d="M349.622 272.334C346.614 273.853 335.168 272.801 335.168 272.801C335.168 272.801 341.144 262.949 344.151 261.431C344.873 260.993 345.678 260.71 346.514 260.599C347.35 260.489 348.201 260.552 349.011 260.786C349.822 261.02 350.576 261.419 351.225 261.958C351.874 262.498 352.404 263.166 352.783 263.92C353.161 264.675 353.38 265.499 353.424 266.343C353.469 267.186 353.338 268.029 353.042 268.819C352.745 269.609 352.288 270.33 351.699 270.935C351.11 271.539 350.403 272.016 349.622 272.334V272.334Z" fill="#6C63FF"/>
<path d="M343.835 296.399C341.128 298.402 329.643 299.309 329.643 299.309C329.643 299.309 333.867 288.589 336.58 286.581C337.886 285.787 339.441 285.511 340.94 285.807C342.438 286.103 343.772 286.949 344.678 288.18C345.585 289.41 345.998 290.936 345.837 292.456C345.675 293.976 344.951 295.381 343.807 296.394L343.835 296.399Z" fill="#6C63FF"/>
<path d="M324.972 248.791C327.39 251.139 338.648 253.576 338.648 253.576C338.648 253.576 335.868 242.389 333.472 240.035C332.913 239.408 332.231 238.903 331.468 238.551C330.705 238.2 329.878 238.009 329.039 237.991C328.199 237.973 327.365 238.129 326.588 238.448C325.811 238.767 325.108 239.242 324.523 239.845C323.938 240.448 323.483 241.165 323.187 241.951C322.891 242.738 322.759 243.577 322.802 244.416C322.844 245.256 323.058 246.077 323.432 246.83C323.805 247.583 324.33 248.25 324.972 248.791V248.791Z" fill="#6C63FF"/>
<path d="M318.585 277.029C321.593 278.548 333.039 277.496 333.039 277.496C333.039 277.496 327.063 267.644 324.055 266.126C322.629 265.533 321.032 265.503 319.585 266.04C318.137 266.577 316.946 267.642 316.251 269.022C315.556 270.401 315.407 271.993 315.836 273.477C316.265 274.961 317.239 276.228 318.563 277.023L318.585 277.029Z" fill="#6C63FF"/>
<path d="M316.144 305.322C318.852 307.325 330.337 308.232 330.337 308.232C330.337 308.232 326.112 297.512 323.399 295.504C322.093 294.71 320.538 294.434 319.04 294.73C317.541 295.026 316.207 295.872 315.301 297.103C314.394 298.333 313.981 299.859 314.143 301.379C314.304 302.899 315.028 304.304 316.172 305.317L316.144 305.322Z" fill="#6C63FF"/>
<path opacity="0.1" d="M339.959 221.75C339.959 225.121 333.844 234.895 333.844 234.895C333.844 234.895 327.729 225.121 327.729 221.75C327.843 220.21 328.535 218.769 329.666 217.718C330.798 216.667 332.284 216.083 333.828 216.083C335.371 216.083 336.858 216.667 337.989 217.718C339.12 218.769 339.812 220.21 339.926 221.75H339.959Z" fill="#6C63FF"/>
<path opacity="0.1" d="M350.044 240.419C348.215 243.251 337.786 248.135 337.786 248.135C337.786 248.135 337.975 236.614 339.804 233.783C340.21 233.048 340.762 232.404 341.427 231.892C342.092 231.379 342.855 231.01 343.669 230.805C344.483 230.601 345.331 230.567 346.158 230.704C346.986 230.842 347.777 231.148 348.481 231.605C349.185 232.061 349.788 232.658 350.252 233.358C350.716 234.057 351.031 234.845 351.178 235.672C351.325 236.499 351.299 237.347 351.104 238.164C350.909 238.98 350.548 239.748 350.044 240.419V240.419Z" fill="#6C63FF"/>
<path opacity="0.1" d="M349.622 272.334C346.614 273.853 335.168 272.801 335.168 272.801C335.168 272.801 341.144 262.949 344.151 261.431C344.873 260.993 345.678 260.71 346.514 260.599C347.35 260.489 348.201 260.552 349.011 260.786C349.822 261.02 350.576 261.419 351.225 261.958C351.874 262.498 352.404 263.166 352.783 263.92C353.161 264.675 353.38 265.499 353.424 266.343C353.469 267.186 353.338 268.029 353.042 268.819C352.745 269.609 352.288 270.33 351.699 270.935C351.11 271.539 350.403 272.016 349.622 272.334V272.334Z" fill="#6C63FF"/>
<path opacity="0.1" d="M343.835 296.399C341.128 298.402 329.643 299.309 329.643 299.309C329.643 299.309 333.867 288.589 336.58 286.581C337.886 285.787 339.441 285.511 340.94 285.807C342.438 286.103 343.772 286.949 344.678 288.18C345.585 289.41 345.998 290.936 345.837 292.456C345.675 293.976 344.951 295.381 343.807 296.394L343.835 296.399Z" fill="#6C63FF"/>
<path opacity="0.1" d="M324.972 248.791C327.39 251.139 338.648 253.576 338.648 253.576C338.648 253.576 335.868 242.389 333.472 240.035C332.913 239.408 332.231 238.903 331.468 238.551C330.705 238.2 329.878 238.009 329.039 237.991C328.199 237.973 327.365 238.129 326.588 238.448C325.811 238.767 325.108 239.242 324.523 239.845C323.938 240.448 323.483 241.165 323.187 241.951C322.891 242.738 322.759 243.577 322.802 244.416C322.844 245.256 323.058 246.077 323.432 246.83C323.805 247.583 324.33 248.25 324.972 248.791V248.791Z" fill="#6C63FF"/>
<path opacity="0.1" d="M318.585 277.029C321.593 278.548 333.039 277.496 333.039 277.496C333.039 277.496 327.063 267.644 324.055 266.126C322.629 265.533 321.032 265.503 319.585 266.04C318.137 266.577 316.946 267.642 316.251 269.022C315.556 270.401 315.407 271.993 315.836 273.477C316.265 274.961 317.239 276.228 318.563 277.023L318.585 277.029Z" fill="#6C63FF"/>
<path opacity="0.1" d="M316.144 305.322C318.852 307.325 330.337 308.232 330.337 308.232C330.337 308.232 326.112 297.512 323.399 295.504C322.093 294.71 320.538 294.434 319.04 294.73C317.541 295.026 316.207 295.872 315.301 297.103C314.394 298.333 313.981 299.859 314.143 301.379C314.304 302.899 315.028 304.304 316.172 305.317L316.144 305.322Z" fill="#6C63FF"/>
<path opacity="0.5" d="M372.414 8.50565H368.923C369.253 8.52144 369.584 8.46989 369.894 8.35415C370.204 8.2384 370.488 8.06087 370.727 7.83228C370.967 7.6037 371.158 7.32883 371.288 7.02432C371.418 6.71981 371.485 6.39199 371.485 6.06073C371.485 5.72947 371.418 5.40167 371.288 5.09716C371.158 4.79265 370.967 4.51777 370.727 4.28919C370.488 4.0606 370.204 3.88306 369.894 3.76732C369.584 3.65157 369.253 3.60003 368.923 3.61582H340.616C339.988 3.6458 339.396 3.91647 338.962 4.3717C338.529 4.82692 338.287 5.43176 338.287 6.06073C338.287 6.68971 338.529 7.29454 338.962 7.74977C339.396 8.20499 339.988 8.47567 340.616 8.50565H344.107C343.479 8.53563 342.887 8.8063 342.453 9.26153C342.02 9.71676 341.778 10.3216 341.778 10.9506C341.778 11.5795 342.02 12.1844 342.453 12.6396C342.887 13.0948 343.479 13.3655 344.107 13.3955H339.221C338.89 13.3797 338.56 13.4312 338.25 13.547C337.939 13.6627 337.656 13.8403 337.416 14.0688C337.177 14.2974 336.986 14.5723 336.856 14.8768C336.725 15.1813 336.658 15.5091 336.658 15.8404C336.658 16.1717 336.725 16.4995 336.856 16.804C336.986 17.1085 337.177 17.3834 337.416 17.6119C337.656 17.8405 337.939 18.0181 338.25 18.1338C338.56 18.2496 338.89 18.3011 339.221 18.2853H367.505C367.836 18.3011 368.166 18.2496 368.477 18.1338C368.787 18.0181 369.07 17.8405 369.31 17.6119C369.549 17.3834 369.74 17.1085 369.87 16.804C370.001 16.4995 370.068 16.1717 370.068 15.8404C370.068 15.5091 370.001 15.1813 369.87 14.8768C369.74 14.5723 369.549 14.2974 369.31 14.0688C369.07 13.8403 368.787 13.6627 368.477 13.547C368.166 13.4312 367.836 13.3797 367.505 13.3955H372.414C373.042 13.3655 373.634 13.0948 374.068 12.6396C374.501 12.1844 374.743 11.5795 374.743 10.9506C374.743 10.3216 374.501 9.71676 374.068 9.26153C373.634 8.8063 373.042 8.53563 372.414 8.50565Z" fill="#DEE3F3"/>
<path opacity="0.5" d="M208.854 22.7691H206.197C206.45 22.7829 206.703 22.745 206.94 22.6578C207.178 22.5705 207.395 22.4357 207.579 22.2615C207.763 22.0874 207.909 21.8776 208.009 21.6449C208.109 21.4122 208.161 21.1616 208.161 20.9083C208.161 20.655 208.109 20.4043 208.009 20.1717C207.909 19.939 207.763 19.7292 207.579 19.555C207.395 19.3809 207.178 19.246 206.94 19.1588C206.703 19.0715 206.45 19.0336 206.197 19.0475H184.672C184.197 19.0735 183.749 19.2809 183.422 19.627C183.094 19.9731 182.912 20.4316 182.912 20.9083C182.912 21.3849 183.094 21.8434 183.422 22.1895C183.749 22.5356 184.197 22.743 184.672 22.7691H187.329C187.077 22.7552 186.824 22.7931 186.586 22.8804C186.349 22.9676 186.131 23.1025 185.947 23.2766C185.764 23.4508 185.617 23.6606 185.517 23.8933C185.417 24.1259 185.365 24.3766 185.365 24.6299C185.365 24.8832 185.417 25.1338 185.517 25.3665C185.617 25.5992 185.764 25.809 185.947 25.9831C186.131 26.1573 186.349 26.2921 186.586 26.3794C186.824 26.4666 187.077 26.5045 187.329 26.4907H183.61C183.358 26.4768 183.105 26.5147 182.867 26.602C182.63 26.6892 182.412 26.8241 182.228 26.9982C182.045 27.1724 181.898 27.3822 181.798 27.6149C181.698 27.8475 181.646 28.0982 181.646 28.3515C181.646 28.6048 181.698 28.8554 181.798 29.0881C181.898 29.3208 182.045 29.5306 182.228 29.7048C182.412 29.8789 182.63 30.0137 182.867 30.101C183.105 30.1883 183.358 30.2261 183.61 30.2123H205.135C205.388 30.2261 205.641 30.1883 205.878 30.101C206.116 30.0137 206.333 29.8789 206.517 29.7048C206.701 29.5306 206.847 29.3208 206.948 29.0881C207.048 28.8554 207.099 28.6048 207.099 28.3515C207.099 28.0982 207.048 27.8475 206.948 27.6149C206.847 27.3822 206.701 27.1724 206.517 26.9982C206.333 26.8241 206.116 26.6892 205.878 26.602C205.641 26.5147 205.388 26.4768 205.135 26.4907H208.854C209.33 26.4647 209.777 26.2573 210.105 25.9111C210.432 25.565 210.615 25.1065 210.615 24.6299C210.615 24.1532 210.432 23.6947 210.105 23.3486C209.777 23.0025 209.33 22.7951 208.854 22.7691V22.7691Z" fill="#DEE3F3"/>
<path d="M28.1856 286.347C28.1856 286.347 37.914 305.456 29.9867 315.908C22.0595 326.361 30.7094 354.849 30.7094 354.849" stroke="#6C63FF" stroke-miterlimit="10"/>
<path d="M31.087 280.372C31.087 284.055 28.3853 287.048 28.3853 287.048C28.3853 287.048 25.6836 284.061 25.6836 280.372C25.6836 276.684 28.3853 273.697 28.3853 273.697C28.3853 273.697 31.087 276.69 31.087 280.372Z" fill="#6C63FF"/>
<path d="M33.2276 286.347C33.2276 286.347 23.4992 305.456 31.4265 315.908C39.3537 326.361 30.7038 354.849 30.7038 354.849" stroke="#6C63FF" stroke-miterlimit="10"/>
<path d="M30.3477 280.372C30.3477 284.055 33.0494 287.048 33.0494 287.048C33.0494 287.048 35.7511 284.061 35.7511 280.372C35.7511 276.684 33.0494 273.697 33.0494 273.697C33.0494 273.697 30.3477 276.69 30.3477 280.372Z" fill="#6C63FF"/>
<path opacity="0.1" d="M30.3477 280.372C30.3477 284.055 33.0494 287.048 33.0494 287.048C33.0494 287.048 35.7511 284.061 35.7511 280.372C35.7511 276.684 33.0494 273.697 33.0494 273.697C33.0494 273.697 30.3477 276.69 30.3477 280.372Z" fill="black"/>
<path d="M37.2022 286.347C37.2022 286.347 46.9306 305.456 39.0033 315.908C31.0761 326.361 39.726 354.849 39.726 354.849" stroke="#6C63FF" stroke-miterlimit="10"/>
<path d="M40.0763 280.372C40.0763 284.055 37.3746 287.048 37.3746 287.048C37.3746 287.048 34.6729 284.061 34.6729 280.372C34.6729 276.684 37.3746 273.697 37.3746 273.697C37.3746 273.697 40.0763 276.69 40.0763 280.372Z" fill="#6C63FF"/>
<path d="M38.5581 295.682C36.0065 298.335 31.9873 298.613 31.9873 298.613C31.9873 298.613 32.1096 294.586 34.6612 291.938C37.2128 289.29 41.232 289.006 41.232 289.006C41.232 289.006 41.0931 293.023 38.5581 295.682Z" fill="#6C63FF"/>
<path d="M38.814 308.866C36.2624 311.519 32.2432 311.797 32.2432 311.797C32.2432 311.797 32.3655 307.77 34.9171 305.122C37.4687 302.474 41.4879 302.19 41.4879 302.19C41.4879 302.19 41.3656 306.207 38.814 308.866Z" fill="#6C63FF"/>
<path d="M24.9724 316.114C27.3851 318.896 27.3017 322.923 27.3017 322.923C27.3017 322.923 23.3047 322.439 20.8921 319.658C18.4795 316.876 18.5628 312.849 18.5628 312.849C18.5628 312.849 22.5598 313.333 24.9724 316.114Z" fill="#6C63FF"/>
<path d="M27.1954 288.016C30.264 290.052 31.2591 293.957 31.2591 293.957C31.2591 293.957 27.2788 294.563 24.2102 292.527C21.1416 290.491 20.1465 286.586 20.1465 286.586C20.1465 286.586 24.1434 285.969 27.1954 288.016Z" fill="#6C63FF"/>
<path opacity="0.1" d="M27.1954 288.016C30.264 290.052 31.2591 293.957 31.2591 293.957C31.2591 293.957 27.2788 294.563 24.2102 292.527C21.1416 290.491 20.1465 286.586 20.1465 286.586C20.1465 286.586 24.1434 285.969 27.1954 288.016Z" fill="black"/>
<path d="M42.2325 286.347C42.2325 286.347 32.5041 305.456 40.4313 315.908C48.3586 326.361 39.7087 354.849 39.7087 354.849" stroke="#6C63FF" stroke-miterlimit="10"/>
<path d="M39.3535 280.372C39.3535 284.055 42.0552 287.048 42.0552 287.048C42.0552 287.048 44.7569 284.061 44.7569 280.372C44.7569 276.684 42.0552 273.697 42.0552 273.697C42.0552 273.697 39.3535 276.69 39.3535 280.372Z" fill="#6C63FF"/>
<path opacity="0.1" d="M39.3535 280.372C39.3535 284.055 42.0552 287.048 42.0552 287.048C42.0552 287.048 44.7569 284.061 44.7569 280.372C44.7569 276.684 42.0552 273.697 42.0552 273.697C42.0552 273.697 39.3535 276.69 39.3535 280.372Z" fill="black"/>
<path d="M40.1311 295.965C37.5461 298.591 37.3516 302.641 37.3516 302.641C37.3516 302.641 41.3708 302.413 43.9557 299.787C46.5407 297.161 46.7353 293.112 46.7353 293.112C46.7353 293.112 42.7161 293.34 40.1311 295.965Z" fill="#6C63FF"/>
<path opacity="0.1" d="M40.1311 295.965C37.5461 298.591 37.3516 302.641 37.3516 302.641C37.3516 302.641 41.3708 302.413 43.9557 299.787C46.5407 297.161 46.7353 293.112 46.7353 293.112C46.7353 293.112 42.7161 293.34 40.1311 295.965Z" fill="black"/>
<path d="M45.1955 314.217C42.6106 316.843 42.416 320.893 42.416 320.893C42.416 320.893 46.4352 320.665 49.0202 318.039C51.6051 315.413 51.7997 311.364 51.7997 311.364C51.7997 311.364 47.7638 311.592 45.1955 314.217Z" fill="#6C63FF"/>
<path d="M37.7578 310.207C37.7578 310.207 43.6115 300.972 51.8334 300.75" stroke="#6C63FF" stroke-miterlimit="10"/>
<path d="M33.183 304.627C33.183 304.627 27.3293 295.392 19.1074 295.17" stroke="#6C63FF" stroke-miterlimit="10"/>
<path d="M32.4209 317.811C32.4209 317.811 38.2746 308.577 46.4965 308.354" stroke="#6C63FF" stroke-miterlimit="10"/>
<path d="M51.5498 302.218C52.388 302.218 53.0675 301.538 53.0675 300.699C53.0675 299.861 52.388 299.181 51.5498 299.181C50.7117 299.181 50.0322 299.861 50.0322 300.699C50.0322 301.538 50.7117 302.218 51.5498 302.218Z" fill="#6C63FF"/>
<path d="M19.252 296.766C20.0902 296.766 20.7696 296.086 20.7696 295.248C20.7696 294.409 20.0902 293.729 19.252 293.729C18.4138 293.729 17.7344 294.409 17.7344 295.248C17.7344 296.086 18.4138 296.766 19.252 296.766Z" fill="#6C63FF"/>
<path d="M36.7289 320.837C36.7289 320.837 30.8752 311.603 22.6533 311.38" stroke="#6C63FF" stroke-miterlimit="10"/>
<path d="M22.7989 312.988C23.637 312.988 24.3165 312.308 24.3165 311.469C24.3165 310.63 23.637 309.95 22.7989 309.95C21.9607 309.95 21.2812 310.63 21.2812 311.469C21.2812 312.308 21.9607 312.988 22.7989 312.988Z" fill="#6C63FF"/>
<path d="M46.6075 309.95C47.4456 309.95 48.1251 309.271 48.1251 308.432C48.1251 307.593 47.4456 306.913 46.6075 306.913C45.7693 306.913 45.0898 307.593 45.0898 308.432C45.0898 309.271 45.7693 309.95 46.6075 309.95Z" fill="#6C63FF"/>
<path d="M69.1002 343.729C69.1002 343.729 54.9913 340.903 51.2222 337.137C47.4532 333.371 30.5314 326.784 28.6469 331.49C26.7623 336.197 3.24749 352.201 19.2409 355.027C35.2343 357.853 56.8702 358.793 61.5732 356.907C66.2762 355.022 69.1002 343.729 69.1002 343.729Z" fill="#A8A8A8"/>
<path opacity="0.2" d="M19.2403 353.275C35.2338 356.101 56.8696 357.041 61.5726 355.155C65.1526 353.72 67.6431 346.811 68.6271 343.629L69.0996 343.729C69.0996 343.729 66.2756 355.027 61.5726 356.907C56.8696 358.788 35.2338 357.848 19.2403 355.027C14.6263 354.209 13.3032 352.296 13.8036 349.876C14.1927 351.434 15.8048 352.668 19.2403 353.275Z" fill="black"/>
<path d="M497.454 290.675C497.454 290.675 502.112 296.794 495.302 305.973C488.492 315.152 482.878 322.946 485.151 328.687C485.151 328.687 495.424 311.592 503.785 311.352C512.146 311.113 506.654 300.95 497.454 290.675Z" fill="#6C63FF"/>
<path opacity="0.1" d="M497.454 290.675C497.86 291.265 498.18 291.909 498.404 292.589C506.565 302.179 510.907 311.13 503.068 311.358C495.764 311.569 487.003 324.637 484.901 327.941C484.971 328.196 485.054 328.447 485.152 328.692C485.152 328.692 495.425 311.597 503.785 311.358C512.146 311.119 506.654 300.95 497.454 290.675Z" fill="black"/>
<path d="M506.115 298.441C506.115 300.588 505.876 302.335 505.559 302.335C505.242 302.335 505.003 300.594 505.003 298.441C505.003 296.288 505.303 297.328 505.598 297.328C505.892 297.328 506.115 296.299 506.115 298.441Z" fill="#FFD037"/>
<path d="M509.089 301.005C507.204 302.034 505.564 302.674 505.425 302.39C505.287 302.107 506.693 301.083 508.577 300.06C510.462 299.036 509.717 299.781 509.862 300.06C510.006 300.338 510.968 299.976 509.089 301.005Z" fill="#FFD037"/>
<path d="M472.849 290.675C472.849 290.675 468.19 296.794 475 305.973C481.81 315.152 487.425 322.946 485.151 328.687C485.151 328.687 474.878 311.592 466.517 311.352C458.156 311.113 463.649 300.95 472.849 290.675Z" fill="#6C63FF"/>
<path opacity="0.1" d="M472.849 290.675C472.443 291.265 472.123 291.909 471.898 292.589C463.737 302.179 459.396 311.13 467.234 311.358C474.539 311.569 483.3 324.637 485.401 327.941C485.332 328.196 485.248 328.447 485.151 328.692C485.151 328.692 474.878 311.597 466.517 311.358C458.156 311.119 463.648 300.95 472.849 290.675Z" fill="black"/>
<path d="M464.188 298.441C464.188 300.588 464.428 302.335 464.744 302.335C465.061 302.335 465.3 300.594 465.3 298.441C465.3 296.288 465 297.328 464.705 297.328C464.411 297.328 464.188 296.299 464.188 298.441Z" fill="#FFD037"/>
<path d="M461.214 301.005C463.099 302.034 464.739 302.674 464.878 302.39C465.017 302.107 463.61 301.083 461.726 300.06C459.841 299.036 460.586 299.781 460.442 300.06C460.297 300.338 459.33 299.976 461.214 301.005Z" fill="#FFD037"/>
<path d="M465.672 327.885C465.672 327.885 478.697 327.485 482.621 324.687C486.546 321.889 502.634 318.567 503.629 323.018C504.624 327.468 523.203 345.331 508.499 345.448C493.795 345.564 474.333 343.156 470.414 340.769C466.495 338.383 465.672 327.885 465.672 327.885Z" fill="#A8A8A8"/>
<path opacity="0.2" d="M508.76 343.907C494.056 344.024 474.594 341.615 470.675 339.228C467.69 337.409 466.5 330.884 466.105 327.874H465.672C465.672 327.874 466.495 338.388 470.414 340.775C474.333 343.161 493.795 345.576 508.499 345.453C512.746 345.42 514.208 343.907 514.13 341.67C513.541 343.033 511.946 343.879 508.76 343.907Z" fill="black"/>
<path opacity="0.5" d="M98.8744 41.5105H95.3833C95.7139 41.5263 96.0444 41.4748 96.3545 41.359C96.6647 41.2433 96.9481 41.0657 97.1877 40.8372C97.4273 40.6086 97.618 40.3337 97.7484 40.0292C97.8787 39.7247 97.9459 39.3969 97.9459 39.0656C97.9459 38.7344 97.8787 38.4065 97.7484 38.102C97.618 37.7975 97.4273 37.5227 97.1877 37.2941C96.9481 37.0655 96.6647 36.8879 96.3545 36.7722C96.0444 36.6565 95.7139 36.6049 95.3833 36.6207H67.0988C66.4709 36.6507 65.8788 36.9214 65.445 37.3766C65.0113 37.8318 64.7694 38.4366 64.7694 39.0656C64.7694 39.6946 65.0113 40.2994 65.445 40.7547C65.8788 41.2099 66.4709 41.4806 67.0988 41.5105H70.5899C69.962 41.5405 69.3698 41.8112 68.9361 42.2664C68.5024 42.7216 68.2604 43.3265 68.2604 43.9554C68.2604 44.5844 68.5024 45.1893 68.9361 45.6445C69.3698 46.0997 69.962 46.3704 70.5899 46.4004H65.7034C65.0756 46.4303 64.4834 46.701 64.0497 47.1562C63.616 47.6115 63.374 48.2163 63.374 48.8453C63.374 49.4742 63.616 50.0791 64.0497 50.5343C64.4834 50.9895 65.0756 51.2602 65.7034 51.2902H93.988C94.3186 51.306 94.649 51.2544 94.9592 51.1387C95.2693 51.0229 95.5528 50.8454 95.7924 50.6168C96.032 50.3882 96.2227 50.1134 96.353 49.8089C96.4833 49.5043 96.5505 49.1765 96.5505 48.8453C96.5505 48.514 96.4833 48.1862 96.353 47.8817C96.2227 47.5772 96.032 47.3023 95.7924 47.0737C95.5528 46.8451 95.2693 46.6676 94.9592 46.5519C94.649 46.4361 94.3186 46.3846 93.988 46.4004H98.8744C99.5022 46.3704 100.094 46.0997 100.528 45.6445C100.962 45.1893 101.204 44.5844 101.204 43.9554C101.204 43.3265 100.962 42.7216 100.528 42.2664C100.094 41.8112 99.5022 41.5405 98.8744 41.5105V41.5105Z" fill="#DEE3F3"/>
<defs>
<linearGradient id="paint0_linear" x1="256.006" y1="302.48" x2="256.006" y2="72.1736" gradientUnits="userSpaceOnUse">
<stop stop-color="#808080" stop-opacity="0.25"/>
<stop offset="0.54" stop-color="#808080" stop-opacity="0.12"/>
<stop offset="1" stop-color="#808080" stop-opacity="0.1"/>
</linearGradient>
<linearGradient id="paint1_linear" x1="212.855" y1="263.311" x2="212.855" y2="263.284" gradientUnits="userSpaceOnUse">
<stop stop-color="#808080" stop-opacity="0.25"/>
<stop offset="0.54" stop-color="#808080" stop-opacity="0.12"/>
<stop offset="1" stop-color="#808080" stop-opacity="0.1"/>
</linearGradient>
<linearGradient id="paint2_linear" x1="35797.9" y1="112482" x2="35797.9" y2="50431.1" gradientUnits="userSpaceOnUse">
<stop stop-color="#808080" stop-opacity="0.25"/>
<stop offset="0.54" stop-color="#808080" stop-opacity="0.12"/>
<stop offset="1" stop-color="#808080" stop-opacity="0.1"/>
</linearGradient>
<linearGradient id="paint3_linear" x1="100843" y1="136350" x2="100843" y2="44195" gradientUnits="userSpaceOnUse">
<stop stop-color="#808080" stop-opacity="0.25"/>
<stop offset="0.54" stop-color="#808080" stop-opacity="0.12"/>
<stop offset="1" stop-color="#808080" stop-opacity="0.1"/>
</linearGradient>
</defs>
</svg>
