<svg width="398" height="341" viewBox="0 0 398 341" fill="none" xmlns="http://www.w3.org/2000/svg">
<path d="M259.066 84.209C241.706 93.7143 223.014 88.7216 207.938 78.4483C192.862 68.175 180.273 53.0379 166.009 41.1024C154.051 31.0967 140.894 23.3542 126.998 18.133C107.105 10.6795 83.3829 9.17626 64.5334 26.5693C43.5392 45.9487 35.6375 87.522 48.2237 112.336C54.6294 124.965 64.9496 132.75 73.1134 143.321C81.2772 153.892 87.4845 169.794 83.0721 185.718C78.9896 200.447 67.28 209.882 56.1958 214.964C47.6291 218.895 37.2513 222.96 33.8274 234.26C30.5135 245.197 36.1887 255.592 42.3514 262.153C62.4549 283.558 91.6656 289.849 118.89 278.635C128.6 274.637 138.058 268.554 147.892 265.935C173.711 259.067 196.577 276.777 220.138 286.611C240.077 294.934 261.8 297.705 283.68 294.713C296.82 292.917 310.533 288.753 321.886 277.883C330.076 270.042 336.484 259.244 342.624 248.538C349.172 237.119 355.592 225.583 361.882 213.928C365.652 206.946 369.429 199.781 371.744 191.916C375.937 177.66 374.907 162.426 371.9 148.948C364.748 116.951 346.433 91.5132 322.863 80.8687C299.293 70.2241 270.91 74.5721 246.849 92.4788" fill="#5A5696"/>
<path d="M71 194.213C71 194.213 74.311 199.242 73.1285 200.604C71.946 201.966 82 202 82 202C82 202 80.4898 194.684 80.9343 193L71 194.213Z" fill="#FFB8B8"/>
<path opacity="0.1" d="M71 194.213C71 194.213 74.311 199.242 73.1285 200.604C71.946 201.966 82 202 82 202C82 202 80.4898 194.684 80.9343 193L71 194.213Z" fill="black"/>
<path d="M76.5 196C82.299 196 87 191.299 87 185.5C87 179.701 82.299 175 76.5 175C70.701 175 66 179.701 66 185.5C66 191.299 70.701 196 76.5 196Z" fill="#FF6584"/>
<path d="M101 242V249L107 247.542L106.5 242.583L101 242Z" fill="#FFB8B8"/>
<path d="M123.347 243L141 246.056L136.521 253C136.521 253 124.138 248.556 120.976 248.556C117.814 248.556 123.347 243 123.347 243Z" fill="#FFB8B8"/>
<path d="M84.1636 231.341C84.1636 231.341 97.3455 216.249 101.564 217.029C105.782 217.81 107.627 222.494 107.627 222.494L110 245.653C110 245.653 101.564 246.434 101.564 245.653C101.564 244.872 99.9818 228.219 99.9818 228.219C99.9818 228.219 87.5909 255.281 81 237.326L84.1636 231.341Z" fill="#2F2E41"/>
<path d="M63 241.23C63 241.23 63.2599 254.155 71.0572 254.93C78.8545 255.706 87.4315 249.76 87.4315 249.76L101.467 243.073C101.467 243.073 118.101 251.828 123.039 249.502C123.039 249.502 128.237 244.074 124.858 242.523C121.48 240.972 124.599 242.523 124.599 242.523L104.586 232.183C104.586 232.183 100.687 231.149 93.9292 233.993C87.1716 236.836 78.0748 238.129 78.0748 238.129L63 241.23Z" fill="#2F2E41"/>
<path d="M75.5 196C79.6421 196 83 192.642 83 188.5C83 184.358 79.6421 181 75.5 181C71.3579 181 68 184.358 68 188.5C68 192.642 71.3579 196 75.5 196Z" fill="#FFB8B8"/>
<path d="M87.1972 210.486L86.6821 221.372C86.6821 221.372 86.9396 235.628 84.6217 236.664C83.4498 237.188 81.0958 238.24 78.9195 239.391C77.2866 240.252 75.7542 241.164 74.8991 241.949C74.6724 242.143 74.477 242.371 74.3197 242.626C73.2895 244.44 66.5932 244.181 65.0479 242.885C63.5026 241.589 64.5328 244.44 63.245 244.958C61.9985 245.461 60.2703 241.351 61.3288 235.213C61.3623 235.008 61.401 234.801 61.4422 234.591C62.6243 228.642 60.7674 214.395 61.0533 208.889C61.0699 208.469 61.1138 208.05 61.1846 207.635C61.9573 203.488 71.8163 195.048 73.6603 198.643C75.9319 203.081 81.1499 199.027 82.0462 197.008C87.1972 196.749 89 202.969 89 202.969L87.1972 210.486Z" fill="#3F3D56"/>
<path d="M107.585 246C107.585 246 103.418 247.621 102.115 247.351C100.813 247.081 99.5103 248.161 99.5103 249.782C99.5103 251.403 97.9474 255.186 100.292 255.456C102.636 255.726 112.274 255.186 114.358 255.996C114.358 255.996 123.735 256.266 122.954 252.214C122.172 248.161 118.265 248.432 118.265 248.432C118.265 248.432 107.585 247.891 107.585 246Z" fill="#2F2E41"/>
<path d="M138.313 247.5C138.313 247.5 138.836 246 139.62 246C140.404 246 146.675 247 147.458 246.75C148.242 246.5 157.387 246 155.82 250.25C154.252 254.5 149.026 255 149.026 255C149.026 255 139.62 254 138.313 254.25C137.007 254.5 132.304 254.25 133.088 253C133.871 251.75 138.836 249.5 138.313 247.5Z" fill="#2F2E41"/>
<path d="M114.581 209.283L115.99 215.202C116.005 215.268 116.003 215.337 115.983 215.402L109.593 235.743C109.567 235.824 109.516 235.893 109.446 235.939C109.377 235.986 109.294 236.007 109.211 235.998C109.129 235.99 109.051 235.953 108.992 235.894C108.933 235.834 108.896 235.756 108.886 235.672L108.002 227.748C107.996 227.695 108.002 227.642 108.018 227.592L113.883 209.255C113.908 209.179 113.956 209.112 114.021 209.066C114.086 209.02 114.163 208.997 114.242 209C114.321 209.003 114.397 209.033 114.458 209.084C114.519 209.135 114.562 209.204 114.581 209.283V209.283Z" fill="#D0CDE1"/>
<path d="M114.5 210L116 215.159L109.5 234L108 228.168L114.5 210Z" fill="#F2F2F2"/>
<path d="M86.0412 237.767C86.261 238.404 108.901 237.555 109.121 237.343C109.312 237.077 109.474 236.792 109.604 236.493C109.811 236.069 110 235.644 110 235.644L109.121 228.769L86.7006 228C86.7006 228 86.1401 233.826 86.0258 236.493C85.9869 236.917 85.992 237.344 86.0412 237.767Z" fill="#D0CDE1"/>
<path opacity="0.1" d="M105.6 229L106 236H97V229H105.6Z" fill="black"/>
<path opacity="0.1" d="M92.9386 231.013L93 231L92.7102 234H87V231.013H92.9386Z" fill="black"/>
<path opacity="0.1" d="M86.0401 237.691C86.2543 238.537 108.315 237.409 108.529 237.127C108.716 236.774 108.873 236.397 109 236H86.0251C85.9872 236.563 85.9922 237.129 86.0401 237.691Z" fill="black"/>
<path d="M81.989 166C81.2607 167.244 80.1812 168.131 78.9492 168.499C76.8236 169.18 78.9319 173 78.9319 173C78.9319 173 78.1652 171.611 79.271 170.14C80.3768 168.669 82.1563 167.663 81.989 166Z" fill="#FF6584"/>
<path d="M78.5 177C79.8807 177 81 175.657 81 174C81 172.343 79.8807 171 78.5 171C77.1193 171 76 172.343 76 174C76 175.657 77.1193 177 78.5 177Z" fill="#FF6584"/>
<path d="M81.7417 176C79.5435 175.125 75.8831 174.681 74 174.985L74.2583 173C76.0687 173.985 79.7122 174.447 82 174.015L81.7417 176Z" fill="#3F3D56"/>
<path d="M76.9643 177C76.9643 177 73.9934 181.936 67.0851 183.783C60.1768 185.631 67.0286 196 67.0286 196C67.0286 196 64.537 192.229 68.1308 188.236C71.7246 184.243 77.5079 181.513 76.9643 177Z" fill="#FF6584"/>
<path d="M78.0722 177C78.0722 177 80.8806 183.986 83.9637 184.646C87.0468 185.307 86.813 196.345 81.9915 198C81.9915 198 85.5072 191.529 82.5021 187.189C79.4969 182.849 77.5987 179.419 78.0722 177Z" fill="#FF6584"/>
<path opacity="0.1" d="M79.0501 239.798C78.4085 241.03 77.6552 242.31 77.5279 242.827C77.4422 243.178 76.4914 242.975 74.9952 242.402C71.995 241.249 66.7947 238.608 61.9424 235.967C61.7187 235.847 61.5065 235.705 61.3086 235.545C61.3423 235.337 61.3813 235.125 61.4229 234.912C62.6152 228.857 60.7423 214.353 61.0306 208.749L63.2412 208L67.6571 212.221V230.163C67.6571 230.163 79.0864 236.495 79.8657 237.022C80.2631 237.292 79.715 238.518 79.0501 239.798Z" fill="black"/>
<path d="M88.03 225.109L95.4273 229.201C95.4273 229.201 99.8109 224.232 102.551 228.032C105.29 231.831 94.6054 233 94.6054 233C94.6054 233 85.2902 230.662 85.0162 227.447C84.7422 224.232 88.03 225.109 88.03 225.109Z" fill="#FFB8B8"/>
<path d="M76.582 234.963L80.57 235.971C80.57 235.971 85.0564 230.425 89.7921 232.442C94.5278 234.459 83.8102 238.493 83.8102 238.493C83.8102 238.493 78.0775 241.518 75.8343 238.997C73.591 236.476 76.582 234.963 76.582 234.963Z" fill="#FFB8B8"/>
<path d="M85.9706 201C86.2353 201.257 89.1471 203.314 89.1471 203.314C89.1471 203.314 89.9412 213.084 88.8824 215.14C87.8235 217.197 87.0294 217.197 87.8235 218.225C88.6176 219.254 89.6765 218.483 88.6176 220.282C87.5588 222.082 86.5 221.825 87.2941 222.596C88.0882 223.367 87.8235 223.624 87.8235 223.624L91 226.195C91 226.195 89.0512 229.21 86.5844 228.988C84.1176 228.766 82 217.197 82 217.197L85.9706 201Z" fill="#3F3D56"/>
<path d="M62.9177 207L60.5348 207.792C60.5348 207.792 54.1802 231.01 61.5939 234.967C69.0075 238.925 77.2155 242.882 77.4802 241.827C77.745 240.772 80.6575 236.55 79.8632 236.023C79.0689 235.495 67.4189 229.163 67.4189 229.163V211.221L62.9177 207Z" fill="#3F3D56"/>
<path opacity="0.1" d="M66.5283 216L66 229.151L80 236L67.0566 229.151L66.5283 216Z" fill="black"/>
<path d="M291.479 238.207H281.935L258.417 228.827C258.417 228.827 241.716 221.879 243.079 235.081C244.443 248.282 246.828 266 246.828 266C246.828 266 254.327 262.526 258.417 263.568C262.507 264.61 259.78 242.376 259.78 242.376C259.78 242.376 293.183 258.704 296.251 256.62C299.318 254.536 300 239.944 300 239.944L291.479 238.207Z" fill="#2F2E41"/>
<path opacity="0.1" d="M291.479 238.207H281.935L258.417 228.827C258.417 228.827 241.716 221.879 243.079 235.081C244.443 248.282 246.828 266 246.828 266C246.828 266 254.327 262.526 258.417 263.568C262.507 264.61 259.78 242.376 259.78 242.376C259.78 242.376 293.183 258.704 296.251 256.62C299.318 254.536 300 239.944 300 239.944L291.479 238.207Z" fill="black"/>
<path d="M275.419 208L263.841 224.555L236.848 246.997C236.848 246.997 211.905 252.777 215.322 256.857C218.738 260.938 239.581 252.777 239.581 252.777C239.581 252.777 270.674 230.335 271.699 228.635C272.724 226.935 284 210.953 284 210.953L275.419 208Z" fill="#A0616A"/>
<path opacity="0.1" d="M275.419 208L263.841 224.555L236.848 246.997C236.848 246.997 211.905 252.777 215.322 256.857C218.738 260.938 239.581 252.777 239.581 252.777C239.581 252.777 270.674 230.335 271.699 228.635C272.724 226.935 284 210.953 284 210.953L275.419 208Z" fill="black"/>
<path d="M282.6 195L275 209.311C275 209.311 276.727 216.3 279.491 216.966C282.255 217.632 294 208.313 294 208.313L282.6 195Z" fill="#D0CDE1"/>
<path opacity="0.1" d="M282.6 195L275 209.311C275 209.311 276.727 216.3 279.491 216.966C282.255 217.632 294 208.313 294 208.313L282.6 195Z" fill="black"/>
<path d="M191.128 230.44L189.015 239.647C188.992 239.75 188.995 239.857 189.026 239.958L198.611 271.6C198.649 271.725 198.727 271.833 198.831 271.905C198.935 271.978 199.059 272.01 199.183 271.997C199.307 271.984 199.423 271.927 199.512 271.835C199.6 271.742 199.656 271.621 199.671 271.49L200.997 259.163C201.005 259.081 200.997 258.999 200.973 258.92L192.175 230.397C192.138 230.278 192.066 230.175 191.969 230.103C191.872 230.032 191.755 229.996 191.636 230C191.518 230.005 191.404 230.051 191.313 230.13C191.221 230.209 191.156 230.318 191.128 230.44Z" fill="#2F2E41"/>
<path d="M192.062 232L190 239.738L198.938 268L201 259.252L192.062 232Z" fill="#F2F2F2"/>
<path d="M236.946 274.604C236.607 275.687 201.695 274.243 201.356 273.882C201.06 273.43 200.81 272.946 200.61 272.438C200.291 271.717 200 270.995 200 270.995L201.356 259.307L235.929 258C235.929 258 236.793 267.905 236.969 272.438C237.013 273.583 237.013 274.388 236.946 274.604Z" fill="#2F2E41"/>
<path opacity="0.1" d="M205.667 261L205 271H220V261H205.667Z" fill="black"/>
<path opacity="0.1" d="M225.092 264.018L225 264L225.435 268H234V264.018H225.092Z" fill="black"/>
<path d="M277.5 190C268.94 190 262 183.06 262 174.5C262 165.94 268.94 159 277.5 159C286.06 159 293 165.94 293 174.5C293 183.06 286.06 190 277.5 190Z" fill="#A0616A"/>
<path d="M279 188.297C279 188.297 284.036 197.217 285.044 202.02C286.051 206.823 300.153 192.414 300.153 192.414L302 187.44C302 187.44 288.737 181.093 289.745 175.947C290.752 170.801 279 188.297 279 188.297Z" fill="#A0616A"/>
<path d="M275.695 215L261.769 233.324L228.48 258.096C228.48 258.096 204.363 263.186 209.798 266.918C215.233 270.651 230.858 263.525 230.858 263.525C230.858 263.525 264.486 245.54 271.619 238.075C278.753 230.609 292 218.054 292 218.054L275.695 215Z" fill="#A0616A"/>
<path d="M294.761 244.099L290.684 250.497L266.351 242.909C261.012 241.245 255.157 241.857 250.422 244.814C246.175 247.466 243.456 251.675 249.572 257.905C261.804 270.364 269.958 263.629 269.958 263.629C269.958 263.629 311.07 282.823 317.865 273.395C324.66 263.966 325 259.252 325 259.252C325 259.252 298.838 243.088 294.761 244.099Z" fill="#2F2E41"/>
<path d="M243.285 266.096C243.285 266.096 232.401 273.321 245.326 276.761C258.251 280.201 267.775 275.385 267.775 275.385C267.775 275.385 279 275.385 279 269.537C279 263.688 275.258 263 275.258 263L263.694 264.72C263.694 264.72 249.748 260.936 243.285 266.096Z" fill="#D0CDE1"/>
<path d="M264.622 170.628C263.562 171.095 262.511 171.647 261.358 171.782C260.206 171.918 258.894 171.521 258.348 170.509C258.054 169.963 258.02 169.32 258.006 168.702C257.965 166.825 258.102 164.797 259.306 163.345C260.073 162.421 261.192 161.838 261.985 160.937C262.553 160.291 262.932 159.508 263.339 158.752C264.882 155.891 267.166 153.142 270.341 152.317C271.667 151.973 273.058 151.989 274.429 152.008L282.424 152.12C283.718 152.138 285.032 152.159 286.27 152.529C288.844 153.297 290.717 155.433 292.434 157.477C293.717 159.005 295.005 160.55 295.968 162.293C297.35 164.837 298.048 167.687 297.997 170.573C298.008 171.313 297.911 172.051 297.71 172.764C297.474 173.418 297.183 174.051 296.838 174.656C295.338 177.564 294.448 181.195 296.137 184C293.203 182.817 290.301 181.266 288.366 178.789C287.501 177.681 286.822 176.383 285.668 175.57C284.515 174.757 282.635 174.686 281.895 175.88C281.64 176.363 281.509 176.9 281.513 177.444C281.459 178.34 281.461 179.27 281.076 180.083C280.691 180.896 279.775 181.552 278.9 181.309C277.393 180.89 277.537 178.607 276.377 177.57C275.495 176.782 274.135 176.932 273.003 176.575C271.684 176.158 270.694 175.03 270.13 173.781C269.701 172.831 269.707 170.347 268.896 169.833C267.879 169.188 265.565 170.213 264.622 170.628Z" fill="#2F2E41"/>
<path d="M303.74 186.137C303.048 185.952 302.32 185.954 301.629 186.143C299.436 186.732 294.519 188.292 293.465 190.665C292.098 193.742 287.314 198.529 287.314 198.529C287.314 198.529 280.822 205.025 282.189 209.47C283.556 213.915 288.681 219.043 288.681 219.043C288.681 219.043 287.314 240.241 294.148 245.712C300.982 251.182 303.715 247.421 303.715 252.55C303.715 257.678 324.9 273.748 329 263.833C329 263.833 326.95 245.37 327.633 238.874C328.307 232.471 327.321 192.525 303.74 186.137Z" fill="#D0CDE1"/>
<path d="M292.282 194.879C292.282 194.879 271.743 209.939 275.447 216.297C275.447 216.297 287.905 222.321 290.598 221.987C293.292 221.652 303.73 209.939 306.424 208.935C309.117 207.931 310.464 189.859 292.282 194.879Z" fill="#D0CDE1"/>
<path d="M279.602 42.8487L174.59 0L149.148 62.3508L254.16 105.2L279.602 42.8487Z" fill="#3F3D56"/>
<path d="M195.5 71C209.583 71 221 59.5833 221 45.5C221 31.4167 209.583 20 195.5 20C181.417 20 170 31.4167 170 45.5C170 59.5833 181.417 71 195.5 71Z" fill="#6C63FF"/>
<path d="M243.098 39.4373L235.222 36.2236L232.008 44.0995L239.884 47.3132L243.098 39.4373Z" fill="#6C63FF"/>
<path opacity="0.5" d="M252.941 43.4539L245.065 40.2402L241.852 48.1161L249.728 51.3298L252.941 43.4539Z" fill="#6C63FF"/>
<path opacity="0.2" d="M262.786 47.4715L254.91 44.2578L251.697 52.1337L259.572 55.3474L262.786 47.4715Z" fill="#6C63FF"/>
<path d="M239.08 49.282L231.204 46.0684L227.99 53.9442L235.866 57.1579L239.08 49.282Z" fill="#2F2E41"/>
<path opacity="0.5" d="M248.925 53.2996L241.049 50.0859L237.835 57.9618L245.711 61.1755L248.925 53.2996Z" fill="#2F2E41"/>
<path opacity="0.2" d="M258.769 57.3152L250.894 54.1016L247.68 61.9774L255.556 65.1911L258.769 57.3152Z" fill="#2F2E41"/>
<path d="M235.062 59.1267L227.187 55.9131L223.973 63.789L231.849 67.0026L235.062 59.1267Z" fill="#FF6584"/>
<path opacity="0.5" d="M244.907 63.1443L237.031 59.9307L233.818 67.8066L241.693 71.0202L244.907 63.1443Z" fill="#FF6584"/>
<path opacity="0.2" d="M254.752 67.1609L246.876 63.9473L243.662 71.8232L251.538 75.0368L254.752 67.1609Z" fill="#FF6584"/>
<path opacity="0.5" d="M205.427 22L186 69.0695C199.148 74.3731 214.816 68.4024 220.181 55.4046C225.546 42.4067 218.575 27.3036 205.427 22Z" fill="#3F3D56"/>
<path d="M198.5 105C204.299 105 209 100.523 209 95C209 89.4772 204.299 85 198.5 85C192.701 85 188 89.4772 188 95C188 100.523 192.701 105 198.5 105Z" fill="#2F2E41"/>
<path d="M193.625 101C193.625 101 190.087 108.294 189.076 108.529C188.066 108.765 197.416 113 197.416 113C197.416 113 199.185 104.059 199.943 103.588C200.701 103.118 193.625 101 193.625 101Z" fill="#FFB9B9"/>
<path opacity="0.1" d="M193.625 101C193.625 101 190.087 108.294 189.076 108.529C188.066 108.765 197.416 113 197.416 113C197.416 113 199.185 104.059 199.943 103.588C200.701 103.118 193.625 101 193.625 101Z" fill="black"/>
<path d="M173.5 161.663L167 179.337L174 182L186 159L173.5 161.663Z" fill="#FFB9B9"/>
<path d="M196 162.384C196 162.384 208.506 180.738 209.228 180.99C209.949 181.241 215 176.716 215 176.716C215 176.716 208.747 160.875 206.823 160.121C204.899 159.367 196 162.384 196 162.384Z" fill="#FFB9B9"/>
<path d="M166.658 177L156.627 202.828C156.627 202.828 157.361 204.277 156.627 204.518C155.893 204.76 154.181 208.622 154.181 208.863C154.181 209.105 152.468 209.346 152.468 210.07C152.468 210.794 151 216.588 151 216.588C151 216.588 153.691 222.381 155.404 220.691C157.117 219.001 157.851 215.622 157.851 215.622L160.297 209.346C160.297 209.346 160.052 205.966 161.765 205.484C163.478 205.001 164.456 198.966 164.456 198.966C164.456 198.966 167.148 196.311 167.637 195.587C168.126 194.863 176.689 182.069 175.955 181.828C175.221 181.586 166.658 177 166.658 177Z" fill="#2F2E41"/>
<path d="M207 179.86L214.397 175C214.397 175 227.219 198.086 227.219 198.572C227.219 199.058 226.726 200.516 227.219 201.002C227.712 201.488 231.904 209.264 234.616 209.993C237.328 210.722 237.822 213.638 235.602 214.124C233.383 214.61 230.424 215.825 229.685 214.124C229.252 213.123 228.758 212.149 228.205 211.208C228.205 211.208 225.74 211.937 225.493 211.451C225.208 210.735 224.961 210.005 224.753 209.264C224.753 209.264 222.781 205.862 222.781 204.647C222.773 204.302 222.647 203.97 222.423 203.705C222.199 203.44 221.891 203.258 221.548 203.189C221.548 203.189 218.836 196.871 217.11 195.899C215.384 194.927 213.904 190.066 213.904 190.066L207 179.86Z" fill="#2F2E41"/>
<path d="M199 106C202.866 106 206 102.866 206 99C206 95.134 202.866 92 199 92C195.134 92 192 95.134 192 99C192 102.866 195.134 106 199 106Z" fill="#FFB9B9"/>
<path d="M177.585 142C177.585 142 170.739 163.761 172.206 163.761C173.673 163.761 207.661 164.717 208.884 162.804C210.106 160.891 201.304 147.261 200.815 147.022C200.326 146.783 177.585 142 177.585 142Z" fill="#2F2E41"/>
<path d="M168 83.8603L160.786 72.7507C160.786 72.7507 162.57 61.0966 160.166 63.2702C157.761 65.4438 157 74.2216 157 74.2216L165.355 87L168 83.8603Z" fill="#FFB9B9"/>
<path d="M233.475 104.601L239.894 104.116C239.894 104.116 247.5 95.8614 247.976 98.5319C248.451 101.202 241.795 107.029 241.795 107.029L233 108L233.475 104.601Z" fill="#FFB9B9"/>
<path d="M186 106.684V104.268C186 104.268 179.582 100.161 179.829 99.4361C180.076 98.7112 179.335 98.228 179.335 98.228C179.335 98.228 178.594 97.2616 178.594 97.0199C178.594 96.7783 177.607 96.5367 177.607 96.5367L171.436 89.5299C171.436 89.5299 167.98 82.7647 167.239 83.0063C166.499 83.2479 162.549 84.6976 163.043 85.6641C163.536 86.6305 177.36 107.409 177.36 107.409C177.36 107.409 178.101 112 179.335 112C180.569 112 186 106.684 186 106.684Z" fill="#3F3D56"/>
<path d="M201.985 109.731C201.985 109.731 207.401 109.488 207.648 109.731C207.894 109.974 211.341 109.731 211.341 109.731C211.341 109.731 220.697 107.542 221.435 106.812C222.174 106.083 234.485 102.921 234.977 104.38C235.47 105.839 236.701 108.758 235.47 109.244C234.238 109.731 201 118 201 118L201.985 109.731Z" fill="#3F3D56"/>
<path d="M195.5 89C197.985 89 200 86.9853 200 84.5C200 82.0147 197.985 80 195.5 80C193.015 80 191 82.0147 191 84.5C191 86.9853 193.015 89 195.5 89Z" fill="#2F2E41"/>
<path d="M188.943 82C188.943 81.0113 189.358 80.0576 190.107 79.3229C190.856 78.5883 191.887 78.1247 193 78.0216C192.843 78.0073 192.686 78 192.528 78C191.327 78 190.176 78.4214 189.326 79.1716C188.477 79.9217 188 80.9391 188 82C188 83.0609 188.477 84.0783 189.326 84.8284C190.176 85.5786 191.327 86 192.528 86C192.686 86 192.843 85.9927 193 85.9784C191.887 85.8753 190.856 85.4117 190.107 84.6771C189.358 83.9424 188.943 82.9887 188.943 82V82Z" fill="#2F2E41"/>
<path d="M200 97C203.866 97 207 95.2091 207 93C207 90.7909 203.866 89 200 89C196.134 89 193 90.7909 193 93C193 95.2091 196.134 97 200 97Z" fill="#2F2E41"/>
<path d="M191.894 104.243C191.894 104.243 189.71 105.941 189.224 106.184C188.739 106.426 185.826 104 185.341 104C184.856 104 178.545 111.279 178.545 111.279C178.545 111.279 179.718 112.629 178.545 119.528C178.105 122.116 177.233 133.178 177.233 134.634C177.233 136.089 172.478 139.667 176.846 142.821C181.215 145.975 202.088 149.372 202.33 147.431C202.573 145.49 199.903 140.395 201.117 137.968C202.33 135.542 202.33 126.565 202.33 126.565L203.786 117.102L205 109.581C205 109.581 199.296 108.003 198.811 108.003C198.326 108.003 196.141 111.4 191.894 104.243Z" fill="#3F3D56"/>
</svg>
