<svg width="285" height="231" viewBox="0 0 285 231" fill="none" xmlns="http://www.w3.org/2000/svg">
<path d="M285 152.563C285 195.884 221.199 231 142.5 231C100.221 231 62.2423 220.867 36.1475 204.768C19.1209 194.267 7.15093 181.225 2.34909 166.811C0.799359 162.221 0.00596181 157.408 0 152.563C0 109.246 118.089 -86.1512 142.5 74.1298C166.911 234.411 285 109.246 285 152.563Z" fill="#6C63FF"/>
<path opacity="0.1" d="M214 181C214 197.015 163.296 210 100.745 210C76.653 210 54.3187 208.074 35.9636 204.789C18.8538 194.275 6.8253 181.216 2 166.786C21.4183 157.96 58.363 152 100.745 152C163.296 152 214 164.985 214 181Z" fill="black"/>
<path d="M131.857 15.825C122.934 0.758955 105.28 0.0568322 105.28 0.0568322C105.28 0.0568322 88.0763 -2.14136 77.0406 20.8043C66.7544 42.1916 52.5581 62.8415 74.7551 67.8481L78.7645 55.3788L81.2475 68.7764C84.4079 69.0035 87.5784 69.0577 90.7448 68.9386C114.516 68.1717 137.154 69.1629 136.425 60.6396C135.456 49.309 140.444 30.3215 131.857 15.825Z" fill="#2F2E41"/>
<path d="M73.6187 148.087C73.2867 149.767 73.041 151.475 72.4767 153.09C71.9165 154.693 71.0516 156.175 70.5394 157.795C68.9066 162.957 71.1701 168.713 74.7852 172.698C77.9202 176.14 81.9669 178.585 86.4371 179.738C89.6984 180.573 93.0894 180.693 96.4503 180.809C105.757 181.13 115.303 181.418 124.122 178.374C126.908 177.389 129.599 176.145 132.161 174.658C132.97 174.265 133.683 173.694 134.247 172.986C134.92 172.012 135.006 170.748 135 169.557C134.98 165.543 134.18 161.549 134.37 157.538C134.475 155.317 134.884 153.098 134.683 150.884C134.227 145.862 130.308 141.367 125.462 140.308C122.96 139.761 120.366 140.059 117.819 140.308C111.208 140.955 104.568 141.257 97.9269 141.214C91.1411 141.17 84.3971 140.115 77.6451 140.005C75.6483 139.973 75.6886 140.599 75.0529 142.566C74.4673 144.376 73.9884 146.219 73.6187 148.087Z" fill="#2F2E41"/>
<path d="M92.9387 51.0776C92.6195 52.7737 92.2744 54.5319 91.27 55.9257C90.1144 57.5293 88.2301 58.4456 86.9869 59.9803C85.1156 62.2904 85.0082 65.541 85.0005 68.5314C84.9934 71.2861 85.0485 74.2244 86.5624 76.5111C87.5449 77.9951 89.0399 79.0355 90.501 80.0347C96.1784 83.9172 102.313 87.8693 109.158 87.9974C111.995 88.0504 115.036 87.3072 116.902 85.1393C117.708 84.121 118.341 82.9741 118.777 81.7452C120.527 77.3671 121.588 72.737 121.921 68.0244C122.077 65.8073 122.062 63.5255 121.322 61.4333C120.491 59.0806 118.809 57.1448 117.698 54.9142C116.384 52.2618 115.904 49.2644 116.321 46.3263C116.377 46.1194 116.36 45.8995 116.273 45.7039C116.182 45.5992 116.068 45.5175 115.94 45.4649C115.812 45.4124 115.674 45.3906 115.537 45.4012L101.964 44.4097C100.7 44.346 99.4412 44.1998 98.1956 43.9722C97.4639 43.8213 95.5314 42.7668 94.8338 43.0472C93.5423 43.5662 93.2034 49.6712 92.9387 51.0776Z" fill="#A0616A"/>
<path opacity="0.1" d="M92.9387 51.2571C92.6195 52.9909 92.2744 54.7881 91.27 56.2129C90.1144 57.8522 88.2301 58.7889 86.9869 60.3577C85.1156 62.7191 85.0082 66.042 85.0005 69.0988C84.9934 71.9147 85.0485 74.9183 86.5624 77.2557C87.5449 78.7728 89.0399 79.8363 90.501 80.8577C96.1784 84.8264 102.313 88.8664 109.158 88.9973C111.995 89.0515 115.036 88.2918 116.902 86.0757C117.708 85.0348 118.341 83.8624 118.777 82.6062C120.527 78.1308 121.588 73.3978 121.921 68.5805C122.077 66.3141 122.062 63.9817 121.322 61.8429C120.491 59.4379 118.809 57.4591 117.698 55.179C116.384 52.4676 115.904 49.4036 116.321 46.4002C116.377 46.1887 116.36 45.9639 116.273 45.764C116.182 45.657 116.068 45.5734 115.94 45.5197C115.812 45.466 115.674 45.4437 115.537 45.4545L101.964 44.441C100.7 44.3759 99.4412 44.2265 98.1956 43.9938C97.4639 43.8395 95.5314 42.7616 94.8338 43.0482C93.5423 43.5788 93.2034 49.8194 92.9387 51.2571Z" fill="black"/>
<path d="M106 53C117.046 53 126 43.8218 126 32.5C126 21.1782 117.046 12 106 12C94.9543 12 86 21.1782 86 32.5C86 43.8218 94.9543 53 106 53Z" fill="#A0616A"/>
<path d="M96.2261 77.6081C97.2684 78.7186 98.3728 79.8181 99.7386 80.4691C101.097 81.1166 102.628 81.2778 104.127 81.3208C107.732 81.4241 111.64 80.7508 114.147 78.1091C117.38 74.7038 117.273 69.2113 119.807 65.2386C120.011 64.8784 120.29 64.5678 120.624 64.3284C121.049 64.0925 121.529 63.98 122.012 64.0029C125.212 63.9724 128 66.088 130.516 68.1042C131.643 69.0074 132.798 69.9431 133.509 71.212C134.006 72.2014 134.347 73.2647 134.518 74.3627C135.767 80.5748 136.171 86.9265 136.572 93.2545C136.794 96.7497 137.016 100.248 136.999 103.751C136.945 115.29 134.314 126.636 131.697 137.863C131.36 139.309 130.899 140.926 129.608 141.619C129.033 141.883 128.415 142.037 127.785 142.073C120.291 142.97 112.781 143.868 105.236 143.987C102.291 144.033 99.3483 143.96 96.4064 143.769C95.9 143.762 95.3979 143.673 94.9191 143.504C94.2693 143.186 93.7108 142.703 93.2976 142.101C89.2164 136.858 88.9755 129.611 89.0016 122.919C89.0654 106.557 89.6389 90.2081 90.7221 73.8724C90.8116 72.5241 90.8311 70.8865 89.878 69.8258C91.5942 72.6264 93.9812 75.2163 96.2261 77.6081Z" fill="#D0CDE1"/>
<path d="M90.9989 54.7999C90.3206 56.0312 85.3196 59.0887 84.3541 60.1092C78.9597 65.8109 69.1142 65.5969 64.1807 71.7039C62.4449 73.8525 61.5431 76.5522 60.8798 79.2362C59.9417 83.0323 59.4409 87.1722 61.0123 90.7515C62.5244 94.1957 65.7075 96.5768 67.8686 99.6532C70.2415 103.031 71.3084 107.133 72.3308 111.135C73.0857 114.091 73.8469 117.119 73.5529 120.156C73.2186 123.608 71.5525 126.77 70.5688 130.095C69.5851 133.421 69.4153 137.381 71.6898 139.995C73.3608 141.915 75.9818 142.676 78.487 143.104C81.6846 143.651 84.9344 143.806 88.175 143.95C91.0388 144.077 94.1955 144.101 96.397 142.26C98.1341 140.808 98.8891 138.451 98.9869 136.185C99.0846 133.919 98.6144 131.673 98.3199 129.424C98.0146 127.093 97.8973 124.741 97.7992 122.392C97.3587 111.851 97.2986 101.304 97.6189 90.7501C97.6856 88.554 97.7665 86.3309 97.2995 84.1842C96.6853 81.3609 95.1637 78.8378 93.894 76.2438C91.3739 71.0949 90.182 66.0932 90.5716 60.3704C90.9561 54.7218 93.4127 50.4184 90.9989 54.7999Z" fill="#575A89"/>
<path d="M119.969 55.2074C121.007 56.2759 124.532 56.6281 125.851 57.3162C127.063 57.9483 128.405 58.2786 129.718 58.6578C134.531 60.0494 139.11 62.1553 143.301 64.9054C144.172 65.416 144.942 66.0825 145.573 66.8717C146.311 67.9009 146.579 69.1851 146.829 70.4276C147.475 73.6351 148.125 76.8814 147.979 80.1504C147.825 83.6204 146.782 86.9811 145.748 90.2962L141.881 102.683C138.996 111.929 136.091 121.266 135.279 130.919C134.83 136.269 135.03 141.654 135.874 146.956C135.959 147.489 136.03 148.1 135.679 148.51C135.425 148.762 135.089 148.916 134.732 148.946C132.866 149.238 131.061 148.285 129.37 147.441C124.203 144.864 118.688 143.056 113 142.073C115.223 138.854 116.938 135.312 118.084 131.57C118.736 129.194 119.249 126.781 119.621 124.346L121.419 113.921C122.079 110.099 122.739 106.266 122.962 102.394C123.098 100.942 123.014 99.4777 122.712 98.0512C122.367 96.675 121.682 95.4138 121.069 94.1351C118.105 87.9563 116.714 80.9052 117.88 74.15C118.391 71.1936 119.383 68.2334 118.969 65.2619C118.571 62.4049 118.985 60.1846 118.253 57.3572C115.25 45.7483 118.018 53.1973 119.969 55.2074Z" fill="#575A89"/>
<path d="M63.8103 81.2535C62.4477 84.0659 60.1695 86.4618 59.3941 89.487C59.0924 90.9009 58.9631 92.3457 59.009 93.7904C58.9907 95.9676 58.9787 98.189 59.6509 100.261C60.0837 101.595 60.7878 102.826 61.295 104.133C62.002 105.961 62.317 107.915 62.2197 109.87C62.0829 112.579 61.1575 115.209 61.0852 117.92C60.9715 122.185 62.9545 126.193 64.8894 130C65.3765 128.8 66.1211 127.721 67.0713 126.838C68.0215 125.954 69.1543 125.288 70.3904 124.886C71.6265 124.483 72.9362 124.354 74.2277 124.508C75.5192 124.661 76.7614 125.093 77.8674 125.774C78.3778 125.305 78.4323 124.535 78.4523 123.845C78.5953 118.898 78.7333 113.95 78.8662 109.003C79.0756 101.352 79.2752 93.5982 77.5055 86.1491C76.7064 82.7858 75.4632 79.4355 73.184 76.8269C71.9839 75.4533 67.9099 71.8353 65.9398 73.374C65.0539 74.066 65.261 75.9497 65.1206 76.9036C64.9087 78.4113 64.4669 79.8782 63.8103 81.2535Z" fill="#575A89"/>
<path d="M148.309 73.2447C148.943 75.2541 148.981 77.4012 148.994 79.5117C149.02 83.8168 148.964 88.1213 148.826 92.4253C148.755 94.6287 148.658 96.8624 148.001 98.9632C147.568 100.349 146.899 101.648 146.452 103.029C145.111 107.167 145.843 111.655 145.958 116.011C146.04 117.421 145.921 118.835 145.607 120.21C144.9 122.911 142.998 125.092 141.671 127.539C140.41 129.863 139.65 132.467 138.144 134.635C136.639 136.803 134.033 138.52 131.507 137.855C129.593 137.351 128.233 135.628 127.292 133.859C125.239 129.97 124.537 125.491 125.3 121.146C126.244 115.859 129.297 111.17 130.398 105.915C131.91 98.6984 129.612 91.2518 129.681 83.8738C129.649 82.7173 129.804 81.5633 130.137 80.4573C130.715 78.772 131.955 77.4262 133.101 76.0746C134.533 74.3855 135.863 72.6099 137.085 70.7575C137.905 69.5132 139.019 66.3127 140.474 66.0466C143.721 65.4525 147.503 70.6931 148.309 73.2447Z" fill="#575A89"/>
<path d="M47.5349 144.599C45.7316 144.145 43.8736 143.948 42.0154 144.012C40.063 144.12 38.1559 144.643 36.421 145.546C34.6861 146.449 33.1631 147.712 31.9533 149.25C30.7434 150.788 29.8745 152.566 29.4043 154.467C28.934 156.367 28.8732 158.346 29.226 160.271C29.6099 162.367 30.4723 164.344 31.4131 166.255C32.8768 169.23 34.6324 172.197 37.3422 174.103C38.9274 175.218 40.7621 175.913 42.5749 176.597L56.847 181.98C58.9466 182.772 61.0465 183.564 63.1669 184.298C73.8194 187.985 84.9254 190.196 96.1763 190.869C99.6033 191.073 103.082 191.13 106.425 190.349C107.219 190.163 108.065 189.887 108.524 189.213C108.796 188.739 108.957 188.208 108.993 187.662L109.872 181.507C109.995 180.64 110.114 179.728 109.797 178.912C109.395 177.877 108.386 177.226 107.425 176.673C98.0417 171.278 87.0861 168.301 79.1884 160.895C77.3291 159.152 75.7732 156.388 73.5143 155.204C70.9526 153.861 67.9358 153.095 65.288 151.857C59.4995 149.152 53.8084 146.043 47.5349 144.599Z" fill="#2F2E41"/>
<path opacity="0.1" d="M61.3234 153.431C66.3147 155.032 87.388 166.125 91 169.997C90.5158 170.176 74.0888 160.752 73.5959 160.6C69.1153 159.224 64.6099 157.838 60.3549 155.824C59.4989 155.418 54.7939 153.513 55.007 152.408C55.2475 151.16 60.4373 153.147 61.3234 153.431Z" fill="black"/>
<path d="M124.927 194.99C125.217 195.012 125.504 194.922 125.736 194.737C125.838 194.599 125.913 194.44 125.956 194.271C126 194.102 126.011 193.925 125.989 193.751C125.981 190.758 125.973 187.765 125.966 184.772C123.529 183.541 120.803 183.147 118.128 182.768L105.644 181C105.931 181.041 103.693 186.697 104.036 187.452C104.641 188.783 109.264 189.963 110.569 190.591C115.105 192.776 119.819 195.178 124.927 194.99Z" fill="#A0616A"/>
<path d="M86.5061 185.167C84.2064 185.547 81.6397 185.884 80.1504 187.743C78.2618 190.1 79.0658 193.615 79.9668 196.536C80.1006 197.126 80.3693 197.675 80.7502 198.135C81.365 198.765 82.3072 198.858 83.1691 198.914C85.2664 199.052 87.4983 199.16 89.3307 198.092C90.1985 197.586 90.9156 196.847 91.7242 196.244C93.0755 195.311 94.5609 194.605 96.1249 194.155C99.0002 193.216 101.96 192.582 104.959 192.264C106.134 192.14 107.333 192.06 108.438 191.627C109.544 191.195 110.568 190.337 110.889 189.156C111.314 187.596 110.44 186.005 109.603 184.636C108.56 182.932 107.454 181.137 105.899 179.882C103.629 178.051 102.506 179.456 100.22 180.628C95.8937 182.846 91.2706 184.376 86.5061 185.167Z" fill="#A0616A"/>
<path d="M79.7807 186.732L64.6714 182.124C62.8338 181.564 60.9649 180.999 59.0487 181C57.1325 181.001 55.1277 181.65 53.885 183.155C52.7134 184.573 52.3781 186.513 52.086 188.352L51.4612 192.287C51.1437 194.287 50.8255 196.325 51.1113 198.329C51.3971 200.334 52.389 202.337 54.113 203.308C56.2038 204.485 58.7664 203.91 61.0999 203.417C65.8133 202.423 70.6076 201.893 75.4182 201.833C77.2267 201.811 79.1236 201.834 80.7217 200.96C82.6213 199.921 83.7577 197.725 83.9531 195.516C84.2505 192.155 83.1647 187.764 79.7807 186.732Z" fill="#2F2E41"/>
<path d="M130.508 183.873C132.498 183.548 134.255 182.492 136.163 181.869C138.847 180.992 141.757 180.992 144.601 181.002C145.645 181.005 146.757 181.027 147.626 181.567C148.879 182.345 149.2 183.903 149.413 185.293C149.842 188.089 150.27 190.885 150.699 193.681C150.941 195.259 151.181 196.879 150.804 198.433C150.427 199.987 149.291 201.486 147.638 201.887C145.63 202.374 143.662 201.177 141.766 200.391C137.028 198.426 131.52 198.928 126.579 197.46C125.662 197.187 124.68 196.771 124.306 195.943C124.137 195.478 124.077 194.983 124.129 194.494C124.214 191.798 123.604 188.116 124.474 185.539C125.257 183.222 128.286 183.873 130.508 183.873Z" fill="#2F2E41"/>
<path d="M162.206 141.774C165.188 141.03 168.279 140.82 171.336 141.154C173.776 141.421 176.291 142.096 178.073 143.775C180.242 145.819 180.939 148.98 180.997 151.95C181.092 157.865 179.118 163.63 175.412 168.26C174.507 169.431 173.431 170.461 172.219 171.315C170.912 172.128 169.519 172.795 168.065 173.305L135.819 185.947C127.336 189.273 118.823 192.608 109.975 194.801C109.733 194.917 109.47 194.984 109.202 194.997C108.933 195.011 108.665 194.971 108.413 194.88C108.16 194.789 107.928 194.649 107.731 194.467C107.534 194.286 107.375 194.067 107.264 193.824C104.439 189.813 102.069 185.503 100.197 180.974C100.108 180.866 100.047 180.739 100.018 180.603C99.9898 180.467 99.9946 180.326 100.032 180.192C100.07 180.058 100.14 179.935 100.235 179.833C100.331 179.732 100.45 179.655 100.582 179.609L123.39 166.583C125.024 165.65 126.675 164.703 128.032 163.404C129.018 162.454 129.825 161.337 130.415 160.105C130.888 159.124 130.932 156.808 131.536 156.082C132.127 155.372 134.15 155.315 135.084 155.036C136.401 154.635 137.692 154.15 138.947 153.584C144.048 151.316 148.592 148.019 153.483 145.363C156.226 143.804 159.157 142.598 162.206 141.774Z" fill="#2F2E41"/>
<path opacity="0.1" d="M149.071 151.47C145.21 154.381 140.211 157.057 136.384 160.045C135.078 161.065 113.308 173.351 113 174.983C116.57 175.587 139.311 159.617 142.565 158.023C145.818 156.43 148.702 154.182 151.56 151.952C152.289 151.383 155.376 149.674 153.285 149.039C152.107 148.681 149.941 150.888 149.071 151.47Z" fill="black"/>
<path d="M122.767 55H88.6044C87.2165 55 85.8854 55.5528 84.904 56.5367C83.9226 57.5206 83.3712 58.8551 83.3712 60.2466V62.1678H83V66.4645H83.3712V69.4722H83V72.0502H83.3712V103.753C83.3712 105.145 83.9226 106.479 84.904 107.463C85.8854 108.447 87.2165 109 88.6044 109H122.767C124.155 109 125.486 108.447 126.467 107.463C127.449 106.479 128 105.145 128 103.753V60.2466C128 58.8551 127.449 57.5206 126.467 56.5367C125.486 55.5528 124.155 55 122.767 55Z" fill="#3F3D56"/>
<path d="M128.158 14.2258L110.474 5L86.0525 8.77436L81 31L93.5776 30.5181L97.0912 22.3526V30.3836L102.895 30.1613L106.263 17.1614L108.368 31L129 30.5806L128.158 14.2258Z" fill="#2F2E41"/>
<path d="M68.4421 138.179C69.2992 139.467 70.3035 140.726 71.6803 141.421C73.4006 142.289 75.5242 142.134 77.2469 141.271C78.9548 140.349 80.3528 138.939 81.2641 137.218C83.1495 133.867 83.5399 129.858 83.3047 126.015C83.0694 122.172 82.254 118.388 81.8931 114.555C81.6307 111.768 81.6094 108.965 81.5883 106.166C81.5838 105.578 81.5933 104.945 81.9386 104.47C82.3562 103.896 83.1208 103.738 83.7983 103.535C87.6035 102.398 90.1292 98.8086 91.94 95.2538C93.1491 92.8802 94.2005 90.2855 93.9674 87.6285C93.7342 84.9715 91.8364 82.2948 89.1995 82.0237C87.0256 81.8003 85.0183 83.1898 83.4502 84.7213C79.4944 88.6089 76.9521 93.7218 76.2318 99.2386C75.8875 101.94 75.9861 104.715 75.2559 107.338C73.6968 112.938 68.8187 116.371 66.3878 121.41C63.7091 126.963 65.1875 133.266 68.4421 138.179Z" fill="#A0616A"/>
<path d="M141.238 117.682C140.67 118.986 139.844 120.164 138.808 121.148C137.772 122.131 136.547 122.899 135.205 123.407C133.537 124.069 131.697 124.18 129.96 123.724C129.099 123.488 128.304 123.059 127.638 122.471C126.971 121.882 126.452 121.15 126.118 120.331C125.853 119.505 125.707 118.647 125.686 117.782C125.436 113.991 125.532 110.084 126.927 106.544C127.465 105.178 128.19 103.883 128.614 102.479C129.098 100.878 129.176 99.188 129.25 97.5183L129.708 87.1748C129.784 86.4239 129.731 85.6657 129.552 84.932C129.095 83.4354 127.679 82.4628 126.379 81.5703C123.24 79.4147 120.139 76.8995 118.618 73.4357C118.152 72.3758 117.845 71.1977 118.082 70.0662C118.51 68.0123 120.609 66.6826 122.684 66.2347C124.041 65.9415 125.445 65.9228 126.81 66.1796C128.175 66.4364 129.473 66.9634 130.626 67.7289C131.779 68.4944 132.764 69.4825 133.52 70.6336C134.276 71.7848 134.788 73.0752 135.026 74.4271C135.231 75.5944 135.228 76.7868 135.349 77.9656C135.603 80.4661 136.407 82.8764 136.91 85.34C138.149 91.4084 137.507 97.6813 138.732 103.749C139.756 108.822 143.618 112.132 141.238 117.682Z" fill="#A0616A"/>
<path d="M105.5 79C107.985 79 110 76.9853 110 74.5C110 72.0147 107.985 70 105.5 70C103.015 70 101 72.0147 101 74.5C101 76.9853 103.015 79 105.5 79Z" fill="#D0CDE1"/>
<path d="M173.681 60.1592C172.821 60.1592 172.051 60.0016 171.371 59.6865C170.691 59.3786 170.161 58.9596 169.781 58.4297C169.402 57.8997 169.212 57.3161 169.212 56.6787C169.212 56.292 169.291 55.9554 169.448 55.6689C169.613 55.3753 169.835 55.1533 170.114 55.0029C170.394 54.8454 170.701 54.7666 171.038 54.7666C171.353 54.7666 171.647 54.8382 171.919 54.9814C172.191 55.1247 172.41 55.3288 172.574 55.5938C172.739 55.8516 172.821 56.1488 172.821 56.4854C172.821 56.8434 172.703 57.1872 172.467 57.5166C172.238 57.8389 171.958 58.0967 171.629 58.29C171.758 58.4762 172.019 58.6302 172.413 58.752C172.814 58.8809 173.197 58.9453 173.562 58.9453C173.978 58.9453 174.343 58.8773 174.658 58.7412C174.973 58.6123 175.224 58.4297 175.41 58.1934C175.582 57.9785 175.718 57.6885 175.818 57.3232C175.926 56.9508 176.001 56.5462 176.044 56.1094C176.08 55.6654 176.098 55.182 176.098 54.6592V43.3691H173.079V41.833H181.179V43.3691H178.622V54.3691C178.622 55.071 178.579 55.6904 178.493 56.2275C178.407 56.7575 178.257 57.2695 178.042 57.7637C177.82 58.2793 177.526 58.7054 177.161 59.042C176.796 59.3786 176.323 59.6471 175.743 59.8477C175.142 60.0553 174.454 60.1592 173.681 60.1592ZM187.742 58.29C186.618 58.29 185.63 58.0322 184.777 57.5166C183.925 56.9938 183.266 56.2741 182.801 55.3574C182.342 54.4408 182.113 53.3988 182.113 52.2314C182.113 51.0713 182.332 50.0365 182.769 49.127C183.213 48.2174 183.861 47.4977 184.713 46.9678C185.572 46.4307 186.575 46.1621 187.721 46.1621C188.566 46.1621 189.343 46.3161 190.052 46.624C190.768 46.932 191.366 47.3617 191.846 47.9131C192.318 48.4574 192.68 49.1019 192.931 49.8467C193.181 50.5843 193.307 51.3792 193.307 52.2314C193.307 53.3844 193.088 54.4157 192.651 55.3252C192.215 56.2275 191.574 56.9437 190.729 57.4736C189.883 58.0179 188.888 58.29 187.742 58.29ZM187.742 56.9258C188.372 56.9258 188.92 56.7396 189.386 56.3672C189.858 55.9876 190.22 55.4541 190.471 54.7666C190.721 54.0791 190.847 53.2806 190.847 52.3711C190.847 51.3757 190.739 50.5234 190.524 49.8145C190.31 49.0983 189.969 48.5254 189.504 48.0957C189.024 47.6589 188.43 47.4404 187.721 47.4404C187.026 47.4404 186.435 47.6553 185.948 48.085C185.461 48.5146 185.11 49.1019 184.896 49.8467C184.681 50.5628 184.573 51.4043 184.573 52.3711C184.573 53.2806 184.699 54.0791 184.949 54.7666C185.207 55.4541 185.576 55.9876 186.056 56.3672C186.535 56.7396 187.098 56.9258 187.742 56.9258ZM197.711 44.4434C197.424 44.4434 197.16 44.3717 196.916 44.2285C196.673 44.0853 196.479 43.8919 196.336 43.6484C196.193 43.4049 196.121 43.1436 196.121 42.8643C196.121 42.5706 196.193 42.3021 196.336 42.0586C196.479 41.8079 196.673 41.611 196.916 41.4678C197.16 41.3245 197.424 41.2529 197.711 41.2529C197.99 41.2529 198.252 41.3281 198.495 41.4785C198.746 41.6217 198.943 41.8187 199.086 42.0693C199.236 42.3128 199.312 42.5778 199.312 42.8643C199.312 43.1436 199.236 43.4049 199.086 43.6484C198.943 43.8919 198.746 44.0853 198.495 44.2285C198.252 44.3717 197.99 44.4434 197.711 44.4434ZM194.692 58V56.7969H196.766V47.6768H194.671V46.4736H199.075V56.7969H201.181V58H194.692ZM201.782 56.7969H203.877V47.6768H201.782V46.4736L205.854 46.291L206.122 48.6328C206.344 48.1172 206.659 47.6732 207.067 47.3008C207.476 46.9284 207.93 46.6455 208.432 46.4521C208.933 46.2588 209.438 46.1621 209.946 46.1621C210.19 46.1621 210.405 46.1729 210.591 46.1943C210.784 46.2158 210.995 46.2624 211.225 46.334C211.482 46.4128 211.708 46.513 211.901 46.6348C212.102 46.7565 212.306 46.9212 212.514 47.1289C212.729 47.3509 212.904 47.6051 213.04 47.8916C213.176 48.1709 213.291 48.5182 213.384 48.9336C213.47 49.349 213.513 49.818 213.513 50.3408V56.7969H215.715V58H209.237V56.7969H211.203V50.3623C211.203 49.4528 211.024 48.7725 210.666 48.3213C210.308 47.863 209.803 47.6338 209.151 47.6338C208.75 47.6338 208.378 47.709 208.034 47.8594C207.698 48.0098 207.415 48.2174 207.186 48.4824C206.964 48.7402 206.774 49.0482 206.616 49.4062C206.466 49.7572 206.358 50.126 206.294 50.5127C206.222 50.8708 206.187 51.2682 206.187 51.7051V56.7969H208.142V58H201.782V56.7969ZM229.562 58.29C228.588 58.29 227.678 58.1361 226.833 57.8281C225.988 57.513 225.261 57.0798 224.652 56.5283C224.065 55.9912 223.56 55.3646 223.138 54.6484C222.722 53.9251 222.418 53.1624 222.225 52.3604C222.024 51.5654 221.924 50.7454 221.924 49.9004C221.924 48.153 222.328 46.5739 223.138 45.1631C223.567 44.4183 224.079 43.7809 224.674 43.251C225.275 42.7139 225.984 42.2878 226.801 41.9727C227.66 41.6576 228.58 41.5 229.562 41.5C230.535 41.5 231.445 41.6576 232.29 41.9727C233.142 42.2878 233.869 42.721 234.471 43.2725C235.058 43.8096 235.559 44.4398 235.975 45.1631C236.39 45.8792 236.698 46.6383 236.898 47.4404C237.092 48.2425 237.188 49.0625 237.188 49.9004C237.188 51.6478 236.784 53.2269 235.975 54.6377C235.545 55.3825 235.033 56.0199 234.438 56.5498C233.844 57.0798 233.139 57.4987 232.322 57.8066C231.477 58.1289 230.557 58.29 229.562 58.29ZM229.562 56.7861C230.313 56.7861 231.005 56.5964 231.635 56.2168C232.272 55.8301 232.795 55.3037 233.203 54.6377C233.604 53.9932 233.909 53.2663 234.116 52.457C234.331 51.6406 234.438 50.7956 234.438 49.9219C234.438 49.2201 234.37 48.5361 234.234 47.8701C234.105 47.2041 233.905 46.5846 233.633 46.0117C233.038 44.7513 232.254 43.8776 231.28 43.3906C230.757 43.1328 230.185 43.0039 229.562 43.0039C228.81 43.0039 228.118 43.1973 227.488 43.584C226.858 43.9635 226.335 44.4863 225.92 45.1523C225.519 45.804 225.211 46.5381 224.996 47.3545C224.781 48.1637 224.674 49.0052 224.674 49.8789C224.674 51.3613 224.946 52.6719 225.49 53.8105C225.777 54.4264 226.11 54.9528 226.489 55.3896C226.876 55.8193 227.327 56.1559 227.843 56.3994C228.373 56.6572 228.946 56.7861 229.562 56.7861ZM247.565 55.8838C246.663 57.488 245.37 58.29 243.688 58.29C243.43 58.29 243.186 58.2721 242.957 58.2363C242.728 58.2005 242.47 58.1361 242.184 58.043C241.654 57.8783 241.17 57.4844 240.733 56.8613C240.526 56.5677 240.365 56.1882 240.25 55.7227C240.135 55.25 240.078 54.7201 240.078 54.1328V47.6768H238.059V46.4736H242.388V54.1113C242.388 55.0566 242.538 55.7406 242.839 56.1631C243.14 56.5856 243.612 56.7969 244.257 56.7969C244.715 56.7969 245.195 56.6608 245.696 56.3887C246.205 56.1165 246.631 55.7585 246.975 55.3145C247.318 54.8704 247.49 54.4229 247.49 53.9717V47.6768H245.535V46.4736H249.811V56.7861L251.895 57.0117V58L247.565 58.3115V55.8838ZM252.442 56.7969H254.537V47.6768H252.442V46.4736L256.514 46.291L256.804 48.8047C256.983 48.196 257.309 47.623 257.781 47.0859C258.032 46.7995 258.34 46.5739 258.705 46.4092C259.077 46.2445 259.475 46.1621 259.897 46.1621C260.291 46.1621 260.649 46.2373 260.972 46.3877C261.294 46.5309 261.548 46.7422 261.734 47.0215C261.928 47.3008 262.024 47.6302 262.024 48.0098C262.024 48.3678 261.949 48.6829 261.799 48.9551C261.656 49.2201 261.459 49.4242 261.208 49.5674C260.957 49.7035 260.682 49.7715 260.381 49.7715C259.958 49.7715 259.597 49.639 259.296 49.374C259.002 49.109 258.855 48.7653 258.855 48.3428C258.855 48.2067 258.888 48.0599 258.952 47.9023C259.024 47.7448 259.099 47.6159 259.178 47.5156L259.296 47.3975C258.873 47.3975 258.497 47.5299 258.168 47.7949C257.839 48.0527 257.581 48.4108 257.395 48.8691C257.029 49.7572 256.847 50.7419 256.847 51.8232V56.7969H259.264V58H252.442V56.7969ZM188.773 87V85.4639H191.362V72.3691H188.773V70.833H194.574L202.212 84.1426V72.3691H199.591V70.833H206.724V72.3691H204.264V87H201.396L193.414 73.1211V85.4639H195.874V87H188.773ZM213.298 87.29C212.438 87.29 211.647 87.1289 210.924 86.8066C210.201 86.4772 209.603 86.026 209.13 85.4531C208.664 84.8945 208.306 84.2643 208.056 83.5625C207.812 82.8607 207.69 82.1338 207.69 81.3818C207.69 80.7301 207.766 80.0999 207.916 79.4912C208.074 78.8825 208.303 78.3203 208.604 77.8047C209.262 76.6803 210.143 75.9105 211.246 75.4951C211.826 75.2731 212.467 75.1621 213.169 75.1621C213.899 75.1621 214.58 75.291 215.21 75.5488C215.84 75.8066 216.392 76.179 216.864 76.666C217.344 77.1673 217.72 77.7975 217.992 78.5566C218.271 79.3158 218.418 80.1572 218.433 81.0811H210.15V81.167C210.15 82.4131 210.415 83.4622 210.945 84.3145C211.21 84.7441 211.565 85.0807 212.009 85.3242C212.453 85.5605 212.958 85.6787 213.523 85.6787C214.025 85.6787 214.508 85.5749 214.974 85.3672C215.446 85.1523 215.854 84.8444 216.198 84.4434C216.549 84.0352 216.8 83.5589 216.95 83.0146L218.207 83.4121C218.021 84.1999 217.702 84.8874 217.251 85.4746C216.8 86.0547 216.238 86.5023 215.564 86.8174C214.891 87.1325 214.136 87.29 213.298 87.29ZM216.069 79.9209C216.055 79.2406 215.919 78.639 215.661 78.1162C215.41 77.5863 215.07 77.1745 214.641 76.8809C214.218 76.5872 213.749 76.4404 213.233 76.4404C212.711 76.4404 212.231 76.5872 211.794 76.8809C211.357 77.1745 210.999 77.5863 210.72 78.1162C210.448 78.639 210.283 79.2406 210.226 79.9209H216.069ZM219.539 87V85.7969H221.226L224.856 81.3496L221.054 76.6768H219.292V75.4736H225.383V76.6768H223.782L226.199 79.9209L228.638 76.6768H226.908V75.4736H232.322V76.6768H230.561L227.166 80.8555L231.173 85.7969H232.956V87H226.575V85.7969H228.487L225.931 82.2734L223.138 85.7969H225.082V87H219.539ZM238.456 87.29C237.532 87.29 236.741 87.0179 236.082 86.4736C235.738 86.1943 235.466 85.8255 235.266 85.3672C235.072 84.9089 234.976 84.3968 234.976 83.8311V76.6768H232.784V76.1719C233.314 76.0143 233.805 75.7279 234.256 75.3125C234.707 74.8971 235.076 74.4281 235.362 73.9053C235.627 73.4326 235.864 72.9528 236.071 72.4658C236.336 71.8571 236.515 71.4668 236.608 71.2949C236.759 70.987 236.891 70.833 237.006 70.833C237.092 70.833 237.16 70.8652 237.21 70.9297C237.26 70.9941 237.285 71.0872 237.285 71.209V75.4736H241.518V76.6982H237.285V83.8955C237.285 84.5114 237.425 84.9805 237.704 85.3027C237.983 85.625 238.367 85.7861 238.854 85.7861C239.448 85.7861 239.885 85.5928 240.164 85.2061C240.451 84.8122 240.594 84.1569 240.594 83.2402V81.6934H241.883V83.0146C241.883 83.9886 241.772 84.7871 241.55 85.4102C241.328 86.0332 240.966 86.5023 240.465 86.8174C239.964 87.1325 239.294 87.29 238.456 87.29ZM178.461 116V114.464H181.104V101.369H178.461V99.833H193.07V106.053H191.126V101.369H183.628V107.181H187.635V104.538H189.063V111.209H187.635V108.405H183.628V114.464H191.126V109.866H193.07V116H178.461ZM200.869 116.419C200.497 116.412 200.182 116.283 199.924 116.032C199.666 115.782 199.437 115.381 199.236 114.829L195.874 105.677H193.897V104.474H200.386V105.677H198.431L201.267 114.303L204.017 105.677H202.19V104.474H207.69V105.677H205.843L202.674 114.765C202.466 115.352 202.226 115.774 201.954 116.032C201.682 116.29 201.342 116.419 200.934 116.419H200.869ZM213.556 116.29C212.696 116.29 211.905 116.129 211.182 115.807C210.458 115.477 209.86 115.026 209.388 114.453C208.922 113.895 208.564 113.264 208.313 112.562C208.07 111.861 207.948 111.134 207.948 110.382C207.948 109.73 208.023 109.1 208.174 108.491C208.331 107.882 208.561 107.32 208.861 106.805C209.52 105.68 210.401 104.91 211.504 104.495C212.084 104.273 212.725 104.162 213.427 104.162C214.157 104.162 214.838 104.291 215.468 104.549C216.098 104.807 216.649 105.179 217.122 105.666C217.602 106.167 217.978 106.798 218.25 107.557C218.529 108.316 218.676 109.157 218.69 110.081H210.408V110.167C210.408 111.413 210.673 112.462 211.203 113.314C211.468 113.744 211.823 114.081 212.267 114.324C212.711 114.561 213.215 114.679 213.781 114.679C214.283 114.679 214.766 114.575 215.231 114.367C215.704 114.152 216.112 113.844 216.456 113.443C216.807 113.035 217.058 112.559 217.208 112.015L218.465 112.412C218.279 113.2 217.96 113.887 217.509 114.475C217.058 115.055 216.495 115.502 215.822 115.817C215.149 116.132 214.394 116.29 213.556 116.29ZM216.327 108.921C216.313 108.241 216.177 107.639 215.919 107.116C215.668 106.586 215.328 106.174 214.898 105.881C214.476 105.587 214.007 105.44 213.491 105.44C212.968 105.44 212.489 105.587 212.052 105.881C211.615 106.174 211.257 106.586 210.978 107.116C210.705 107.639 210.541 108.241 210.483 108.921H216.327ZM220.033 114.797H222.128V105.677H220.033V104.474L224.104 104.291L224.373 106.633C224.595 106.117 224.91 105.673 225.318 105.301C225.727 104.928 226.181 104.646 226.683 104.452C227.184 104.259 227.689 104.162 228.197 104.162C228.441 104.162 228.656 104.173 228.842 104.194C229.035 104.216 229.246 104.262 229.476 104.334C229.733 104.413 229.959 104.513 230.152 104.635C230.353 104.757 230.557 104.921 230.765 105.129C230.979 105.351 231.155 105.605 231.291 105.892C231.427 106.171 231.542 106.518 231.635 106.934C231.721 107.349 231.764 107.818 231.764 108.341V114.797H233.966V116H227.488V114.797H229.454V108.362C229.454 107.453 229.275 106.772 228.917 106.321C228.559 105.863 228.054 105.634 227.402 105.634C227.001 105.634 226.629 105.709 226.285 105.859C225.949 106.01 225.666 106.217 225.437 106.482C225.215 106.74 225.025 107.048 224.867 107.406C224.717 107.757 224.609 108.126 224.545 108.513C224.473 108.871 224.438 109.268 224.438 109.705V114.797H226.393V116H220.033V114.797ZM239.573 116.29C238.649 116.29 237.858 116.018 237.199 115.474C236.855 115.194 236.583 114.826 236.383 114.367C236.189 113.909 236.093 113.397 236.093 112.831V105.677H233.901V105.172C234.431 105.014 234.922 104.728 235.373 104.312C235.824 103.897 236.193 103.428 236.479 102.905C236.744 102.433 236.981 101.953 237.188 101.466C237.453 100.857 237.632 100.467 237.726 100.295C237.876 99.987 238.008 99.833 238.123 99.833C238.209 99.833 238.277 99.8652 238.327 99.9297C238.377 99.9941 238.402 100.087 238.402 100.209V104.474H242.635V105.698H238.402V112.896C238.402 113.511 238.542 113.98 238.821 114.303C239.101 114.625 239.484 114.786 239.971 114.786C240.565 114.786 241.002 114.593 241.281 114.206C241.568 113.812 241.711 113.157 241.711 112.24V110.693H243V112.015C243 112.989 242.889 113.787 242.667 114.41C242.445 115.033 242.083 115.502 241.582 115.817C241.081 116.132 240.411 116.29 239.573 116.29ZM247.984 111.155L246.975 100.112H249.768L248.758 111.155H247.984ZM248.403 116.215C248.117 116.215 247.852 116.143 247.608 116C247.372 115.857 247.182 115.663 247.039 115.42C246.896 115.176 246.824 114.915 246.824 114.636C246.824 114.342 246.896 114.074 247.039 113.83C247.182 113.587 247.372 113.393 247.608 113.25C247.852 113.107 248.117 113.035 248.403 113.035C248.683 113.035 248.948 113.11 249.198 113.261C249.449 113.404 249.646 113.597 249.789 113.841C249.939 114.084 250.015 114.349 250.015 114.636C250.015 114.915 249.939 115.176 249.789 115.42C249.646 115.663 249.449 115.857 249.198 116C248.948 116.143 248.683 116.215 248.403 116.215Z" fill="#333333"/>
</svg>
