<?xml version="1.0" encoding="utf-8"?>
<!-- Generator: Adobe Illustrator 23.0.3, SVG Export Plug-In . SVG Version: 6.00 Build 0)  -->
<svg version="1.1" id="Layer_1" xmlns="http://www.w3.org/2000/svg" xmlns:xlink="http://www.w3.org/1999/xlink" x="0px" y="0px"
	 viewBox="0 0 360 144" style="enable-background:new 0 0 360 144;" xml:space="preserve">
<style type="text/css">
	.st0{fill:#565656;}
	.st1{fill:#010101;}
	.st2{opacity:0.98;fill:#010101;enable-background:new    ;}
</style>
<path class="st0" d="M170.9,73.9c-0.6-1.3-1.5-2.4-2.6-3.3c-1.1-0.9-2.3-1.6-3.7-2.3c-1.4-0.7-2.8-1.3-4.3-1.7
	c-2.7-0.8-5.4-1.8-8-2.9c-1.1-0.4-2-1-2.7-1.8c-0.6-0.7-0.9-1.5-0.9-2.4c0-1.2,0.4-2.2,1.2-3.1c0.8-0.9,1.8-1.5,3.1-1.9
	c1.3-0.4,2.7-0.6,4.3-0.6c2.9,0.1,5.4,0.7,7.6,1.9l-1.2,0.8c-0.3,0.3-0.7,0.7-1,1.2c-0.3,0.5-0.5,1.1-0.5,1.7c0,1.3,0.4,2.4,1.2,3.3
	c0.9,0.8,2,1.3,3.3,1.3c0.8,0,1.5-0.2,2.2-0.6c0.7-0.4,1.2-1,1.7-1.8c0.4-0.8,0.7-1.7,0.7-2.7c0-1.3-0.4-2.5-1.2-3.6
	c-0.9-1.1-2-2.1-3.5-2.8c-1.4-0.7-3-1.3-4.7-1.7c-1.7-0.4-3.3-0.6-4.9-0.7c-1,0-2.2,0-3.5,0.2c-1.3,0.2-2.6,0.5-3.9,1
	c-1.3,0.5-2.5,1.1-3.5,1.8c-1.1,0.8-2,1.8-2.7,3c-0.7,1.2-1,2.6-1.1,4.1c0,1.5,0.2,2.9,0.8,4.1c0.6,1.2,1.5,2.2,2.6,3
	c1.1,0.8,2.3,1.5,3.6,2.1c1.4,0.6,2.8,1.2,4.3,1.6c2.9,0.8,5.5,1.8,8,3c1.1,0.5,2,1.2,2.6,2.1c0.6,0.9,0.9,1.9,0.9,2.9
	c0,1.5-0.6,2.7-1.6,3.5c-1,0.9-2.1,1.5-3.5,1.8c-1.3,0.3-2.9,0.5-4.8,0.4c-1.5,0-3-0.3-4.5-0.7c-1.5-0.5-2.6-1-3.5-1.7
	c0.6,0,1.1-0.1,1.7-0.5c0.5-0.4,1-0.8,1.3-1.4c0.3-0.6,0.5-1.3,0.5-2c0-1.3-0.4-2.3-1.2-3.1c-0.8-0.8-1.9-1.2-3.3-1.2
	c-0.8,0-1.6,0.2-2.3,0.6c-0.7,0.4-1.3,1-1.8,1.8c-0.5,0.8-0.7,1.6-0.7,2.6c0,1.6,0.4,3,1.2,4.3c0.9,1.3,2,2.3,3.5,3
	c2.9,1.5,6.2,2.3,9.9,2.4c1.6,0,3.1,0,4.5-0.2c1.5-0.2,2.9-0.5,4.2-1c1.4-0.5,2.5-1.1,3.5-1.9c1-0.8,1.9-1.9,2.5-3.1
	c0.6-1.3,1-2.7,1-4.4C171.8,76.7,171.5,75.2,170.9,73.9z"/>
<path class="st0" d="M98,76.1l-1.8-0.6c-0.6-0.2-1.3,0.1-1.5,0.7c-0.5,1.3-1.2,2.5-2.1,3.5c-1.1,1.3-2.4,2.3-3.9,3
	c-1.5,0.7-3,1-4.7,1c-1.8,0-3.4-0.4-4.9-1.1c-1.4-0.8-2.6-1.9-3.4-3.2c-1.7-2.7-2.6-6.1-2.6-10.1c0-0.2,0.1-0.3,0.3-0.3l25.1,0
	c0.7,0,1.3-0.6,1.2-1.3c-0.1-2.5-0.6-4.7-1.4-6.8c-0.9-2.4-2.1-4.5-3.6-6.1c-1.5-1.6-3.3-2.8-5.3-3.6c-2-0.8-4.2-1.2-6.6-1.2
	c-2.3,0-4.3,0.4-6.2,1.1c-3.5,1.3-6.4,3.8-8.5,7.4c-1,1.7-1.7,3.5-2.2,5.4c-0.5,2-0.7,4-0.7,6.1c0,2.4,0.4,4.8,1.2,7
	c0.8,2.3,2,4.3,3.5,6.1c1.5,1.8,3.4,3.3,5.8,4.3c2.3,1,4.9,1.5,7.6,1.5c2.7,0,5.1-0.5,7.3-1.5c2.2-1,4-2.5,5.4-4.3
	c1.2-1.6,2.1-3.4,2.8-5.5C99,77,98.7,76.3,98,76.1z M73.5,64.9c0.2-2.1,0.7-3.9,1.6-5.5c0.9-1.7,2-3,3.4-4c1.4-0.9,2.9-1.4,4.6-1.4
	c1.7,0,3.2,0.5,4.5,1.4c1.4,0.9,2.5,2.3,3.3,4c0.8,1.6,1.2,3.4,1.3,5.5c0,0.2-0.1,0.3-0.3,0.3l-18.2,0
	C73.6,65.2,73.5,65.1,73.5,64.9z"/>
<path class="st0" d="M141.4,52.7c0-0.7-0.5-1.2-1.2-1.2l-14.6-0.1c-0.7,0-1.2,0.5-1.2,1.2l0,1.4c0,0.7,0.5,1.2,1.2,1.2l2.9,0
	c0.8,0,1.3,0.8,1.1,1.6l-7,21.5c-0.4,1.1-1.9,1.1-2.3,0l-7-21.6c-0.3-0.8,0.3-1.6,1.1-1.6l3.3,0c0.7,0,1.2-0.5,1.2-1.2l0-1.4
	c0-0.7-0.5-1.2-1.2-1.2l-16.3-0.1c-1.5,0-2.6,1.2-2.6,2.5c0,0.7,0.5,1.2,1.2,1.2l4.1,0c0.5,0,0.9,0.3,1.1,0.8l2,5.7l4.6,12.7l3.3,9
	c1.3,3.4,2.7,4.8,5.2,5l0.2,0c2.6,0,4.1-1.5,5.4-5.1l9.6-27.1c0.1-0.5,0.6-0.8,1.1-0.8l3.6,0c0.7,0,1.2-0.5,1.2-1.2L141.4,52.7z"/>
<path class="st0" d="M63.4,62.8c0-3.9-0.6-7.4-1.9-10.4c-1.3-3-2.9-5.4-5-7.3c-2.1-1.9-4.7-3.5-7.8-4.8c-2.9-1.2-6-2-9.1-2.5
	c-3.2-0.5-11.3-1.8-11.3-1.8l-0.4,0.6L27.5,37c-0.4-0.4-1.2-1.4-2.7-1.5c0.1,0.5-0.1,0.7,0,1.3c-0.8-0.3-0.6-1.3-1.3-2.2
	c-0.6,0.4-1.5,1.9-2.1,2.4l-5.6,0c-1.4,0-2.5,1.1-2.5,2.5c0,1.4,1.1,2.5,2.5,2.5l3.5,0c1.4,0,2.5,1.1,2.5,2.5l-0.2,37.2
	c0,1.4-1.1,2.5-2.5,2.5l-3.5,0c-1.4,0-2.5,1.1-2.5,2.5l0,0c0,1.4,1.1,2.5,2.5,2.5L30,88.9c4,0,7.6-0.3,11-0.9
	c3.4-0.6,6.4-1.6,9.2-2.9c2.8-1.3,5.1-3,7.1-5c1.9-2,3.4-4.5,4.5-7.5C62.8,69.7,63.4,66.4,63.4,62.8z M49.8,77.4
	c-1.4,1.6-3.2,2.9-5.4,3.9c-2.1,1-4.3,1.7-6.7,2.1c-1.6,0.3-3.4,0.5-5.4,0.5c-1.4,0.1-2.6-1.1-2.6-2.5l0.2-37c0-1.4,1.2-2.5,2.6-2.5
	c1,0,2,0.1,2.9,0.2c1.7,0.2,3.5,0.5,5.2,0.9c1.7,0.4,3.2,0.9,4.6,1.5c1.4,0.7,2.7,1.6,3.9,2.6c1.2,1.1,2.2,2.3,3,3.7
	c0.8,1.5,1.5,3.2,1.9,5.2c0.5,2,0.7,4.2,0.7,6.6c0,3.3-0.5,6.2-1.3,8.6C52.4,73.8,51.2,75.8,49.8,77.4z"/>
<path class="st1" d="M251.6,88c-1,0-1.9-0.2-2.7-0.5c-0.8-0.3-1.5-0.8-2-1.4c-0.5-0.6-1-1.4-1.4-2.4c-0.4-1-0.8-2.1-1.1-3.3
	c-0.3-1.3-0.6-2.7-0.8-4c-0.1-0.9-0.4-1.8-0.8-2.6c-0.4-0.8-0.7-1.4-1.1-1.8c-0.4-0.4-0.8-0.7-1.2-1c-0.4-0.3-0.8-0.5-1.1-0.5
	c-0.3-0.1-0.5-0.1-0.7-0.1l-5,0c-0.4,0-0.8,0.3-0.8,0.8l0,11.7c0,0.4,0.3,0.8,0.8,0.8l4,0c0.4,0,0.8,0.3,0.8,0.8l0,1.9
	c0,0.4-0.3,0.8-0.8,0.8l-15.7,0c-0.4,0-0.8-0.3-0.8-0.8l0-1.9c0-0.4,0.3-0.8,0.8-0.8l4.4,0c0.4,0,0.8-0.3,0.8-0.8l0.1-28.3
	c0-0.4-0.3-0.8-0.8-0.8l-4.4,0c-0.4,0-0.8-0.3-0.8-0.8l0-1.9c0-0.4,0.3-0.8,0.8-0.8l13.3,0l1.2,0c1.1,0,2,0,2.7,0.1
	c0.7,0,1.7,0.1,2.8,0.2c1.4,0.1,2.5,0.3,3.3,0.5c0.9,0.2,1.9,0.6,2.9,1.1c1,0.5,1.8,1,2.4,1.7c0.6,0.7,1.1,1.5,1.6,2.6
	c0.4,1,0.6,2.2,0.6,3.6c0,2.9-0.9,5-2.7,6.4c-0.9,0.7-1.8,1.2-2.8,1.6c-0.4,0.1-0.8,0.3-1.2,0.4c-0.7,0.2-0.7,1.1-0.1,1.4
	c0,0,0,0,0,0c0.6,0.3,1.2,0.8,1.6,1.3c0.4,0.5,0.7,1.1,1,1.7c0.3,0.6,0.5,1.4,0.8,2.4c0.2,0.8,0.5,2.1,0.9,4
	c0.1,0.6,0.2,1.1,0.4,1.7c0.2,0.6,0.4,1,0.6,1.4c0.2,0.4,0.5,0.7,0.8,0.9c0.3,0.2,0.7,0.3,1.1,0.3c1.7,0,2.5-1.5,2.5-4.6l0-2.6
	c0-0.4,0.3-0.8,0.8-0.8l1.8,0c0.4,0,0.8,0.3,0.8,0.8l0,2.8C258.9,85.1,256.5,88,251.6,88z M235.9,66.7c2.6,0,4.8-0.2,6.4-0.5
	c1.6-0.4,2.9-1,3.8-1.9c0.9-0.9,1.4-2.2,1.4-3.7c0-1.3-0.2-2.4-0.7-3.3c-0.5-0.9-1.2-1.6-2.2-2.1c-1-0.5-2.2-0.8-3.6-1
	c-1.4-0.2-3.1-0.3-5.3-0.3l-2.1,0c-0.4,0-0.8,0.3-0.8,0.8l0,11.3c0,0.4,0.3,0.8,0.8,0.8L235.9,66.7z"/>
<path class="st1" d="M264.4,85.5L264.4,85.5c0-1,0.8-1.7,1.8-1.7l2.2,0c1,0,1.8-0.8,1.8-1.7l0.3-26.3c0-1-0.8-1.8-1.7-1.8l-5.9-0.1
	c-1,0-1.8,0.8-1.8,1.7l-0.1,7.9c0,1-0.8,1.7-1.8,1.7l-1.1,0c-1,0-1.7-0.8-1.7-1.8l0.1-11.4c0-1,0.8-1.7,1.8-1.7l29.9,0.3
	c1,0,1.7,0.8,1.7,1.8l-0.1,11.4c0,1-0.8,1.7-1.8,1.7l-1.1,0c-1,0-1.7-0.8-1.7-1.8l0.1-7.9c0-1-0.8-1.8-1.7-1.8l-5.7-0.1
	c-1,0-1.8,0.8-1.8,1.7l-0.3,26.3c0,1,0.8,1.8,1.7,1.8l2.4,0c1,0,1.7,0.8,1.7,1.8l0,0c0,1-0.8,1.7-1.8,1.7l-13.8-0.1
	C265.1,87.2,264.4,86.4,264.4,85.5z"/>
<path class="st1" d="M295.8,83.9l2.4,0c1,0,1.7-0.8,1.7-1.8l-0.2-26.3c0-1-0.8-1.7-1.8-1.7l-2.4,0c-1,0-1.8-0.8-1.8-1.7l0,0
	c0-1,0.8-1.8,1.7-1.8l13.3-0.1c1.2,0,2.2,0,2.9,0c0.8,0,1.7,0.1,2.9,0.2c1.2,0.1,2.3,0.3,3.1,0.6c0.9,0.2,1.8,0.6,2.8,1.1
	c1,0.5,1.8,1.1,2.4,1.8c0.6,0.7,1.2,1.5,1.6,2.6c0.4,1,0.6,2.2,0.6,3.6c0,1.3-0.2,2.5-0.5,3.5c-0.4,1.1-0.8,2-1.4,2.7
	c-0.6,0.7-1.3,1.3-2.3,1.8c-0.9,0.5-1.9,1-2.9,1.3c-0.9,0.3-1.9,0.5-3.2,0.7c-1.3,0.2-2.5,0.3-3.6,0.3c-1,0.1-2.3,0.1-3.6,0.1
	l-0.2,0c-1,0-1.7,0.8-1.7,1.8l0.1,9.5c0,1,0.8,1.7,1.8,1.7l2.6,0c1,0,1.8,0.8,1.8,1.7v0c0,1-0.8,1.8-1.7,1.8l-14.3,0.1
	c-1,0-1.8-0.8-1.8-1.7v0C294.1,84.7,294.9,83.9,295.8,83.9z M309.1,67.6c6.9,0,10.3-2.4,10.3-7c0-1.3-0.3-2.5-0.8-3.5
	c-0.4-0.7-1.1-1.4-2.1-2c-0.6-0.3-1.6-0.6-3.1-0.9c-0.8-0.1-2.1-0.2-3.8-0.2c-0.4,0-1.1,0-2.1,0l-0.2,0c-1,0-1.7,0.8-1.7,1.8
	l0.1,10.1c0,1,0.8,1.7,1.8,1.7L309.1,67.6z"/>
<g>
	<path class="st2" d="M214.8,54.3c-0.8-0.3,2.8,7.3,2.7,8.3c-0.1,1,0.1,0.8-0.2,2.6c-0.3,1.8,0.1,5.6-0.7,8.3
		c-0.8,2.7-5.1,5.6-7,7.8c1.9-0.1,3.4-0.8,5.2-1.4c2.4-0.8,4.9-1.2,7.1-2.5c-0.3-0.3-0.7-0.6-1-0.8c1.5-1.1,1.9-2.6,2.3-4.3
		c-0.3,0.1-0.6,0.1-1,0.1c0.4-0.9,0.9-1.5,1.6-2.1c-0.8-1.2-1.8-2.3-2.5-3.5C220.9,64.9,217.4,55.2,214.8,54.3z"/>
</g>
<g>
	<path d="M198.7,50.5c-11.4,0.2-19,9.8-19,20.8c0,8.4,6.1,15.6,17.7,15.6c3.4,0,8-0.8,11.3-2.4c0.8-0.4,1.7-0.1,2.2,0.6v0
		c0.5,0.8,0.2,1.9-0.6,2.4c-3.9,2-9.3,3.1-13.3,3.1c-14,0-22.4-8.9-22.4-20.1c0-13,10.5-23.8,24.5-23.8c13.9,0,20.8,10.8,20.8,20.8
		c0,7.5-5.2,14.3-12.6,14.3c-4,0-6-2.4-6.3-7.3c-1.8,4.1-5.7,6.7-8.9,6.8c-3.4,0.2-7.5-2.8-7.5-9c0-7.6,6.4-16.5,13.8-16.5
		c1.5,0,4.9,4.2,4.9,4.2s0.3-0.8,0.5-1.6c0.3-0.8,1-1.3,1.8-1.3h2.4c0.7,0,1.2,0.6,1,1.3c-0.9,4.1-3.6,16.3-3.6,17.4
		c0,2.1,0.6,3.4,2.4,3.4c2.4,0,7.8-4.4,6.6-14.5C213.5,56.6,206.8,50.3,198.7,50.5z M193.9,77.5c2.8,0,6.5-5.2,7.2-7.9
		c0-0.1,1.1-6.3,1.2-6.7c0,0-2.2-3.2-4.2-3.2c-4.3,0-7.6,6.5-8,12C189.8,76,191.6,77.5,193.9,77.5z"/>
</g>
</svg>
