<svg width="312" height="261" viewBox="0 0 312 261" fill="none" xmlns="http://www.w3.org/2000/svg">
<path d="M311.999 151.308C311.999 151.506 311.999 151.704 311.999 151.899C311.964 155.319 311.761 158.73 311.39 162.132C311.392 162.152 311.392 162.173 311.39 162.194C311.361 162.476 311.328 162.756 311.296 163.039C311.241 163.517 311.182 163.991 311.117 164.469C310.358 170.285 309.103 176.026 307.366 181.629C305.038 189.199 301.747 196.44 297.573 203.173C296.289 205.232 294.921 207.224 293.47 209.151C292.696 210.171 291.906 211.169 291.089 212.151C290.516 212.838 289.933 213.514 289.339 214.179L288.968 214.589C285.841 218.019 282.47 221.219 278.882 224.165C273.026 229.015 266.721 233.234 260.315 237.147C259.95 237.372 259.583 237.593 259.215 237.797C259.19 237.816 259.162 237.832 259.134 237.846C250.428 243.106 241.4 247.851 232.098 251.651C221.915 255.822 211.4 258.854 200.611 260.181C185.574 262.027 170.355 260.525 155.409 257.944C142.978 255.81 130.698 252.879 118.645 249.168L116.66 248.547C115.632 248.22 114.605 247.886 113.579 247.546C107.383 245.498 101.256 243.223 95.1977 240.72C79.9831 234.459 65.4484 226.662 51.8199 217.449C50.0847 216.283 48.3745 215.092 46.6893 213.874C44.3338 212.179 42.0065 210.435 39.7074 208.64L38.289 207.542C32.2723 202.835 26.6352 197.662 21.4298 192.072C14.4284 184.46 8.44539 175.872 4.51202 166.068C3.8917 164.528 3.32344 162.958 2.80723 161.358L2.75843 161.199C2.49815 160.386 2.2574 159.574 2.03617 158.729C1.71083 157.519 1.42561 156.295 1.18052 155.056C1.12847 154.818 1.08292 154.581 1.04062 154.34C0.263022 150.169 -0.080416 145.928 0.0157993 141.686C0.0971688 137.969 0.532928 134.269 1.31716 130.634C2.11985 126.867 3.35681 123.205 5.00328 119.722C6.4912 116.591 8.38701 113.669 10.6414 111.034C12.2256 109.191 14.0072 107.528 15.9543 106.074C19.4842 103.447 23.3981 101.617 27.4551 100.171C29.3616 99.488 31.2941 98.8899 33.2364 98.334C34.6126 97.9375 35.9953 97.5604 37.3715 97.1899L41.4317 96.0944C44.0345 95.3858 46.6372 94.6577 49.2009 93.8711C56.1892 91.7387 63.0377 89.1578 69.3721 85.3092C70.3741 84.7014 71.3957 84.035 72.4173 83.3199C73.7186 82.4163 75.0005 81.4346 76.2693 80.3749C77.5511 79.3023 78.807 78.1548 80.0042 76.9391C80.1897 76.7506 80.3718 76.5621 80.554 76.3703C81.5301 75.3431 82.4768 74.2672 83.3552 73.149C83.7847 72.6029 84.2011 72.0471 84.598 71.4815C85.1479 70.6982 85.6684 69.9018 86.1499 69.0826C88.564 64.987 90.054 60.4688 89.8783 55.7068C89.8526 54.9222 89.782 54.1397 89.6669 53.3631C89.2439 50.4929 88.8372 47.691 88.5379 44.9508C87.2821 33.6162 87.8124 23.3381 96.3266 13.6808C106.913 1.67666 123.528 -0.770985 138.654 0.187918C182.383 2.95086 222.191 27.8953 257.175 57.5921C260.201 60.1578 263.19 62.7582 266.142 65.3933C266.886 66.0564 267.631 66.7238 268.377 67.3956C273.908 72.3722 279.354 77.534 284.426 83.0631C284.836 83.5117 285.246 83.9603 285.649 84.4121C285.896 84.6916 286.147 84.9679 286.391 85.2507C287.972 87.0385 289.507 88.8696 290.995 90.7441C294.98 95.7204 298.5 101.052 301.51 106.672C306.118 115.491 309.237 125.01 310.743 134.844C311.309 138.415 311.681 142.014 311.859 145.626C311.914 146.689 311.95 147.755 311.969 148.818C311.969 149.159 311.969 149.497 311.969 149.839C312.002 150.333 312.002 150.814 311.999 151.308Z" fill="#F0EFFF"/>
</svg>
