<svg width="3181" height="572" viewBox="0 0 3181 572" fill="none" xmlns="http://www.w3.org/2000/svg">
<path d="M1609.65 400.899C1603.54 387.631 1594.37 376.403 1583.16 367.217C1571.94 358.031 1559.71 350.886 1545.45 343.742C1531.18 336.597 1516.91 330.473 1501.62 326.39C1474.1 318.225 1446.59 308.018 1420.09 296.791C1408.88 292.708 1399.71 286.584 1392.57 278.419C1386.46 271.274 1383.4 263.109 1383.4 253.922C1383.4 241.674 1387.48 231.468 1395.63 222.282C1403.78 213.096 1413.97 206.972 1427.22 202.889C1440.47 198.806 1454.74 196.765 1471.05 196.765C1500.6 197.786 1526.08 203.91 1548.5 216.158L1536.27 224.323C1533.22 227.385 1529.14 231.468 1526.08 236.571C1523.02 241.674 1520.99 247.798 1520.99 253.922C1520.99 267.191 1525.06 278.419 1533.22 287.605C1542.39 295.77 1553.6 300.873 1566.85 300.873C1575 300.873 1582.14 298.832 1589.27 294.749C1596.4 290.667 1601.5 284.543 1606.6 276.377C1610.67 268.212 1613.73 259.026 1613.73 248.819C1613.73 235.55 1609.65 223.302 1601.5 212.075C1592.33 200.848 1581.12 190.641 1565.83 183.496C1551.56 176.351 1535.25 170.227 1517.93 166.145C1500.6 162.062 1484.3 160.021 1467.99 159C1457.8 159 1445.57 159 1432.32 161.041C1419.07 163.083 1405.82 166.145 1392.57 171.248C1379.32 176.351 1367.09 182.475 1356.9 189.62C1345.69 197.786 1336.52 207.992 1329.38 220.24C1322.25 232.488 1319.19 246.778 1318.17 262.088C1318.17 277.398 1320.21 291.687 1326.33 303.935C1332.44 316.183 1341.61 326.39 1352.82 334.556C1364.03 342.721 1376.26 349.866 1389.51 355.99C1403.78 362.114 1418.05 368.238 1433.34 372.32C1462.89 380.486 1489.39 390.692 1514.87 402.941C1526.08 408.044 1535.25 415.189 1541.37 424.375C1547.48 433.561 1550.54 443.767 1550.54 453.974C1550.54 469.284 1544.43 481.532 1534.24 489.698C1524.04 498.884 1512.83 505.008 1498.56 508.07C1485.32 511.132 1469.01 513.173 1449.64 512.152C1434.36 512.152 1419.07 509.09 1403.78 505.008C1388.49 499.904 1377.28 494.801 1368.11 487.656C1374.23 487.656 1379.32 486.636 1385.44 482.553C1390.53 478.47 1395.63 474.388 1398.69 468.264C1401.74 462.14 1403.78 454.995 1403.78 447.85C1403.78 434.581 1399.71 424.375 1391.55 416.209C1383.4 408.044 1372.19 403.961 1357.92 403.961C1349.77 403.961 1341.61 406.003 1334.48 410.085C1327.34 414.168 1321.23 420.292 1316.13 428.457C1311.04 436.623 1309 444.788 1309 454.995C1309 471.326 1313.08 485.615 1321.23 498.884C1330.4 512.152 1341.61 522.359 1356.9 529.504C1386.46 544.814 1420.09 552.979 1457.8 554C1474.1 554 1489.39 554 1503.66 551.959C1518.95 549.917 1533.22 546.855 1546.47 541.752C1560.73 536.649 1571.94 530.525 1582.14 522.359C1592.33 514.194 1601.5 502.966 1607.62 490.718C1613.73 477.45 1617.81 463.16 1617.81 445.809C1618.83 429.478 1615.77 414.168 1609.65 400.899Z" fill="white"/>
<path d="M866.549 423.368L848.19 417.244C842.07 415.203 834.93 418.265 832.89 424.388C827.79 437.655 820.65 449.902 811.471 460.108C800.251 473.375 786.992 483.581 771.692 490.725C756.393 497.869 741.093 500.931 723.754 500.931C705.394 500.931 689.075 496.848 673.775 489.704C659.496 481.54 647.256 470.314 639.096 457.046C621.757 429.491 612.577 394.792 612.577 353.969C612.577 351.928 613.597 350.907 615.637 350.907H871.649C878.789 350.907 884.908 344.784 883.888 337.64C882.868 312.126 877.769 289.674 869.609 268.242C860.429 243.748 848.19 222.316 832.89 205.987C817.591 189.658 799.231 177.411 778.832 169.247C758.433 161.082 735.993 157 711.514 157C688.055 157 667.656 161.082 648.276 168.226C612.577 181.494 582.998 207.008 561.579 243.748C551.379 261.098 544.24 279.468 539.14 298.859C534.04 319.27 532 339.681 532 361.113C532 385.607 536.08 410.1 544.24 432.553C552.399 456.026 564.639 476.437 579.938 494.807C595.238 513.177 614.617 528.486 639.096 538.692C662.556 548.897 689.075 554 716.614 554C744.153 554 768.632 548.897 791.071 538.692C813.511 528.486 831.87 513.177 846.15 494.807C858.389 478.478 867.569 460.108 874.709 438.676C876.749 432.553 873.689 425.409 866.549 423.368ZM616.657 309.064C618.697 287.632 623.797 269.262 632.977 252.933C642.156 235.584 653.376 222.316 667.656 212.111C681.935 202.925 697.235 197.823 714.574 197.823C731.913 197.823 747.213 202.925 760.472 212.111C774.752 221.296 785.972 235.584 794.131 252.933C802.291 269.262 806.371 287.632 807.391 309.064C807.391 311.105 806.371 312.126 804.331 312.126H618.697C617.677 312.126 616.657 311.105 616.657 309.064Z" fill="white"/>
<path d="M1309 184.325C1309 177.173 1303.89 172.065 1296.75 172.065L1147.66 171.043C1140.51 171.043 1135.41 176.152 1135.41 183.304V197.607C1135.41 204.759 1140.51 209.867 1147.66 209.867H1177.27C1185.44 209.867 1190.55 218.041 1188.51 226.214L1117.03 445.875C1112.94 457.114 1097.63 457.114 1093.54 445.875L1022.06 225.192C1019 217.019 1025.13 208.846 1033.3 208.846H1066.99C1074.14 208.846 1079.25 203.737 1079.25 196.585V182.282C1079.25 175.13 1074.14 170.022 1066.99 170.022L900.549 169C885.232 169 874 181.26 874 194.542C874 201.694 879.106 206.802 886.253 206.802H928.12C933.225 206.802 937.31 209.867 939.352 214.976L959.775 273.211L1006.75 402.965L1040.44 494.916C1053.72 529.653 1068.01 543.957 1093.54 546H1095.58C1122.13 546 1137.45 530.675 1150.73 493.894L1248.75 217.019C1249.77 211.911 1254.88 208.846 1259.99 208.846H1296.75C1303.89 208.846 1309 203.737 1309 196.585V184.325Z" fill="white"/>
<path d="M513 287.681C513 247.896 506.881 212.191 493.622 181.586C480.364 150.982 464.046 126.498 442.628 107.115C421.211 87.7326 394.694 71.4103 363.078 58.1484C333.501 45.9066 301.885 37.7454 270.268 32.6447C237.632 27.544 155.022 14.2821 155.022 14.2821L150.942 20.4029L146.863 24.4835C142.783 20.4029 134.624 10.2015 119.326 9.18133C120.346 14.2821 118.306 16.3224 119.326 22.4432C111.167 19.3828 113.207 9.18132 106.068 0C99.9483 4.08059 90.7694 19.3828 84.6501 24.4835H27.5368C13.2584 24.4835 2.03976 35.7051 2.03976 49.9872C2.03976 64.2692 13.2584 75.4909 27.5368 75.4909H63.2326C77.5109 75.4909 88.7296 86.7125 88.7296 100.995L86.6899 480.489C86.6899 494.771 75.4712 505.993 61.1928 505.993H25.497C11.2187 505.993 0 517.214 0 531.496C0 545.778 11.2187 557 25.497 557L172.36 553.94C213.155 553.94 249.871 550.879 284.547 544.758C319.223 538.637 349.819 528.436 378.376 515.174C406.932 501.912 430.39 484.57 450.787 464.167C470.165 443.764 485.463 418.26 496.682 387.656C506.881 358.071 513 324.407 513 287.681ZM374.296 436.623C360.018 452.945 341.66 466.207 319.223 476.408C297.805 486.61 275.368 493.751 250.891 497.832C234.573 500.892 216.215 502.932 195.817 502.932C181.539 503.952 169.3 491.711 169.3 477.429L171.34 99.9744C171.34 85.6923 183.579 74.4707 197.857 74.4707C208.056 74.4707 218.254 75.4908 227.433 76.511C244.771 78.5513 263.129 81.6117 280.467 85.6923C297.805 89.7729 313.103 94.8736 327.382 100.995C341.66 108.136 354.918 117.317 367.157 127.518C379.396 138.74 389.594 150.982 397.753 165.264C405.913 180.566 413.052 197.908 417.131 218.311C422.231 238.714 424.27 261.158 424.27 285.641C424.27 319.306 419.171 348.89 411.012 373.374C400.813 399.897 388.574 420.3 374.296 436.623Z" fill="white"/>
<path d="M2432.6 545C2422.42 545 2413.25 542.958 2405.1 539.894C2396.96 536.83 2389.83 531.724 2384.73 525.597C2379.64 519.469 2374.55 511.3 2370.48 501.087C2366.4 490.875 2362.33 479.642 2359.27 467.387C2356.22 454.111 2353.16 439.814 2351.13 426.538C2350.11 417.347 2347.05 408.157 2342.98 399.987C2338.91 391.817 2335.85 385.69 2331.78 381.605C2327.7 377.52 2323.63 374.456 2319.56 371.393C2315.48 368.329 2311.41 366.286 2308.35 366.286C2305.3 365.265 2303.26 365.265 2301.22 365.265H2250.3C2246.23 365.265 2242.16 368.329 2242.16 373.435V492.918C2242.16 497.003 2245.21 501.087 2250.3 501.087H2291.04C2295.11 501.087 2299.19 504.151 2299.19 509.257V528.66C2299.19 532.745 2296.13 536.83 2291.04 536.83H2131.15C2127.07 536.83 2123 533.767 2123 528.66V509.257C2123 505.172 2126.06 501.087 2131.15 501.087H2175.96C2180.03 501.087 2184.11 498.024 2184.11 492.918L2185.12 203.912C2185.12 199.828 2182.07 195.743 2176.98 195.743H2132.17C2128.09 195.743 2124.02 192.679 2124.02 187.573V168.17C2124.02 164.085 2127.07 160 2132.17 160H2267.62H2279.84C2291.04 160 2300.21 160 2307.33 161.021C2314.46 161.021 2324.65 162.042 2335.85 163.064C2350.11 164.085 2361.31 166.127 2369.46 168.17C2378.62 170.212 2388.81 174.297 2398.99 179.403C2409.18 184.509 2417.32 189.615 2423.43 196.764C2429.54 203.912 2434.64 212.082 2439.73 223.316C2443.8 233.528 2445.84 245.782 2445.84 260.08C2445.84 289.695 2436.67 311.141 2418.34 325.438C2409.18 332.586 2400.01 337.692 2389.83 341.777C2385.75 342.798 2381.68 344.841 2377.61 345.862C2370.48 347.905 2370.48 357.096 2376.59 360.159C2382.7 363.223 2388.81 368.329 2392.88 373.435C2396.96 378.541 2400.01 384.668 2403.07 390.796C2406.12 396.923 2408.16 405.093 2411.21 415.305C2413.25 423.475 2416.31 436.751 2420.38 456.154C2421.4 462.281 2422.42 467.387 2424.45 473.515C2426.49 479.642 2428.53 483.727 2430.56 487.812C2432.6 491.897 2435.66 494.96 2438.71 497.003C2441.77 499.045 2445.84 500.066 2449.91 500.066C2467.23 500.066 2475.37 484.748 2475.37 453.09V426.538C2475.37 422.454 2478.43 418.369 2483.52 418.369H2501.85C2505.93 418.369 2510 421.432 2510 426.538V455.133C2506.94 515.385 2482.5 545 2432.6 545ZM2272.71 327.48C2299.19 327.48 2321.59 325.438 2337.89 322.374C2354.18 318.289 2367.42 312.162 2376.59 302.971C2385.75 293.78 2390.84 280.504 2390.84 265.186C2390.84 251.91 2388.81 240.676 2383.72 231.485C2378.62 222.294 2371.49 215.146 2361.31 210.04C2351.13 204.934 2338.91 201.87 2324.65 199.828C2310.39 197.785 2293.08 196.764 2270.67 196.764H2249.28C2245.21 196.764 2241.14 199.828 2241.14 204.934V320.332C2241.14 324.416 2244.19 328.501 2249.28 328.501L2272.71 327.48Z" fill="white"/>
<path d="M2563.43 518.678C2563.43 508.488 2571.58 501.355 2581.76 501.355H2604.15C2614.33 501.355 2622.47 493.203 2622.47 484.033L2625.53 216.043C2625.53 205.854 2617.38 197.702 2608.22 197.702L2548.16 196.683C2537.99 196.683 2529.84 204.835 2529.84 214.005L2528.82 294.504C2528.82 304.694 2520.68 311.827 2510.5 311.827H2499.3C2489.13 311.827 2482 303.675 2482 293.485L2483.02 177.323C2483.02 167.133 2491.16 160 2501.34 160L2805.7 163.057C2815.87 163.057 2823 171.209 2823 181.398L2821.98 297.561C2821.98 307.751 2813.84 314.883 2803.66 314.883H2792.46C2782.28 314.883 2775.16 306.732 2775.16 296.542L2776.18 216.043C2776.18 205.854 2768.03 197.702 2758.87 197.702L2700.85 196.683C2690.67 196.683 2682.53 204.835 2682.53 214.005L2679.47 481.995C2679.47 492.184 2687.62 500.336 2696.78 500.336H2721.21C2731.39 500.336 2738.51 508.488 2738.51 518.678C2738.51 528.867 2730.37 536 2720.19 536L2579.72 534.981C2570.56 536 2563.43 527.848 2563.43 518.678Z" fill="white"/>
<path d="M2883.4 502.336H2907.86C2918.05 502.336 2925.19 494.184 2925.19 483.995L2923.15 216.005C2923.15 205.816 2915 198.683 2904.8 198.683H2880.34C2870.15 198.683 2862 190.531 2862 181.36C2862 171.171 2870.15 163.019 2879.33 163.019L3014.88 162C3027.11 162 3037.3 162 3044.43 162C3052.58 162 3061.76 163.019 3073.99 164.038C3086.22 165.057 3097.43 167.095 3105.58 170.152C3114.75 172.19 3123.93 176.266 3134.12 181.36C3144.31 186.455 3152.46 192.569 3158.58 199.702C3164.69 206.835 3170.81 214.986 3174.88 226.195C3178.96 236.385 3181 248.612 3181 262.878C3181 276.125 3178.96 288.352 3175.9 298.542C3171.83 309.751 3167.75 318.921 3161.64 326.054C3155.52 333.187 3148.39 339.301 3138.19 344.396C3129.02 349.491 3118.83 354.585 3108.64 357.642C3099.47 360.699 3089.27 362.737 3076.03 364.775C3062.78 366.813 3050.55 367.832 3039.34 367.832C3029.14 368.851 3015.89 368.851 3002.65 368.851H3000.61C2990.42 368.851 2983.28 377.003 2983.28 387.192L2984.3 483.995C2984.3 494.184 2992.45 501.317 3002.65 501.317H3029.14C3039.34 501.317 3047.49 509.469 3047.49 518.64C3047.49 528.829 3039.34 536.981 3030.16 536.981L2884.42 538C2874.23 538 2866.08 529.848 2866.08 520.677C2866.08 510.488 2874.23 502.336 2883.4 502.336ZM3018.95 336.244C3089.27 336.244 3123.93 311.789 3123.93 264.916C3123.93 251.669 3120.87 239.442 3115.77 229.252C3111.7 222.119 3104.56 214.986 3094.37 208.873C3088.26 205.816 3078.06 202.759 3062.78 199.702C3054.62 198.683 3041.37 197.664 3024.05 197.664C3019.97 197.664 3012.84 197.664 3002.65 197.664H3000.61C2990.42 197.664 2983.28 205.816 2983.28 216.005L2984.3 318.921C2984.3 329.111 2992.45 336.244 3002.65 336.244H3018.95Z" fill="white"/>
<path opacity="0.98" d="M2057.36 200.854C2049.2 197.794 2085.92 275.305 2084.9 285.504C2083.88 295.703 2085.92 293.663 2082.86 312.021C2079.8 330.379 2083.88 369.135 2075.72 396.671C2067.56 424.208 2023.71 453.785 2004.33 476.222C2023.71 475.202 2039 468.063 2057.36 461.944C2081.84 453.785 2107.34 449.705 2129.77 436.447C2126.71 433.387 2122.63 430.327 2119.57 428.288C2134.87 417.069 2138.95 401.771 2143.03 384.433C2139.97 385.453 2136.91 385.453 2132.83 385.453C2136.91 376.274 2142.01 370.154 2149.15 364.035C2140.99 351.797 2130.79 340.578 2123.65 328.339C2119.57 308.961 2083.88 210.033 2057.36 200.854Z" fill="white"/>
<path d="M1893.16 162.099C1776.89 164.139 1699.38 262.048 1699.38 374.235C1699.38 459.905 1761.6 533.337 1879.9 533.337C1914.58 533.337 1961.49 525.178 1995.15 508.859C2003.31 504.78 2012.49 507.84 2017.59 514.979C2022.69 523.138 2019.63 534.357 2011.47 539.456C1971.69 559.854 1916.62 571.072 1875.82 571.072C1733.04 571.072 1647.37 480.303 1647.37 366.076C1647.37 233.491 1754.46 123.344 1897.24 123.344C2039 123.344 2109.38 233.491 2109.38 335.479C2109.38 411.971 2056.34 481.323 1980.87 481.323C1940.08 481.323 1919.68 456.845 1916.62 406.871C1898.26 448.686 1858.48 475.203 1825.85 476.223C1791.17 478.263 1749.36 447.667 1749.36 384.434C1749.36 306.923 1814.63 216.153 1890.1 216.153C1905.4 216.153 1940.08 258.988 1940.08 258.988C1940.08 258.988 1943.14 250.829 1945.17 242.67C1948.23 234.511 1955.37 229.412 1963.53 229.412H1988.01C1995.15 229.412 2000.25 235.531 1998.21 242.67C1989.03 284.485 1961.49 408.911 1961.49 420.13C1961.49 441.547 1967.61 454.806 1985.97 454.806C2010.45 454.806 2065.52 409.931 2053.28 306.923C2044.1 224.312 1975.77 160.06 1893.16 162.099ZM1844.21 437.468C1872.76 437.468 1910.5 384.434 1917.64 356.897C1917.64 355.877 1928.86 292.644 1929.88 288.565C1929.88 288.565 1907.44 255.929 1887.04 255.929C1843.19 255.929 1809.53 322.221 1805.45 378.314C1802.39 422.169 1820.75 437.468 1844.21 437.468Z" fill="white"/>
</svg>
