<svg width="25" height="24" viewBox="0 0 25 24" fill="none" xmlns="http://www.w3.org/2000/svg">
<path d="M21.5595 15.1819C21.5595 17.3306 20 19.184 17.8571 19.5382C17.6071 19.5854 17.3452 19.6208 17.0714 19.609C16.9762 19.609 16.9405 19.6444 16.9167 19.7271C16.4881 20.9431 15.6429 21.6632 14.369 21.8403C13.5238 21.9583 12.7619 21.734 12.0833 21.2146C11.9881 21.1319 11.9048 21.1319 11.8333 21.2028C11.0476 21.7576 10.1667 22.0056 9.20238 21.9465C7.33333 21.8403 5.75 20.4118 5.45238 18.5819C5.42857 18.4521 5.40476 18.2986 5.40476 18.1924C5.40476 18.0861 5.35714 18.0507 5.2619 18.0271C4.69048 17.9208 4.16667 17.7083 3.72619 17.3306C2.88095 16.6812 2.38095 15.8312 2.2619 14.7569C2.13095 13.5764 2.5119 12.5375 3.35714 11.6757C3.42857 11.6049 3.42857 11.5576 3.38095 11.475C3.05952 10.9083 2.90476 10.2944 2.92857 9.64514C2.97619 8.01597 4.13095 6.67014 5.72619 6.33958C5.90476 6.29236 6 6.22153 6.08333 6.05625C6.86905 4.37986 8.17857 3.36458 10.0119 3.02222C11.3095 2.78611 12.5 3.04583 13.619 3.69514C13.6905 3.75417 13.7857 3.75417 13.8929 3.73056C15.6786 3.21111 17.2619 3.58889 18.5952 4.85208C19.381 5.59583 19.8214 6.54028 19.9524 7.62639C19.9762 7.8625 19.9881 8.09861 19.9762 8.33472C19.9643 8.42917 19.9881 8.46458 20.0833 8.48819C20.881 8.78333 21.4286 9.33819 21.6786 10.1528C21.9762 11.1562 21.7262 12.0535 20.9643 12.7854C20.8929 12.8562 20.9167 12.8917 20.9524 12.9507C21.3571 13.6472 21.5595 14.3792 21.5595 15.1819ZM13.6071 14.8396C13.6071 15.7486 14.2024 16.5278 15.0476 16.8347C15.4762 16.9646 15.8929 17.0354 16.3333 17.059C16.6667 17.0708 16.9643 17.0472 17.2619 16.9056C17.4881 16.7875 17.5952 16.5986 17.5833 16.3507C17.5714 16.1028 17.4524 15.9375 17.2143 15.8194C17.131 15.784 17.0476 15.7486 16.9524 15.7368C16.6667 15.6896 16.4286 15.6542 16.1548 15.5951C15.7262 15.5125 15.5357 15.2882 15.5357 14.8396C15.5238 14.45 15.631 14.084 15.75 13.7299C15.9762 13.0687 16.2738 12.4312 16.5595 11.8056C16.8333 11.1799 17.119 10.566 17.3095 9.91667C17.4167 9.5625 17.4762 9.20833 17.369 8.85417C17.2262 8.26389 16.8929 7.90972 16.3095 7.80347C15.7738 7.67361 15.2381 7.67361 14.7619 8.00417C14.5952 8.11042 14.4405 8.08681 14.2857 7.95694C14.2024 7.8743 14.0952 7.76805 14 7.67361C13.5 7.225 12.8571 7.20139 12.3214 7.61458C12.1071 7.77986 11.9048 7.98056 11.7024 8.13403C11.5 8.26389 11.3095 8.2993 11.0595 8.16944C10.8333 8.06319 10.619 7.95694 10.3929 7.85069C10.1548 7.75625 9.94048 7.62639 9.67857 7.60278C8.86905 7.53194 8.02381 8.01597 7.66667 8.74792C7.5 9.06667 7.36905 9.39722 7.25 9.73958C6.67857 11.2979 6.21429 12.8799 5.7381 14.4736C5.52381 15.1819 5.77381 15.8785 6.38095 16.2563C6.85714 16.5278 7.36905 16.634 7.90476 16.4687C8.33333 16.3389 8.58333 15.9965 8.75 15.6069C9.29762 14.3201 9.79762 12.9861 10.3214 11.6993C10.4643 11.3451 10.6071 10.9792 10.7619 10.625C10.9167 10.2708 11.3571 10.1528 11.619 10.3889C11.7857 10.5306 11.8333 10.7312 11.8095 10.9319C11.7976 11.1562 11.7143 11.3569 11.631 11.5576C11.3095 12.3958 10.9405 13.2694 10.5952 14.1312C10.5238 14.2965 10.4524 14.4736 10.4167 14.6625C10.369 14.9812 10.4881 15.2646 10.7619 15.3472C11.0238 15.4889 11.3095 15.5125 11.5833 15.4062C11.9048 15.2882 12.1071 15.0403 12.25 14.7569C12.7619 13.7535 13.2738 12.75 13.7857 11.7465C14.0238 11.2861 14.2857 10.8257 14.5 10.3653C14.5952 10.2 14.7024 10.0347 14.881 9.92847C15.0238 9.83403 15.1786 9.83403 15.3333 9.91667C15.4762 9.9993 15.4762 10.1528 15.4762 10.3062C15.4762 10.3889 15.4762 10.4715 15.4405 10.5424C15.369 10.7076 15.3095 10.8611 15.2381 11.0146C14.8095 11.9118 14.369 12.7972 13.9524 13.6826C13.7738 14.0604 13.5833 14.4382 13.6071 14.8396ZM19.5952 21.3917C19.5952 20.8014 19.0952 20.3056 18.5 20.3056C17.8571 20.3056 17.381 20.7896 17.381 21.3917C17.381 21.6829 17.4976 21.9621 17.7052 22.168C17.9129 22.3739 18.1945 22.4896 18.4881 22.4896C18.7817 22.4896 19.0633 22.3739 19.271 22.168C19.4786 21.9621 19.5952 21.6829 19.5952 21.3917ZM1.04762 12.3486C1.61905 12.3486 2.10714 11.8646 2.10714 11.2979C2.10714 10.7312 1.63095 10.259 1.05952 10.259C0.464286 10.259 0 10.7194 0 11.2979C0 11.8764 0.464286 12.3486 1.04762 12.3486ZM14 0.649305C13.4167 0.649305 12.9405 1.10972 12.9405 1.67639C12.9405 2.25486 13.4167 2.71528 13.9881 2.71528C14.5714 2.71528 15.0357 2.26667 15.0357 1.68819C15.0357 1.12153 14.5714 0.649305 14 0.649305ZM22.5595 7.11875C22.5595 6.64653 22.1548 6.24514 21.6786 6.24514C21.1905 6.23333 20.7738 6.64653 20.7738 7.13056C20.7738 7.61458 21.1667 8.00417 21.6667 8.00417C22.1667 8.00417 22.5714 7.61458 22.5595 7.11875ZM4.21429 4.59236C4.21429 5.04097 4.57143 5.38333 5.0119 5.38333C5.46429 5.38333 5.82143 5.02917 5.80952 4.58056C5.80952 4.13194 5.46429 3.80139 5.02381 3.80139C4.55952 3.80139 4.21429 4.13194 4.21429 4.59236ZM12.5714 22.95C12.5714 22.5722 12.2738 22.2653 11.9048 22.2653C11.5 22.2653 11.2024 22.5604 11.2024 22.95C11.2024 23.316 11.5 23.6111 11.9048 23.6111C12.2619 23.6111 12.5714 23.316 12.5714 22.95ZM23.2143 12.3958C22.869 12.3958 22.5595 12.7264 22.5595 13.0806C22.5595 13.2528 22.6285 13.4179 22.7513 13.5397C22.8741 13.6615 23.0406 13.7299 23.2143 13.7299C23.6071 13.7299 23.8929 13.4583 23.8929 13.0806C23.8929 12.7146 23.6071 12.3958 23.2143 12.3958ZM7.28571 0C6.96429 0 6.71429 0.236111 6.71429 0.554861C6.71429 0.861805 6.96429 1.10972 7.28571 1.10972C7.43411 1.10972 7.57643 1.05126 7.68136 0.947207C7.78629 0.843151 7.84524 0.702019 7.84524 0.554861C7.84524 0.236111 7.60714 0 7.28571 0ZM24.5 9.44444C24.2381 9.44444 24.0119 9.64514 24 9.91667C24 10.1882 24.2262 10.4125 24.5 10.4125C24.7857 10.4125 25 10.2 25 9.92847C25 9.64514 24.7857 9.44444 24.5 9.44444ZM4.7619 19.1958C4.7619 18.9361 4.5119 18.7118 4.2381 18.7C3.97619 18.7 3.75 18.9243 3.75 19.2076C3.75 19.4792 3.97619 19.6917 4.25 19.6917C4.52381 19.6917 4.7619 19.4792 4.7619 19.1958Z" fill="white"/>
</svg>
