<svg width="23" height="23" viewBox="0 0 23 23" fill="none" xmlns="http://www.w3.org/2000/svg">
<path d="M17.4556 8.92228C17.9889 8.47783 18.6111 7.9445 18.8889 7.35561C18.4333 7.58894 17.8889 7.73339 17.2889 7.81116C17.8444 7.41116 18.3 6.88894 18.5333 6.17783C17.9556 6.48894 17.3667 6.75561 16.6333 6.88894C14.9111 4.81117 10.7889 6.50005 11.5222 9.61117C8.62222 9.43339 6.85556 8.12228 5.38889 6.51116C4.55556 7.86672 5.27778 9.92228 6.26667 10.4889C5.75556 10.4556 5.36667 10.3001 5 10.1223C5.04444 11.8334 5.98889 12.6556 7.31111 13.1001C6.91111 13.1778 6.46667 13.2001 6.04444 13.1334C6.45556 14.3223 7.31111 15.0667 8.77778 15.2223C7.77778 16.0667 5.93333 16.6556 4.44444 16.4223C5.72222 17.2334 7.17778 17.8778 9.2 17.7889C14.1 17.5667 17.3778 14.0556 17.4556 8.92228ZM11.1111 0.777832C12.5702 0.777832 14.0151 1.06523 15.3631 1.62362C16.7112 2.182 17.9361 3.00044 18.9679 4.0322C19.9996 5.06396 20.8181 6.28884 21.3764 7.6369C21.9348 8.98497 22.2222 10.4298 22.2222 11.8889C22.2222 14.8358 21.0516 17.6619 18.9679 19.7457C16.8841 21.8294 14.058 23.0001 11.1111 23.0001C9.65198 23.0001 8.20713 22.7127 6.85907 22.1543C5.51101 21.5959 4.28613 20.7774 3.25437 19.7457C1.17063 17.6619 0 14.8358 0 11.8889C0 8.94209 1.17063 6.11594 3.25437 4.0322C5.33811 1.94846 8.16426 0.777832 11.1111 0.777832Z" fill="white"/>
</svg>
